<?xml version="1.0" encoding="utf-8"?>
<!-- Generator: Adobe Illustrator 18.0.0, SVG Export Plug-In . SVG Version: 6.00 Build 0)  -->
<!DOCTYPE svg PUBLIC "-//W3C//DTD SVG 1.1//EN" "http://www.w3.org/Graphics/SVG/1.1/DTD/svg11.dtd">
<svg version="1.1" id="Layer_1" xmlns="http://www.w3.org/2000/svg" xmlns:xlink="http://www.w3.org/1999/xlink" x="0px" y="0px"
	 viewBox="170.2 437.8 1076.4 453.2" enable-background="new 170.2 437.8 1076.4 453.2" xml:space="preserve">
<g>
	<path fill="#708CA4" d="M1073.8,664.4V663c0-130.4-101.4-225.2-241.4-225.2H450.1v72.8h382.3c90.5,0,153.8,63.1,153.8,153.8v1.4
		c0,44.3-14.8,82.1-42.6,110c-27.8,27.8-66.4,42.4-111.2,42.4H450.1V891h382.3C972.4,891,1073.8,795.8,1073.8,664.4z"/>
	<g>
		<g>
			<path d="M170.4,592.7h34l54.3,60.7l54.3-60.7h34V736h-31.4v-93.5l-56.9,61.2H258l-56.9-60.5V736h-30.9V592.7H170.4z"/>
		</g>
		<g>
			<path d="M382.8,592.7h31.4V736h-31.4V592.7z"/>
		</g>
		<g>
			<path d="M450.1,592.7h29l90.9,88.3v-88.3h31.2V736h-26.9l-93.3-91.2V736h-31.2V592.7H450.1z"/>
		</g>
		<g>
			<path d="M684.8,591.8h29L775.3,736h-32.8l-13.1-32.1h-60.7L655.5,736h-32.1L684.8,591.8z M717.9,676l-19-46.4l-19,46.4H717.9z"/>
		</g>
		<g>
			<path d="M1094.2,664.9v-0.5c0-40.7,32.1-74,76.4-74s75.9,32.8,75.9,73.8v0.5c0,40.7-32.1,74-76.4,74
				C1126.1,738.6,1094.2,705.6,1094.2,664.9z M1213.7,664.9v-0.5c0-24.5-18.1-45-43.3-45c-25.5,0-43.1,20-43.1,44.5v0.5
				c0,24.5,18.1,45,43.3,45C1196.1,709.6,1213.7,689.4,1213.7,664.9z"/>
		</g>
	</g>
	<g>
		<path d="M886.7,592.7h-89.3V736h31.4v-45.9h48.6l30.7,45.9H945l-35-51.2c18.3-6.7,30.7-21.2,30.7-44.5v-0.5
			c0-13.6-4.3-24.8-12.4-32.8C919,598,905,592.7,886.7,592.7z M908.8,642.2c0,12.1-8.8,20.2-24,20.2h-55.7v-41.2h55.2
			c15.5,0,24.8,6.9,24.8,20.5v0.5H908.8z"/>
	</g>
</g>
</svg>
