<?xml version="1.0" encoding="utf-8"?>
<!-- Generator: Adobe Illustrator 18.0.0, SVG Export Plug-In . SVG Version: 6.00 Build 0)  -->
<!DOCTYPE svg PUBLIC "-//W3C//DTD SVG 1.1//EN" "http://www.w3.org/Graphics/SVG/1.1/DTD/svg11.dtd">
<svg version="1.1" xmlns="http://www.w3.org/2000/svg" xmlns:xlink="http://www.w3.org/1999/xlink" x="0px" y="0px"
	 viewBox="-1.8 0 1425 610.5" enable-background="new -1.8 0 1425 610.5" xml:space="preserve">
<g id="Layer_2">
	<g>
		<path fill="#231F20" d="M1195.9,312.3v-1.8C1195.9,138.8,1062.4,14,878,14H374.8v95.8H878c119.1,0,202.5,83.1,202.5,202.5v1.8
			c0,58.3-19.5,108.1-56.1,144.8c-36.6,36.6-87.4,55.8-146.4,55.8H374.8v95.8H878C1062.4,610.6,1195.9,485.3,1195.9,312.3z"/>
		<g>
			<g>
				<path fill="#231F20" d="M6.6,217.9h44.8l71.5,79.9l71.5-79.9h44.7v188.7h-41.3V283.5l-74.9,80.6H122l-74.9-79.7v122.2H6.4V217.9
					L6.6,217.9L6.6,217.9z"/>
			</g>
			<g>
				<path fill="#231F20" d="M286.2,217.9h41.3v188.7h-41.3V217.9z"/>
			</g>
			<g>
				<path fill="#231F20" d="M374.8,217.9H413l119.7,116.3V217.9h41.1v188.7h-35.4L415.6,286.5v120.1h-41.1V217.9L374.8,217.9
					L374.8,217.9z"/>
			</g>
			<g>
				<path fill="#231F20" d="M683.8,216.7H722l81,189.8h-43.2l-17.2-42.3h-79.9l-17.4,42.3h-42.3L683.8,216.7z M727.3,327.6l-25-61.1
					l-25,61.1H727.3z"/>
			</g>
			<g>
				<path fill="#231F20" d="M1222.8,313v-0.7c0-53.6,42.3-97.4,100.6-97.4c58.3,0,99.9,43.2,99.9,97.2v0.7
					c0,53.6-42.3,97.4-100.6,97.4C1264.8,410,1222.8,366.5,1222.8,313z M1380.1,313v-0.7c0-32.3-23.8-59.2-57-59.2
					c-33.6,0-56.7,26.3-56.7,58.6v0.7c0,32.3,23.8,59.2,57,59.2C1356.9,371.8,1380.1,345.2,1380.1,313z"/>
			</g>
		</g>
		<g>
			<path fill="#231F20" d="M949.5,217.9H832v188.7h41.3v-60.4h64l40.4,60.4h48.6l-46.1-67.4c24.1-8.8,40.4-27.9,40.4-58.6v-0.7
				c0-17.9-5.7-32.7-16.3-43.2C992,224.9,973.6,217.9,949.5,217.9z M978.6,283.1c0,15.9-11.6,26.6-31.6,26.6h-73.3v-54.2h72.7
				c20.4,0,32.7,9.1,32.7,27v0.7L978.6,283.1L978.6,283.1z"/>
		</g>
	</g>
</g>
<g id="Layer_1">
	<g>
		<path fill="#708CA4" d="M1187.7,298.3v-1.8C1187.7,124.8,1054.2,0,869.9,0H366.6v95.8h503.3c119.1,0,202.5,83.1,202.5,202.5v1.8
			c0,58.3-19.5,108.1-56.1,144.8c-36.6,36.6-87.4,55.8-146.4,55.8H366.6v95.8h503.3C1054.2,596.6,1187.7,471.3,1187.7,298.3z"/>
		<g>
			<g>
				<path fill="#FFFFFF" d="M-1.6,203.9h44.8l71.5,79.9l71.5-79.9h44.7v188.7h-41.3V269.5l-74.9,80.6h-0.9l-74.9-79.7v122.2H-1.8
					V203.9L-1.6,203.9L-1.6,203.9z"/>
			</g>
			<g>
				<path fill="#FFFFFF" d="M278,203.9h41.3v188.7H278V203.9z"/>
			</g>
			<g>
				<path fill="#FFFFFF" d="M366.6,203.9h38.2l119.7,116.3V203.9h41.1v188.7h-35.4L407.4,272.5v120.1h-41.1V203.9L366.6,203.9
					L366.6,203.9z"/>
			</g>
			<g>
				<path fill="#FFFFFF" d="M675.6,202.7h38.2l81,189.8h-43.2l-17.2-42.3h-79.9l-17.4,42.3h-42.3L675.6,202.7z M719.2,313.6
					l-25-61.1l-25,61.1H719.2z"/>
			</g>
			<g>
				<path fill="#FFFFFF" d="M1214.6,299v-0.7c0-53.6,42.3-97.4,100.6-97.4c58.3,0,99.9,43.2,99.9,97.2v0.7
					c0,53.6-42.3,97.4-100.6,97.4C1256.6,396,1214.6,352.5,1214.6,299z M1371.9,299v-0.7c0-32.3-23.8-59.2-57-59.2
					c-33.6,0-56.7,26.3-56.7,58.6v0.7c0,32.3,23.8,59.2,57,59.2C1348.7,357.8,1371.9,331.2,1371.9,299z"/>
			</g>
		</g>
		<g>
			<path fill="#FFFFFF" d="M941.4,203.9H823.8v188.7h41.3v-60.4h64l40.4,60.4h48.6L972,325.2c24.1-8.8,40.4-27.9,40.4-58.6v-0.7
				c0-17.9-5.7-32.7-16.3-43.2C983.9,210.9,965.5,203.9,941.4,203.9z M970.5,269.1c0,15.9-11.6,26.6-31.6,26.6h-73.3v-54.2h72.7
				c20.4,0,32.7,9.1,32.7,27v0.7L970.5,269.1L970.5,269.1z"/>
		</g>
	</g>
</g>
</svg>
