<?xml version="1.0" encoding="utf-8"?>
<!-- Generator: Adobe Illustrator 18.0.0, SVG Export Plug-In . SVG Version: 6.00 Build 0)  -->
<!DOCTYPE svg PUBLIC "-//W3C//DTD SVG 1.1//EN" "http://www.w3.org/Graphics/SVG/1.1/DTD/svg11.dtd">
<svg version="1.1" id="Layer_1" xmlns="http://www.w3.org/2000/svg" xmlns:xlink="http://www.w3.org/1999/xlink" x="0px" y="0px"
	 viewBox="170.2 804 1417 596.7" enable-background="new 170.2 804 1417 596.7" xml:space="preserve">
<g>
	<path fill="#708CA4" d="M1359.8,1102.3v-1.8c0-171.7-133.5-296.5-317.8-296.5H538.7v95.8H1042c119.1,0,202.5,83.1,202.5,202.5v1.8
		c0,58.3-19.5,108.1-56.1,144.8c-36.6,36.6-87.4,55.8-146.4,55.8H538.7v95.8H1042C1226.3,1400.6,1359.8,1275.3,1359.8,1102.3z"/>
	<g>
		<g>
			<path fill="#FFFFFF" d="M170.5,1007.9h44.8l71.5,79.9l71.5-79.9H403v188.7h-41.3v-123.1l-74.9,80.6h-0.9l-74.9-79.7v122.2h-40.7
				v-188.7H170.5z"/>
		</g>
		<g>
			<path fill="#FFFFFF" d="M450.1,1007.9h41.3v188.7h-41.3V1007.9z"/>
		</g>
		<g>
			<path fill="#FFFFFF" d="M538.7,1007.9h38.2l119.7,116.3v-116.3h41.1v188.7h-35.4l-122.8-120.1v120.1h-41.1v-188.7H538.7z"/>
		</g>
		<g>
			<path fill="#FFFFFF" d="M847.7,1006.7h38.2l81,189.8h-43.2l-17.2-42.3h-79.9l-17.4,42.3h-42.3L847.7,1006.7z M891.3,1117.6
				l-25-61.1l-25,61.1H891.3z"/>
		</g>
		<g>
			<path fill="#FFFFFF" d="M1386.7,1103v-0.7c0-53.6,42.3-97.4,100.6-97.4c58.3,0,99.9,43.2,99.9,97.2v0.7
				c0,53.6-42.3,97.4-100.6,97.4C1428.7,1200,1386.7,1156.5,1386.7,1103z M1544,1103v-0.7c0-32.3-23.8-59.2-57-59.2
				c-33.6,0-56.7,26.3-56.7,58.6v0.7c0,32.3,23.8,59.2,57,59.2C1520.8,1161.8,1544,1135.2,1544,1103z"/>
		</g>
	</g>
	<g>
		<path fill="#FFFFFF" d="M1113.5,1007.9H995.9v188.7h41.3v-60.4h64l40.4,60.4h48.6l-46.1-67.4c24.1-8.8,40.4-27.9,40.4-58.6v-0.7
			c0-17.9-5.7-32.7-16.3-43.2C1156,1014.9,1137.6,1007.9,1113.5,1007.9z M1142.6,1073.1c0,15.9-11.6,26.6-31.6,26.6h-73.3v-54.2
			h72.7c20.4,0,32.7,9.1,32.7,27v0.7H1142.6z"/>
	</g>
</g>
</svg>
