<?xml version="1.0" encoding="iso-8859-1"?>
<!-- Generator: Adobe Illustrator 15.0.0, SVG Export Plug-In . SVG Version: 6.00 Build 0)  -->
<!DOCTYPE svg PUBLIC "-//W3C//DTD SVG 1.1//EN" "http://www.w3.org/Graphics/SVG/1.1/DTD/svg11.dtd">
<svg version="1.1" xmlns="http://www.w3.org/2000/svg" xmlns:xlink="http://www.w3.org/1999/xlink" x="0px" y="0px"
	 width="47.999px" height="48px" viewBox="0 0 47.999 48" style="enable-background:new 0 0 47.999 48;" xml:space="preserve">
<g id="Airport">
	<path style="fill-rule:evenodd;clip-rule:evenodd;fill:#4EB96F;" d="M47.999,42.09c0,3.264-2.646,5.91-5.91,5.91H5.91
		C2.646,48,0,45.354,0,42.09V5.911C0,2.646,2.646,0,5.91,0h36.179c3.265,0,5.91,2.646,5.91,5.911V42.09z"/>
	<g>
		<path style="fill:#FFFFFF;" d="M31.08,39.504l2.316-2.316l-3.373-15.16l3.433-3.432c0,0,4.863-4.865,3.242-6.487
			c-1.623-1.621-6.487,3.243-6.487,3.243l-3.433,3.432L11.62,15.411l-2.316,2.316l12.146,6.385l-2.765,2.765l-4.924,0.291
			l-2.316,2.316l5.792,2.084l2.086,5.793l2.316-2.316l0.291-4.924l2.764-2.766L31.08,39.504z"/>
	</g>
</g>
<g id="Layer_1">
</g>
</svg>
