<?xml version="1.0" encoding="iso-8859-1"?>
<!-- Generator: Adobe Illustrator 15.0.0, SVG Export Plug-In . SVG Version: 6.00 Build 0)  -->
<!DOCTYPE svg PUBLIC "-//W3C//DTD SVG 1.1//EN" "http://www.w3.org/Graphics/SVG/1.1/DTD/svg11.dtd">
<svg version="1.1" xmlns="http://www.w3.org/2000/svg" xmlns:xlink="http://www.w3.org/1999/xlink" x="0px" y="0px" width="48px"
	 height="48px" viewBox="0 0 48 48" style="enable-background:new 0 0 48 48;" xml:space="preserve">
<g id="Annoying_Hipster">
	<path style="fill-rule:evenodd;clip-rule:evenodd;fill:#3B97D2;" d="M48,42.09c0,3.264-2.646,5.91-5.91,5.91H5.911
		C2.646,48,0,45.354,0,42.09V5.911C0,2.646,2.646,0,5.911,0H42.09C45.354,0,48,2.646,48,5.911V42.09z"/>
	<path style="fill:#E8D0B8;" d="M40,24.768c0,0.001,0,0.002,0,0.003c-2-1.607-4.516-4.177-5.9-7.393
		c-0.762-1.768-1.308-3.553-1.515-5.264c-2.125,2.283-7.435,3.899-13.612,3.899c-3.2,0-6.173-0.435-8.576-1.169
		c-0.814,1.58-1.393,3.32-1.653,5.18c-1.243,8.876,4.939,17.083,13.816,18.326c8.53,1.195,16.432-4.472,18.141-12.793
		c-0.322-0.239-0.507-0.497-0.829-0.777C39.867,24.775,40,24.771,40,24.768z"/>
	<path style="fill:#1C272B;" d="M27.061,6.203c-7.018-0.984-13.611,2.679-16.682,8.64c2.404,0.735,5.358,1.169,8.556,1.169
		c6.178,0,11.453-1.617,13.579-3.899l0,0l0,0l0,0c0.207,1.711,0.824,3.497,1.586,5.264c1.385,3.216,3.9,5.786,5.9,7.393
		c0-0.001,0-0.002,0-0.003c0,0.004-0.133,0.008-0.129,0.011c0.322,0.28,0.577,0.538,0.899,0.777c0.068-0.339,0.099-0.68,0.147-1.027
		C42.162,15.651,35.938,7.447,27.061,6.203z"/>
	<path style="fill-rule:evenodd;clip-rule:evenodd;fill:#1C272B;" d="M27.955,32.141c0,0-1.436-1.121-4.558-2.504
		c-3.122-1.38-4.568-0.942-4.568-0.942l0.01,2.097C18.84,30.791,22.113,30.129,27.955,32.141L27.955,32.141z"/>
	<path style="fill-rule:evenodd;clip-rule:evenodd;fill:#1C272B;" d="M8.841,32.244c0,0,1.423-1.138,4.53-2.554
		c3.105-1.415,4.556-0.99,4.556-0.99l0.012,2.097C17.939,30.797,14.66,30.17,8.841,32.244z"/>
	<path style="fill-rule:evenodd;clip-rule:evenodd;fill:#222F35;" d="M25.723,42.119c0.002,0.229-0.182,0.418-0.414,0.419
		l-1.665,0.01c-0.228,0-0.415-0.187-0.417-0.417l-0.007-1.664c-0.002-0.229,0.184-0.416,0.41-0.416l1.665-0.012
		c0.23,0,0.42,0.188,0.42,0.414L25.723,42.119z"/>
	<path style="fill-rule:evenodd;clip-rule:evenodd;fill:#222F35;" d="M28.979,38.988c-0.019,0-2.968,1.174-2.968,1.174
		c-0.177,0.069-0.316,0.281-0.315,0.469L25.704,42c0,0.189,0.138,0.412,0.308,0.494c0,0,2.924,1.447,2.968,1.447
		c0.351,0,0.633-1.107,0.633-2.477C29.612,40.098,29.33,38.988,28.979,38.988z"/>
	<path style="fill-rule:evenodd;clip-rule:evenodd;fill:#222F35;" d="M19.978,38.988c0.019,0,2.968,1.174,2.968,1.174
		c0.177,0.069,0.316,0.281,0.315,0.469L23.253,42c0,0.189-0.138,0.412-0.308,0.494c0,0-2.923,1.447-2.967,1.447
		c-0.35,0-0.633-1.107-0.633-2.477C19.345,40.098,19.627,38.988,19.978,38.988z"/>
	<ellipse style="fill-rule:evenodd;clip-rule:evenodd;fill:#1C272B;" cx="26.979" cy="41.348" rx="1.242" ry="0.266"/>
	<ellipse style="fill-rule:evenodd;clip-rule:evenodd;fill:#1C272B;" cx="21.979" cy="41.348" rx="1.242" ry="0.266"/>
</g>
<g id="Layer_1">
</g>
</svg>
