<?xml version="1.0" encoding="iso-8859-1"?>
<!-- Generator: Adobe Illustrator 15.0.0, SVG Export Plug-In . SVG Version: 6.00 Build 0)  -->
<!DOCTYPE svg PUBLIC "-//W3C//DTD SVG 1.1//EN" "http://www.w3.org/Graphics/SVG/1.1/DTD/svg11.dtd">
<svg version="1.1" xmlns="http://www.w3.org/2000/svg" xmlns:xlink="http://www.w3.org/1999/xlink" x="0px" y="0px"
	 width="47.999px" height="48px" viewBox="0 0 47.999 48" style="enable-background:new 0 0 47.999 48;" xml:space="preserve">
<g id="Artwork">
	<path style="fill-rule:evenodd;clip-rule:evenodd;fill:#4EB96F;" d="M47.999,42.089c0,3.265-2.646,5.911-5.91,5.911H5.91
		C2.646,48,0,45.354,0,42.089V5.91C0,2.646,2.646,0,5.91,0h36.179c3.265,0,5.91,2.646,5.91,5.91V42.089z"/>
	<path style="fill:#B6DAA1;" d="M19.746,10.518l2.808-2.332c-0.46-0.343-0.802-0.833-0.961-1.399l-4.703,3.731H19.746z"/>
	<path style="fill:#B6DAA1;" d="M31.347,10.518l-4.704-3.731c-0.16,0.566-0.499,1.057-0.961,1.399l2.809,2.332H31.347z"/>
	<path style="fill:#3C404A;" d="M26.704,5.721c0.198,1.427-0.797,2.744-2.225,2.944c-1.431,0.199-2.746-0.798-2.948-2.227
		c-0.196-1.426,0.8-2.745,2.226-2.943C25.187,3.297,26.506,4.292,26.704,5.721z"/>
	<path style="fill:#FFFFFF;" d="M39.477,10.518H8.758c-0.027,0-0.053,0.007-0.079,0.008l-0.003-0.004
		c-0.029,0.002-0.057,0.01-0.085,0.013c-0.058,0.007-0.115,0.014-0.171,0.026c-0.038,0.009-0.074,0.022-0.11,0.035
		c-0.053,0.017-0.104,0.032-0.154,0.055c-0.04,0.018-0.076,0.041-0.115,0.062c-0.041,0.023-0.084,0.045-0.123,0.073
		c-0.044,0.03-0.083,0.066-0.124,0.102c-0.028,0.025-0.058,0.048-0.084,0.074C7.661,11.01,7.62,11.063,7.58,11.118
		c-0.015,0.02-0.031,0.036-0.045,0.057c-0.046,0.068-0.084,0.142-0.118,0.218c-0.004,0.01-0.011,0.018-0.015,0.027
		c-0.073,0.175-0.115,0.365-0.115,0.566v0.004v25.037v0.004c0,0.812,0.66,1.477,1.471,1.477h30.719c0.81,0,1.473-0.664,1.473-1.477
		V11.99C40.949,11.18,40.286,10.518,39.477,10.518z"/>
	<path style="fill:#4EB96F;" d="M25.664,25.81c-2.632,0.851-5.074,1.856-7.288,2.99c0.011,0.005,0.019,0.01,0.028,0.015
		c-2.344,1.206-4.423,2.549-6.202,3.991c-0.178,0.144-0.354,0.29-0.526,0.435c-0.02,0.018-0.04,0.033-0.06,0.051
		c-0.403,0.341-0.775,0.689-1.143,1.04v1.084h27.289V23.233c-1.724,0.195-3.394,0.455-5.025,0.767
		C30.263,24.477,27.897,25.087,25.664,25.81z"/>
	<path style="fill:#249351;" d="M11.616,33.291c0.02-0.018,0.04-0.033,0.06-0.051c0.173-0.145,0.349-0.291,0.526-0.435
		c1.779-1.442,3.858-2.785,6.202-3.991c-0.01-0.005-0.018-0.01-0.028-0.015c-0.395-0.2-0.701-0.396-1.119-0.587
		c-2.253-1.054-4.531-1.964-6.783-2.729v8.847C10.841,33.98,11.213,33.632,11.616,33.291z"/>
	<g>
		<path style="fill:#4CC0E5;" d="M10.474,13.611v11.873v0.03c2.271,0.761,4.497,1.664,6.748,2.72
			c0.416,0.192,0.698,0.389,1.101,0.59c2.226-1.144,4.689-2.157,7.342-3.015c2.232-0.723,4.595-1.333,7.073-1.81
			c1.631-0.312,3.309-0.572,5.025-0.769v-9.62H10.474z"/>
	</g>
	<path style="fill:#F5E886;" d="M33.694,18.645c0.198,1.428-0.797,2.745-2.225,2.945c-1.431,0.199-2.746-0.799-2.948-2.227
		c-0.196-1.426,0.8-2.746,2.226-2.943C32.177,16.222,33.496,17.217,33.694,18.645z"/>
	<path style="fill:none;" d="M18.376,28.8c2.214-1.134,4.656-2.14,7.288-2.99c2.233-0.723,4.599-1.333,7.073-1.81
		c1.632-0.312,3.302-0.571,5.025-0.767v-9.622H10.474v11.873c2.252,0.765,4.53,1.675,6.783,2.729
		C17.675,28.404,17.981,28.6,18.376,28.8z"/>
</g>
<g id="Layer_1">
</g>
</svg>
