<?xml version="1.0" encoding="iso-8859-1"?>
<!-- Generator: Adobe Illustrator 15.0.0, SVG Export Plug-In . SVG Version: 6.00 Build 0)  -->
<!DOCTYPE svg PUBLIC "-//W3C//DTD SVG 1.1//EN" "http://www.w3.org/Graphics/SVG/1.1/DTD/svg11.dtd">
<svg version="1.1" xmlns="http://www.w3.org/2000/svg" xmlns:xlink="http://www.w3.org/1999/xlink" x="0px" y="0px" width="48px"
	 height="48px" viewBox="0 0 48 48" style="enable-background:new 0 0 48 48;" xml:space="preserve">
<g id="Backpack_2">
	<path style="fill-rule:evenodd;clip-rule:evenodd;fill:#945BA4;" d="M48,42.09c0,3.264-2.646,5.91-5.91,5.91H5.911
		C2.646,48,0,45.354,0,42.09V5.911C0,2.646,2.646,0,5.911,0H42.09C45.354,0,48,2.646,48,5.911V42.09z"/>
	<path style="fill:#222F35;" d="M34.053,11.25H14.381c-1.143,0-2.071,1.807-2.071,2.949v24.813c0,1.143,0.928,2.07,2.071,2.07
		h19.671c1.144,0,2.071-0.928,2.071-2.07V14.199C36.124,13.056,35.196,11.25,34.053,11.25"/>
	<path style="fill:#1C272B;" d="M36.124,9.179H12.311c-1.035,0-1.035,1.035-1.035,1.035v1.035v8.162l12.901,4.07l12.982-4.07V11.25
		v-1.035C37.159,10.214,37.159,9.179,36.124,9.179z"/>
	<path style="fill:#FFC91B;" d="M27.323,5.038h-6.212c-1.143,0-2.071,0.928-2.071,2.071v2.071h2.071V8.144
		c0-0.572,0.463-1.035,1.035-1.035h4.142c0.571,0,1.035,0.463,1.035,1.035v1.036h2.071V7.108
		C29.395,5.966,28.467,5.038,27.323,5.038"/>
	<path style="fill:#FFC91B;" d="M23.182,24.121v8.318v1.036c0,0.572,0.464,1.035,1.036,1.035s1.035-0.463,1.035-1.035v-1.036v-8.318
		H23.182z"/>
	<path style="fill:#FFFFFF;" d="M24.217,25.467c-1.313,0-2.381-1.069-2.381-2.381V22.05c0-1.313,1.068-2.381,2.381-2.381
		c1.312,0,2.38,1.068,2.38,2.381v1.036C26.598,24.398,25.529,25.467,24.217,25.467z"/>
	<path style="fill:#1C272B;" d="M24.217,21.015c-0.571,0-1.036,0.463-1.036,1.035v1.036c0,0.572,0.464,1.035,1.036,1.035
		s1.035-0.463,1.035-1.035V22.05C25.252,21.478,24.789,21.015,24.217,21.015"/>
</g>
<g id="Layer_1">
</g>
</svg>
