<?xml version="1.0" encoding="iso-8859-1"?>
<!-- Generator: Adobe Illustrator 15.0.0, SVG Export Plug-In . SVG Version: 6.00 Build 0)  -->
<!DOCTYPE svg PUBLIC "-//W3C//DTD SVG 1.1//EN" "http://www.w3.org/Graphics/SVG/1.1/DTD/svg11.dtd">
<svg version="1.1" xmlns="http://www.w3.org/2000/svg" xmlns:xlink="http://www.w3.org/1999/xlink" x="0px" y="0px" width="48px"
	 height="48px" viewBox="0 0 48 48" style="enable-background:new 0 0 48 48;" xml:space="preserve">
<g id="Backpack">
	<path style="fill-rule:evenodd;clip-rule:evenodd;fill:#4CC0E5;" d="M48,42.09c0,3.264-2.646,5.91-5.91,5.91H5.911
		C2.646,48,0,45.354,0,42.09V5.911C0,2.646,2.646,0,5.911,0H42.09C45.354,0,48,2.646,48,5.911V42.09z"/>
	<path style="fill:#E64C3B;" d="M34.175,11.25H14.503c-1.143,0-2.071,1.807-2.071,2.949v24.813c0,1.143,0.928,2.07,2.071,2.07
		h19.672c1.144,0,2.071-0.928,2.071-2.07V14.199C36.246,13.056,35.318,11.25,34.175,11.25"/>
	<path style="fill:#B53937;" d="M36.246,9.179H12.432c-1.035,0-1.035,1.035-1.035,1.035v1.035v9.162v1.035c0,0,0,1.035,1.035,1.035
		h23.814c1.035,0,1.035-1.035,1.035-1.035v-1.035V11.25v-1.035C37.281,10.214,37.281,9.179,36.246,9.179z"/>
	<path style="fill:#E64C3B;" d="M27.445,5.038h-6.212c-1.143,0-2.071,0.928-2.071,2.071v2.071h2.071V8.144
		c0-0.572,0.463-1.035,1.035-1.035h4.142c0.57,0,1.035,0.463,1.035,1.035v1.036h2.07V7.108C29.516,5.966,28.588,5.038,27.445,5.038"
		/>
	<path style="fill:#B53937;" d="M17.091,24.121v8.318v1.036c0,0.572,0.464,1.035,1.036,1.035s1.035-0.463,1.035-1.035v-1.036v-8.318
		H17.091z"/>
	<path style="fill:#FFFFFF;" d="M18.127,25.467c-1.313,0-2.381-1.069-2.381-2.381V22.05c0-1.313,1.068-2.381,2.381-2.381
		c1.312,0,2.381,1.068,2.381,2.381v1.036C20.508,24.398,19.439,25.467,18.127,25.467z"/>
	<path style="fill:#B53937;" d="M18.127,21.015c-0.571,0-1.036,0.463-1.036,1.035v1.036c0,0.572,0.464,1.035,1.036,1.035
		s1.035-0.463,1.035-1.035V22.05C19.162,21.478,18.698,21.015,18.127,21.015"/>
	<path style="fill:#B53937;" d="M29.516,24.121v8.318v1.036c0,0.572,0.464,1.035,1.035,1.035s1.035-0.463,1.035-1.035v-1.036v-8.318
		H29.516z"/>
	<path style="fill:#FFFFFF;" d="M30.551,25.467c-1.312,0-2.381-1.069-2.381-2.381V22.05c0-1.313,1.068-2.381,2.381-2.381
		s2.381,1.068,2.381,2.381v1.036C32.932,24.398,31.863,25.467,30.551,25.467z"/>
	<path style="fill:#B53937;" d="M30.551,21.015c-0.571,0-1.035,0.463-1.035,1.035v1.036c0,0.572,0.464,1.035,1.035,1.035
		s1.035-0.463,1.035-1.035V22.05C31.586,21.478,31.122,21.015,30.551,21.015"/>
</g>
<g id="Layer_1">
</g>
</svg>
