<?xml version="1.0" encoding="iso-8859-1"?>
<!-- Generator: Adobe Illustrator 15.0.0, SVG Export Plug-In . SVG Version: 6.00 Build 0)  -->
<!DOCTYPE svg PUBLIC "-//W3C//DTD SVG 1.1//EN" "http://www.w3.org/Graphics/SVG/1.1/DTD/svg11.dtd">
<svg version="1.1" xmlns="http://www.w3.org/2000/svg" xmlns:xlink="http://www.w3.org/1999/xlink" x="0px" y="0px" width="48px"
	 height="48px" viewBox="0 0 48 48" style="enable-background:new 0 0 48 48;" xml:space="preserve">
<g id="Backpack_3">
	<path style="fill-rule:evenodd;clip-rule:evenodd;fill:#CCCCCC;" d="M48,42.09c0,3.264-2.646,5.91-5.91,5.91H5.911
		C2.647,48,0,45.354,0,42.09V5.911C0,2.646,2.647,0,5.911,0H42.09C45.354,0,48,2.646,48,5.911V42.09z"/>
	<path style="fill:#E64C3B;" d="M26.445,4.038h-6.212c-1.144,0-2.071,0.928-2.071,2.071v4.071h2.071V7.144
		c0-0.572,0.464-1.035,1.035-1.035h4.142c0.571,0,1.035,0.463,1.035,1.035v3.036h2.07V6.108C28.516,4.966,27.588,4.038,26.445,4.038
		"/>
	<path style="fill:#222F35;" d="M35.401,32.262v-1.045V31.21v-0.157v-4.271c0-0.004,0-0.006,0-0.006s0,0.002,0,0.006v4.271
		c0-3.408,0.001-10.381,0-12.935c0-5.438-5.344-10.079-11.936-10.079c-6.595,0-11.939,4.642-11.939,10.078c0,0.441,0,1.603,0,2.294
		c0,0.842,0,1.829,0,2.885c0,3.501,0,1.698,0,3.485v5.48v1.382h23.875V32.262z"/>
	<path style="fill:#E64C3B;" d="M13.604,41.646h19.723c1.146,0,2.075-0.931,2.075-2.075v-5.927H11.526v5.927
		C11.526,40.715,12.457,41.646,13.604,41.646z"/>
	<path style="fill:#32353C;" d="M32.986,38.744c0,0.586-0.475,1.062-1.061,1.062H15.003c-0.586,0-1.062-0.476-1.062-1.062V25.949
		c0-0.586,0.476-1.062,1.062-1.062h16.923c0.586,0,1.061,0.476,1.061,1.062V38.744z"/>
	<rect x="26.599" y="34.633" style="fill:#FFFFFF;" width="3.229" height="2.301"/>
	<g>
		<path style="fill:#222F35;" d="M31.926,30.076H15.003c-0.586,0-1.062-0.475-1.062-1.061v2.594h19.045v-2.594
			C32.986,29.602,32.512,30.076,31.926,30.076z"/>
	</g>
	
		<rect x="21.131" y="16.629" transform="matrix(0.7073 -0.7069 0.7069 0.7073 -6.5366 22.1391)" style="fill:#E64C3B;" width="4.667" height="4.666"/>
	<rect x="22.159" y="17.955" style="fill:#222F35;" width="0.841" height="2.079"/>
	<rect x="23.929" y="17.955" style="fill:#222F35;" width="0.84" height="2.079"/>
	<path style="fill:#3C404A;" d="M31.926,24.888H15.003c-0.586,0-1.062,0.476-1.062,1.062v3.066c0,0.586,0.476,1.061,1.062,1.061
		h1.61l-0.491,0.93h0.002c-0.104,0.18-0.164,0.387-0.164,0.609c0,0.673,0.545,1.219,1.218,1.219c0.674,0,1.219-0.546,1.219-1.219
		c0-0.223-0.06-0.43-0.163-0.609h0.001l-0.491-0.93h14.183c0.586,0,1.061-0.475,1.061-1.061v-3.066
		C32.986,25.363,32.512,24.888,31.926,24.888z M17.178,32.227c-0.339,0-0.614-0.275-0.614-0.615s0.275-0.615,0.614-0.615
		c0.34,0,0.615,0.275,0.615,0.615S17.518,32.227,17.178,32.227z"/>
</g>
<g id="Layer_1">
</g>
</svg>
