<?xml version="1.0" encoding="iso-8859-1"?>
<!-- Generator: Adobe Illustrator 15.0.0, SVG Export Plug-In . SVG Version: 6.00 Build 0)  -->
<!DOCTYPE svg PUBLIC "-//W3C//DTD SVG 1.1//EN" "http://www.w3.org/Graphics/SVG/1.1/DTD/svg11.dtd">
<svg version="1.1" xmlns="http://www.w3.org/2000/svg" xmlns:xlink="http://www.w3.org/1999/xlink" x="0px" y="0px" width="48px"
	 height="48px" viewBox="0 0 48 48" style="enable-background:new 0 0 48 48;" xml:space="preserve">
<g id="Bed">
	<path style="fill:#F19B1F;" d="M42.089,0H24H5.91C2.646,0,0,2.646,0,5.91V24v18.089C0,45.354,2.646,48,5.91,48H24h18.089
		C45.354,48,48,45.354,48,42.089V24V5.91C48,2.646,45.354,0,42.089,0z"/>
	<g>
		<path d="M7.444,26.765v7.116c0,1.213,0.995,2.205,2.208,2.205c1.213,0,2.207-0.992,2.207-2.205v-1.265h24.282v1.265
			c0,1.213,0.992,2.205,2.207,2.205c1.213,0,2.207-0.992,2.207-2.205v-7.116H7.444z"/>
		<path d="M34.278,20.685h2.616l-0.007-4.25v-2.615v-1.212c0-0.931-0.765-1.694-1.698-1.694s-1.697,0.764-1.697,1.694v0.975h-8.064
			H24.2h-9.7v-0.975c0-0.931-0.764-1.694-1.698-1.694c-0.933,0-1.697,0.764-1.697,1.694v1.212v2.615l0.007,4.25h2.617
			c0-0.004,0-0.007,0-0.009v-2.4c0-0.718,0.58-1.296,1.296-1.296h6.275c0.716,0,1.296,0.578,1.296,1.296v2.4
			c0,0.002,0,0.007,0,0.009h1.613h1.204h0.024l-0.003-2.515c0.055-0.666,0.596-1.19,1.273-1.19h6.275
			c0.716,0,1.296,0.578,1.296,1.296v2.4C34.278,20.678,34.278,20.681,34.278,20.685z"/>
	</g>
	<path style="fill:#CCCCCC;" d="M38.586,20.685h-6.025H9.414c-1.087,0-1.969,0.882-1.969,1.969v4.111h33.11v-4.111
		C40.555,21.566,39.674,20.685,38.586,20.685z"/>
	<path style="fill:#FFFFFF;" d="M22.596,18.275c0-0.718-0.58-1.296-1.296-1.296h-6.275c-0.716,0-1.296,0.578-1.296,1.296v2.4
		c0,0.002,0,0.005,0,0.009h8.867c0-0.002,0-0.007,0-0.009V18.275z"/>
	<path style="fill:#FFFFFF;" d="M34.278,18.275c0-0.718-0.58-1.296-1.296-1.296h-6.275c-0.678,0-1.219,0.524-1.273,1.19l0.003,2.515
		h8.842c0-0.004,0-0.007,0-0.009V18.275z"/>
</g>
<g id="Layer_1">
</g>
</svg>
