<?xml version="1.0" encoding="iso-8859-1"?>
<!-- Generator: Adobe Illustrator 15.0.0, SVG Export Plug-In . SVG Version: 6.00 Build 0)  -->
<!DOCTYPE svg PUBLIC "-//W3C//DTD SVG 1.1//EN" "http://www.w3.org/Graphics/SVG/1.1/DTD/svg11.dtd">
<svg version="1.1" xmlns="http://www.w3.org/2000/svg" xmlns:xlink="http://www.w3.org/1999/xlink" x="0px" y="0px" width="48px"
	 height="48px" viewBox="0 0 48 48" style="enable-background:new 0 0 48 48;" xml:space="preserve">
<g id="_x23_Blind">
	<path style="fill-rule:evenodd;clip-rule:evenodd;fill:#3B97D2;" d="M48,42.09c0,3.264-2.646,5.91-5.91,5.91H5.911
		C2.646,48,0,45.354,0,42.09V5.911C0,2.646,2.646,0,5.911,0H42.09C45.354,0,48,2.646,48,5.911V42.09z"/>
	<path style="fill:#172023;" d="M28.938,10.857l-1.326,2.553c-0.914-0.188-1.858-0.335-2.866-0.383
		c-0.295-0.031-0.596-0.05-0.899-0.05c-0.001,0-0.004,0-0.007,0l0,0c-0.308,0-0.609,0.02-0.907,0.05
		C11.543,13.569,6.12,23.944,6.12,23.944s3.571,6.82,10.986,9.695l-1.063,2.047l3.273,1.701l12.894-24.83L28.938,10.857z"/>
	<path style="fill:#FFFFFF;" d="M18.537,30.885c-4.537-1.607-7.458-4.978-8.848-6.942c1.124-1.592,3.266-4.109,6.457-5.864
		c-0.422,0.999-0.654,2.096-0.654,3.247c0,3.117,1.708,5.827,4.238,7.263L18.537,30.885z"/>
	<circle style="fill:#FFFFFF;" cx="20.945" cy="20.762" r="2.357"/>
	<path style="fill:#FFFFFF;" d="M37.986,23.947c-0.852-1.198-2.307-2.922-4.338-4.453c-0.478-0.36-0.979-0.713-1.521-1.042
		L25.23,31.729c1.455-0.123,2.783-0.443,4-0.883C33.715,29.227,36.609,25.896,37.986,23.947z"/>
	<path style="fill:#172023;" d="M33.528,15.731l-0.414,0.798l-0.995,1.917c0.002,0.001,0.006,0.003,0.008,0.005
		c0.543,0.33,1.044,0.682,1.521,1.042c2.031,1.531,3.486,3.255,4.338,4.453c-1.377,1.949-4.271,5.28-8.756,6.899
		c-1.217,0.439-2.545,0.76-4,0.883c-0.003,0.001-0.006,0.002-0.01,0.002l-1.179,2.271l-0.463,0.893
		c0.088,0.002,0.17,0.013,0.26,0.013c12.022,0,17.721-10.963,17.721-10.963S38.932,18.968,33.528,15.731z"/>
	<path style="fill:#192226;" d="M32.186,21.325c0-0.818-0.121-1.605-0.34-2.352l-5.325,10.253
		C29.814,28.107,32.186,24.997,32.186,21.325z"/>
</g>
<g id="Layer_1">
</g>
</svg>
