<?xml version="1.0" encoding="iso-8859-1"?>
<!-- Generator: Adobe Illustrator 15.0.0, SVG Export Plug-In . SVG Version: 6.00 Build 0)  -->
<!DOCTYPE svg PUBLIC "-//W3C//DTD SVG 1.1//EN" "http://www.w3.org/Graphics/SVG/1.1/DTD/svg11.dtd">
<svg version="1.1" xmlns="http://www.w3.org/2000/svg" xmlns:xlink="http://www.w3.org/1999/xlink" x="0px" y="0px" width="48px"
	 height="48px" viewBox="0 0 48 48" style="enable-background:new 0 0 48 48;" xml:space="preserve">
<g id="Broadcast">
	<path style="fill:#3B97D2;" d="M48,28.148V5.91C48,2.646,45.354,0,42.09,0H5.911C2.646,0,0,2.646,0,5.91v22.525
		c5.364-2.026,14.288-3.354,24.398-3.354C34.022,25.081,42.573,26.285,48,28.148z"/>
	<path style="fill:#297EB7;" d="M5.911,48H42.09c3.264,0,5.91-2.646,5.91-5.911v-13.94c-5.427-1.863-13.978-3.067-23.602-3.067
		c-10.11,0-19.034,1.328-24.398,3.354v13.653C0,45.354,2.646,48,5.911,48z"/>
	<g>
		<g>
			<polygon style="fill:#D0D2D3;" points="19.781,31.021 22.858,29.466 22.858,28.417 22.433,28.19 19.207,29.812 18.887,30.57 			
				"/>
			<polygon style="fill:#D0D2D3;" points="16.899,35.418 16.666,35.981 17.721,36.507 22.743,33.994 21.242,33.243 			"/>
			<polygon style="fill:#D0D2D3;" points="21.128,26.034 22.858,25.153 22.858,23.653 21.448,24.373 20.823,25.88 			"/>
			<polygon style="fill:#D0D2D3;" points="24.815,25.153 26.549,26.034 26.844,25.88 26.237,24.373 24.815,23.653 			"/>
			<polygon style="fill:#D0D2D3;" points="28.776,30.57 28.462,29.812 25.244,28.19 24.815,28.417 24.815,29.466 27.896,31.021 			
				"/>
			<polygon style="fill:#D0D2D3;" points="30.785,35.418 26.44,33.243 24.94,33.994 29.962,36.507 31.017,35.981 			"/>
		</g>
		<path style="fill:#4CC0E5;" d="M23.856,21.333c-4.775,0-8.66-3.886-8.66-8.663c0-4.775,3.885-8.662,8.66-8.662
			c4.777,0,8.663,3.887,8.663,8.662C32.52,17.447,28.634,21.333,23.856,21.333"/>
		<path style="fill:#3B97D2;" d="M23.856,6.965c-3.146,0-5.705,2.558-5.705,5.705c0,3.146,2.56,5.708,5.705,5.708
			c3.147,0,5.708-2.562,5.708-5.708C29.564,9.522,27.004,6.965,23.856,6.965"/>
		<path style="fill:#FFFFFF;" d="M34.109,38.592l-0.911-2.2l-0.515-1.245l-1.728-4.168l-0.515-1.241l-1.427-3.448l-0.493-1.243
			l-3.707-9.001v-0.852c0.978-0.384,1.783-1.392,1.783-2.577c0-1.512-1.234-2.734-2.744-2.734c-1.512,0-2.769,1.223-2.769,2.734
			c0,1.186,0.795,2.193,1.773,2.577v0.852l-3.701,9.001l-0.501,1.243l-1.421,3.448l-0.513,1.241l-1.723,4.168l-0.516,1.245
			l-0.91,2.2c-0.197,0.473,0.029,1.016,0.502,1.212c0.474,0.198,1.018-0.027,1.215-0.501l0.834-2.078l6.733,3.388v2.751
			c0,0.513,0.466,0.929,0.979,0.929c0.512,0,0.978-0.416,0.978-0.929v-2.751l6.74-3.388l0.85,2.078
			c0.195,0.474,0.733,0.699,1.208,0.501C34.086,39.607,34.306,39.064,34.109,38.592 M22.858,39.111l-6.22-3.13l1.712-4.169
			l4.507,2.265V39.111z M22.858,32.575L18.88,30.57l1.415-3.446l2.563,1.293V32.575z M22.858,26.914l-2.061-1.034l2.061-4.979
			V26.914z M28.799,30.57l-3.984,2.005v-4.158l2.568-1.293L28.799,30.57z M24.815,20.901l2.062,4.979l-2.062,1.034V20.901z
			 M24.815,39.111v-5.034l4.498-2.265l1.737,4.169L24.815,39.111z"/>
	</g>
</g>
<g id="Layer_1">
</g>
</svg>
