<?xml version="1.0" encoding="iso-8859-1"?>
<!-- Generator: Adobe Illustrator 15.0.0, SVG Export Plug-In . SVG Version: 6.00 Build 0)  -->
<!DOCTYPE svg PUBLIC "-//W3C//DTD SVG 1.1//EN" "http://www.w3.org/Graphics/SVG/1.1/DTD/svg11.dtd">
<svg version="1.1" xmlns="http://www.w3.org/2000/svg" xmlns:xlink="http://www.w3.org/1999/xlink" x="0px" y="0px" width="48px"
	 height="48px" viewBox="0 0 48 48" style="enable-background:new 0 0 48 48;" xml:space="preserve">
<g id="Calendar">
	<path style="fill-rule:evenodd;clip-rule:evenodd;fill:#945BA4;" d="M48,42.09c0,3.264-2.646,5.91-5.911,5.91H5.911
		C2.646,48,0,45.354,0,42.09V5.911C0,2.646,2.646,0,5.911,0h36.178C45.354,0,48,2.646,48,5.911V42.09z"/>
	<g>
		<path style="fill:#FFFFFF;" d="M38.802,10.223H9.749c-0.707,0-1.283,0.577-1.283,1.284v25.667c0,0.705,0.576,1.283,1.283,1.283
			h29.053c0.705,0,1.283-0.578,1.283-1.283V11.507C40.085,10.8,39.507,10.223,38.802,10.223z"/>
	</g>
	<path style="fill:#EFC319;" d="M40.085,17.589v-6.082c0-0.707-0.578-1.284-1.283-1.284H9.749c-0.707,0-1.283,0.577-1.283,1.284
		v6.082H40.085z"/>
	<g>
		<path style="fill:#3B97D2;" d="M18.586,23.771c0.131-0.429,0.334-0.8,0.609-1.113c0.275-0.313,0.618-0.558,1.029-0.735
			c0.41-0.177,0.877-0.266,1.399-0.266c0.43,0,0.833,0.063,1.211,0.189c0.379,0.126,0.707,0.308,0.987,0.546
			c0.28,0.238,0.502,0.534,0.665,0.889c0.163,0.354,0.245,0.765,0.245,1.232c0,0.438-0.067,0.825-0.203,1.161
			c-0.136,0.337-0.314,0.638-0.539,0.904c-0.224,0.266-0.48,0.506-0.77,0.721c-0.29,0.215-0.588,0.42-0.896,0.615
			c-0.308,0.188-0.616,0.371-0.924,0.553c-0.308,0.183-0.591,0.377-0.847,0.582c-0.257,0.205-0.477,0.427-0.658,0.664
			c-0.182,0.238-0.301,0.512-0.357,0.82h5.097v1.049h-6.482c0.047-0.588,0.151-1.089,0.315-1.504
			c0.163-0.416,0.371-0.777,0.623-1.086c0.252-0.308,0.536-0.578,0.854-0.812s0.648-0.452,0.994-0.658
			c0.42-0.261,0.788-0.501,1.105-0.721s0.581-0.441,0.791-0.665c0.21-0.225,0.369-0.467,0.477-0.729
			c0.107-0.261,0.161-0.564,0.161-0.91c0-0.271-0.052-0.516-0.154-0.735s-0.24-0.408-0.413-0.567
			c-0.173-0.158-0.376-0.28-0.608-0.364c-0.233-0.084-0.481-0.126-0.742-0.126c-0.346,0-0.643,0.072-0.89,0.217
			c-0.247,0.145-0.45,0.334-0.608,0.567c-0.159,0.233-0.273,0.497-0.343,0.791c-0.07,0.294-0.101,0.59-0.092,0.888h-1.189
			C18.404,24.667,18.456,24.2,18.586,23.771z"/>
		<path style="fill:#3B97D2;" d="M28.872,31.582v-7.111h-2.576v-0.952c0.336,0,0.663-0.025,0.98-0.077
			c0.317-0.051,0.604-0.147,0.86-0.287c0.257-0.14,0.474-0.331,0.651-0.574c0.177-0.243,0.299-0.551,0.364-0.924h0.91v9.925H28.872z
			"/>
	</g>
	<circle style="fill:#FFFFFF;" cx="12.775" cy="14.27" r="1.438"/>
	<circle style="fill:#FFFFFF;" cx="35.775" cy="14.27" r="1.438"/>
</g>
<g id="Layer_1">
</g>
</svg>
