<?xml version="1.0" encoding="iso-8859-1"?>
<!-- Generator: Adobe Illustrator 15.0.0, SVG Export Plug-In . SVG Version: 6.00 Build 0)  -->
<!DOCTYPE svg PUBLIC "-//W3C//DTD SVG 1.1//EN" "http://www.w3.org/Graphics/SVG/1.1/DTD/svg11.dtd">
<svg version="1.1" xmlns="http://www.w3.org/2000/svg" xmlns:xlink="http://www.w3.org/1999/xlink" x="0px" y="0px" width="48px"
	 height="48px" viewBox="0 0 48 48" style="enable-background:new 0 0 48 48;" xml:space="preserve">
<g id="Camping">
	<path style="fill-rule:evenodd;clip-rule:evenodd;fill:#4EB96F;" d="M48,42.09c0,3.264-2.646,5.91-5.91,5.91H5.911
		C2.646,48,0,45.354,0,42.09V5.911C0,2.646,2.646,0,5.911,0H42.09C45.354,0,48,2.646,48,5.911V42.09z"/>
	<path style="fill:#1C272B;" d="M36.793,36.1l-2.855-1.078l-16.542-6.244l-2.855-1.08c-1.298-0.489-2.748,0.166-3.237,1.464
		c-0.49,1.298,0.165,2.747,1.462,3.237l3.83,1.445l14.595,5.51l3.829,1.446c1.298,0.489,2.747-0.165,3.237-1.463
		S38.091,36.59,36.793,36.1z"/>
	<path style="fill:#1C272B;" d="M12.766,36.1l2.856-1.078l16.542-6.244l2.855-1.08c1.298-0.489,2.747,0.166,3.237,1.464
		s-0.165,2.747-1.463,3.237l-3.829,1.445l-14.594,5.51L14.54,40.8c-1.298,0.489-2.747-0.165-3.237-1.463S11.468,36.59,12.766,36.1z"
		/>
	<path style="fill:#E64C3B;" d="M34.31,25.996c0,4.834-4.267,8.755-9.532,8.755c-5.265,0-9.532-3.921-9.532-8.755
		c0-4.835,9.532-18.811,9.532-18.811S34.31,21.161,34.31,25.996z"/>
	<path style="fill:#F19B1F;" d="M30.436,27.77c0,3.125-2.533,5.658-5.659,5.658c-3.125,0-5.657-2.533-5.657-5.658
		c0-3.125,5.657-9.879,5.657-9.879S30.436,24.645,30.436,27.77z"/>
	<path style="fill:#F5E886;" d="M26.678,29.846c0,1.049-0.85,1.9-1.9,1.9c-1.05,0-1.901-0.852-1.901-1.9
		c0-1.051,1.901-4.302,1.901-4.302S26.678,28.795,26.678,29.846z"/>
</g>
<g id="Layer_1">
</g>
</svg>
