<?xml version="1.0" encoding="iso-8859-1"?>
<!-- Generator: Adobe Illustrator 15.0.0, SVG Export Plug-In . SVG Version: 6.00 Build 0)  -->
<!DOCTYPE svg PUBLIC "-//W3C//DTD SVG 1.1//EN" "http://www.w3.org/Graphics/SVG/1.1/DTD/svg11.dtd">
<svg version="1.1" xmlns="http://www.w3.org/2000/svg" xmlns:xlink="http://www.w3.org/1999/xlink" x="0px" y="0px"
	 width="47.999px" height="48px" viewBox="0 0 47.999 48" style="enable-background:new 0 0 47.999 48;" xml:space="preserve">
<g id="Cloud_Download">
	<path style="fill-rule:evenodd;clip-rule:evenodd;fill:#3B97D2;" d="M47.999,42.09c0,3.264-2.646,5.91-5.91,5.91H5.91
		C2.646,48,0,45.354,0,42.09V5.911C0,2.646,2.646,0,5.91,0h36.179c3.265,0,5.91,2.646,5.91,5.911V42.09z"/>
	<path style="fill:#F9F9F9;" d="M37.474,26.967c-0.017,0-0.032,0.002-0.048,0.002c0.438-1.27,0.68-2.63,0.68-4.048
		c0-6.845-5.548-12.393-12.393-12.393c-5.896,0-10.825,4.118-12.08,9.632c-0.147-0.009-0.29-0.022-0.438-0.022
		c-4.192,0-7.588,3.389-7.588,7.579s3.396,7.58,7.588,7.58c1.232,0,8.682,0,15.031,0c4.525,0,8.492,0,9.248,0
		c1.169,0,2.222-0.481,2.979-1.254c0.736-0.75,1.193-1.775,1.193-2.912C41.646,28.826,39.778,26.967,37.474,26.967z"/>
	<path style="fill:#4EB96F;" d="M31.146,23.953c-0.025,0.049-0.043,0.1-0.076,0.145l-4.826,6.346c-0.225,0.312-0.597,0.5-1.004,0.5
		c-0.403,0-0.779-0.188-0.999-0.5l-4.831-6.346c-0.246-0.344-0.269-0.789-0.06-1.155c0.124-0.214,0.32-0.373,0.547-0.474
		c0.16-0.072,0.334-0.119,0.519-0.119h2.457v-2.857v-2.113c0-0.292,0.16-0.535,0.389-0.682c0.128-0.083,0.273-0.145,0.438-0.145
		h3.083c0.455,0,0.825,0.37,0.825,0.827v4.97h2.459c0.448,0,0.854,0.229,1.061,0.593C31.313,23.261,31.311,23.635,31.146,23.953z"/>
</g>
<g id="Layer_1">
</g>
</svg>
