<?xml version="1.0" encoding="iso-8859-1"?>
<!-- Generator: Adobe Illustrator 15.0.0, SVG Export Plug-In . SVG Version: 6.00 Build 0)  -->
<!DOCTYPE svg PUBLIC "-//W3C//DTD SVG 1.1//EN" "http://www.w3.org/Graphics/SVG/1.1/DTD/svg11.dtd">
<svg version="1.1" xmlns="http://www.w3.org/2000/svg" xmlns:xlink="http://www.w3.org/1999/xlink" x="0px" y="0px"
	 width="47.999px" height="48px" viewBox="0 0 47.999 48" style="enable-background:new 0 0 47.999 48;" xml:space="preserve">
<g id="Cloudy">
	<path style="fill-rule:evenodd;clip-rule:evenodd;fill:#4CC0E5;" d="M47.999,42.089c0,3.265-2.646,5.911-5.91,5.911H5.91
		C2.646,48,0,45.354,0,42.089V5.91C0,2.646,2.646,0,5.91,0h36.179c3.265,0,5.91,2.646,5.91,5.91V42.089z"/>
	<path style="fill:#FDE466;" d="M22.959,30.774l6.044,4.36l-1.37-7.324l7.414,0.754l-4.848-5.658l6.795-3.053l-7.028-2.477
		l4.36-6.045l-7.324,1.37l0.753-7.413l-5.659,4.85l-3.053-6.797l-2.477,7.027L10.523,6.01l1.369,7.325L4.48,12.581l4.848,5.659
		l-6.795,3.053l7.027,2.477l-4.359,6.042l7.324-1.369l-0.754,7.413l5.658-4.85l3.055,6.797L22.959,30.774z"/>
	<path style="fill:#FFC91B;" d="M29.825,20.57c0,5.557-4.503,10.061-10.061,10.061c-5.556,0-10.059-4.504-10.059-10.061
		S14.209,10.51,19.765,10.51C25.322,10.51,29.825,15.014,29.825,20.57"/>
	<path style="fill:#F9F9F9;" d="M39.75,31.837c-0.016,0-0.031,0.001-0.045,0.001c0.406-1.174,0.63-2.434,0.63-3.746
		c0-6.337-5.137-11.473-11.472-11.473c-5.458,0-10.022,3.812-11.183,8.917c-0.138-0.009-0.269-0.021-0.406-0.021
		c-3.881,0-7.024,3.137-7.024,7.016s3.144,7.017,7.024,7.017c1.142,0,8.037,0,13.914,0c4.189,0,7.86,0,8.562,0
		c1.081,0,2.055-0.446,2.758-1.16c0.681-0.695,1.104-1.645,1.104-2.696C43.612,33.559,41.882,31.837,39.75,31.837z"/>
</g>
<g id="Layer_1">
</g>
</svg>
