<?xml version="1.0" encoding="iso-8859-1"?>
<!-- Generator: Adobe Illustrator 15.0.0, SVG Export Plug-In . SVG Version: 6.00 Build 0)  -->
<!DOCTYPE svg PUBLIC "-//W3C//DTD SVG 1.1//EN" "http://www.w3.org/Graphics/SVG/1.1/DTD/svg11.dtd">
<svg version="1.1" xmlns="http://www.w3.org/2000/svg" xmlns:xlink="http://www.w3.org/1999/xlink" x="0px" y="0px" width="48px"
	 height="48px" viewBox="0 0 48 48" style="enable-background:new 0 0 48 48;" xml:space="preserve">
<g id="Color_Wheel">
	<path style="fill-rule:evenodd;clip-rule:evenodd;fill:#FFFFFF;" d="M48,42.089C48,45.354,45.354,48,42.09,48H5.911
		C2.646,48,0,45.354,0,42.089V5.911C0,2.646,2.646,0,5.911,0H42.09C45.354,0,48,2.646,48,5.911V42.089z"/>
	<polygon style="fill:#3C404A;" points="22.253,40.038 9.466,30.295 15.11,22.95 	"/>
	<polygon style="fill:#297EB7;" points="9.466,30.295 11.681,14.317 20.819,15.521 	"/>
	<polygon style="fill:#3B97D2;" points="30.025,16.736 26.473,8.077 11.681,14.317 	"/>
	<polygon style="fill:#FFC91B;" points="33.519,25.249 39.19,17.899 26.473,8.077 	"/>
	<polygon style="fill:#F19B1F;" points="39.19,17.899 37.102,33.775 27.858,32.581 	"/>
	<g>
		<polygon style="fill:#F05742;" points="37.102,33.775 18.615,31.338 22.253,40.038 		"/>
	</g>
</g>
<g id="Layer_1">
</g>
</svg>
