<?xml version="1.0" encoding="iso-8859-1"?>
<!-- Generator: Adobe Illustrator 15.0.0, SVG Export Plug-In . SVG Version: 6.00 Build 0)  -->
<!DOCTYPE svg PUBLIC "-//W3C//DTD SVG 1.1//EN" "http://www.w3.org/Graphics/SVG/1.1/DTD/svg11.dtd">
<svg version="1.1" xmlns="http://www.w3.org/2000/svg" xmlns:xlink="http://www.w3.org/1999/xlink" x="0px" y="0px" width="48px"
	 height="48px" viewBox="0 0 48 48" style="enable-background:new 0 0 48 48;" xml:space="preserve">
<g id="Comment">
	<path style="fill-rule:evenodd;clip-rule:evenodd;fill:#4EB96F;" d="M48,42.09c0,3.264-2.646,5.91-5.91,5.91H5.911
		C2.647,48,0,45.354,0,42.09V5.911C0,2.646,2.647,0,5.911,0H42.09C45.354,0,48,2.646,48,5.911V42.09z"/>
	<path style="fill:#FFFFFF;" d="M25.522,9.669c-1.384-0.103-2.733,0.007-4.021,0.294c-5.763,1.286-10.257,6.21-10.718,12.401
		c-0.306,4.117,1.242,7.936,3.928,10.665c-0.729,1.187-1.779,2.418-3.146,3.705c-0.127,0.121-0.206,0.211-0.087,0.349
		c2.303,0.574,5.307,0.058,7.665-1.038c1.346,0.57,2.8,0.944,4.337,1.059c4.312,0.32,8.304-1.387,11.05-4.311
		c2.078-2.214,3.445-5.123,3.688-8.386C38.782,16.831,33.099,10.232,25.522,9.669z"/>
	<path style="fill:#4CC0E5;" d="M19.032,21.723c-1.006,0-1.823,0.817-1.823,1.823c0,1.007,0.817,1.824,1.823,1.824
		c1.007,0,1.822-0.817,1.822-1.824C20.854,22.54,20.039,21.723,19.032,21.723"/>
	<path style="fill:#4CC0E5;" d="M24.501,21.723c-1.006,0-1.822,0.817-1.822,1.823c0,1.007,0.816,1.824,1.822,1.824
		s1.823-0.817,1.823-1.824C26.324,22.54,25.507,21.723,24.501,21.723"/>
	<path style="fill:#4CC0E5;" d="M29.97,21.723c-1.006,0-1.822,0.817-1.822,1.823c0,1.007,0.816,1.824,1.822,1.824
		c1.007,0,1.823-0.817,1.823-1.824C31.793,22.54,30.977,21.723,29.97,21.723"/>
</g>
<g id="Layer_1">
</g>
</svg>
