<?xml version="1.0" encoding="iso-8859-1"?>
<!-- Generator: Adobe Illustrator 15.0.0, SVG Export Plug-In . SVG Version: 6.00 Build 0)  -->
<!DOCTYPE svg PUBLIC "-//W3C//DTD SVG 1.1//EN" "http://www.w3.org/Graphics/SVG/1.1/DTD/svg11.dtd">
<svg version="1.1" xmlns="http://www.w3.org/2000/svg" xmlns:xlink="http://www.w3.org/1999/xlink" x="0px" y="0px" width="48px"
	 height="48px" viewBox="0 0 48 48" style="enable-background:new 0 0 48 48;" xml:space="preserve">
<g id="Compass">
	<path style="fill-rule:evenodd;clip-rule:evenodd;fill:#4CC0E5;" d="M48,42.089C48,45.354,45.354,48,42.09,48H5.911
		C2.647,48,0,45.354,0,42.089V5.91C0,2.646,2.647,0,5.911,0H42.09C45.354,0,48,2.646,48,5.91V42.089z"/>
	
		<rect x="8.278" y="16.517" transform="matrix(-0.3815 0.9244 -0.9244 -0.3815 28.9341 17.0346)" style="fill:#FAF39E;" width="0.98" height="3.36"/>
	
		<rect x="38.918" y="29.151" transform="matrix(-0.3806 0.9247 -0.9247 -0.3806 82.9176 6.1233)" style="fill:#FAF39E;" width="0.98" height="3.356"/>
	
		<rect x="17.231" y="7.536" transform="matrix(-0.923 0.3848 -0.3848 -0.923 37.6227 10.9021)" style="fill:#FAF39E;" width="0.98" height="3.357"/>
	
		<rect x="29.962" y="38.131" transform="matrix(-0.9233 0.3841 -0.3841 -0.9233 73.8605 64.8745)" style="fill:#FAF39E;" width="0.982" height="3.36"/>
	
		<rect x="11.861" y="11.135" transform="matrix(-0.7066 0.7076 -0.7076 -0.7066 30.1459 13.1316)" style="fill:#FAF39E;" width="0.98" height="3.36"/>
	
		<rect x="35.334" y="34.531" transform="matrix(-0.7051 0.7091 -0.7091 -0.7051 86.7593 36.3404)" style="fill:#FAF39E;" width="0.978" height="3.358"/>
	
		<rect x="28.726" y="8.703" transform="matrix(-0.3811 0.9245 -0.9245 -0.3811 50.4901 -15.4142)" style="fill:#FAF39E;" width="3.357" height="0.979"/>
	
		<rect x="16.094" y="39.343" transform="matrix(-0.3804 0.9248 -0.9248 -0.3804 61.3715 38.5491)" style="fill:#FAF39E;" width="3.358" height="0.979"/>
	<rect x="23.569" y="6.265" style="fill:#FAF39E;" width="0.98" height="3.358"/>
	<rect x="23.625" y="39.405" style="fill:#FAF39E;" width="0.979" height="3.357"/>
	
		<rect x="37.705" y="17.657" transform="matrix(-0.9233 0.3841 -0.3841 -0.9233 82.7203 19.7739)" style="fill:#FAF39E;" width="3.361" height="0.979"/>
	
		<rect x="7.11" y="30.392" transform="matrix(-0.9229 0.385 -0.385 -0.9229 28.7894 55.9978)" style="fill:#FAF39E;" width="3.358" height="0.978"/>
	
		<rect x="38.982" y="23.996" transform="matrix(-1 0.002 -0.002 -1 81.3701 48.8878)" style="fill:#FAF39E;" width="3.355" height="0.979"/>
	
		<rect x="5.839" y="24.051" transform="matrix(-1 0.0023 -0.0023 -1 15.0932 49.0635)" style="fill:#FAF39E;" width="3.357" height="0.979"/>
	<polygon style="fill:#FFFFFF;" points="38.66,9.942 27.156,27.637 24.039,24.52 20.587,21.07 20.589,21.068 	"/>
	<polygon style="fill:#297EB7;" points="24.036,24.521 27.152,27.639 9.459,39.143 20.585,21.072 20.587,21.07 	"/>
</g>
<g id="Layer_1">
</g>
</svg>
