<?xml version="1.0" encoding="iso-8859-1"?>
<!-- Generator: Adobe Illustrator 15.0.0, SVG Export Plug-In . SVG Version: 6.00 Build 0)  -->
<!DOCTYPE svg PUBLIC "-//W3C//DTD SVG 1.1//EN" "http://www.w3.org/Graphics/SVG/1.1/DTD/svg11.dtd">
<svg version="1.1" xmlns="http://www.w3.org/2000/svg" xmlns:xlink="http://www.w3.org/1999/xlink" x="0px" y="0px" width="48px"
	 height="48px" viewBox="0 0 48 48" style="enable-background:new 0 0 48 48;" xml:space="preserve">
<g id="Controller_2">
	<path style="fill-rule:evenodd;clip-rule:evenodd;fill:#F19B1F;" d="M48,42.089C48,45.354,45.354,48,42.09,48H5.911
		C2.647,48,0,45.354,0,42.089V5.91C0,2.646,2.647,0,5.911,0H42.09C45.354,0,48,2.646,48,5.91V42.089z"/>
	<path style="fill:#FFFFFF;" d="M38.604,17.971H9.551c-0.706,0-1.282,0.576-1.282,1.283v8.668c0,0.705,0.576,1.283,1.282,1.283
		h29.054c0.704,0,1.282-0.578,1.282-1.283v-8.668C39.887,18.547,39.309,17.971,38.604,17.971z"/>
	<polygon style="fill:#3C404A;" points="17.998,24.578 16.017,24.578 16.017,26.561 14.035,26.561 14.035,24.578 12.053,24.578 
		12.053,22.596 14.035,22.596 14.035,20.614 16.017,20.614 16.017,22.596 17.998,22.596 	"/>
	<circle style="fill:#F05742;" cx="30.271" cy="24.877" r="1.486"/>
	<circle style="fill:#FFC91B;" cx="34.616" cy="22.296" r="1.487"/>
</g>
<g id="Layer_1">
</g>
</svg>
