<?xml version="1.0" encoding="iso-8859-1"?>
<!-- Generator: Adobe Illustrator 15.0.0, SVG Export Plug-In . SVG Version: 6.00 Build 0)  -->
<!DOCTYPE svg PUBLIC "-//W3C//DTD SVG 1.1//EN" "http://www.w3.org/Graphics/SVG/1.1/DTD/svg11.dtd">
<svg version="1.1" xmlns="http://www.w3.org/2000/svg" xmlns:xlink="http://www.w3.org/1999/xlink" x="0px" y="0px" width="48px"
	 height="48px" viewBox="0 0 48 48" style="enable-background:new 0 0 48 48;" xml:space="preserve">
<g id="Controller">
	<path style="fill-rule:evenodd;clip-rule:evenodd;fill:#F19B1F;" d="M48,42.089C48,45.354,45.354,48,42.09,48H5.911
		C2.646,48,0,45.354,0,42.089V5.91C0,2.646,2.646,0,5.911,0H42.09C45.354,0,48,2.646,48,5.91V42.089z"/>
	<path style="fill:#131B1D;" d="M43.165,30.033l-4.261-14.047c-1.42-3.499-6.145-4.773-9.605-2.929
		c-1.083,0.578-1.983,1.462-2.645,2.489h-5.397c-0.661-1.027-1.561-1.911-2.645-2.489c-3.46-1.845-8.185-0.57-9.605,2.929
		l-4.26,14.047c-0.689,2.616,0.007,4.998,2.307,6.022c2.3,1.027,4.259-0.042,6.023-2.306l5.204-6.816h11.351l5.204,6.816
		c1.764,2.264,3.724,3.333,6.023,2.306C43.158,35.031,43.855,32.649,43.165,30.033z"/>
	<polygon style="fill:#3C404A;" points="17.876,20.578 15.895,20.578 15.895,22.561 13.913,22.561 13.913,20.578 11.93,20.578 
		11.93,18.596 13.913,18.596 13.913,16.614 15.895,16.614 15.895,18.596 17.876,18.596 	"/>
	<circle style="fill:#F05742;" cx="30.15" cy="20.877" r="1.486"/>
	<circle style="fill:#FFC91B;" cx="34.494" cy="18.296" r="1.487"/>
</g>
<g id="Layer_1">
</g>
</svg>
