<?xml version="1.0" encoding="iso-8859-1"?>
<!-- Generator: Adobe Illustrator 15.0.0, SVG Export Plug-In . SVG Version: 6.00 Build 0)  -->
<!DOCTYPE svg PUBLIC "-//W3C//DTD SVG 1.1//EN" "http://www.w3.org/Graphics/SVG/1.1/DTD/svg11.dtd">
<svg version="1.1" xmlns="http://www.w3.org/2000/svg" xmlns:xlink="http://www.w3.org/1999/xlink" x="0px" y="0px" width="48px"
	 height="48px" viewBox="0 0 48 48" style="enable-background:new 0 0 48 48;" xml:space="preserve">
<g id="Cover_flow">
	<path style="fill-rule:evenodd;clip-rule:evenodd;fill:#F2F3F3;" d="M48,42.089C48,45.354,45.354,48,42.09,48H5.911
		C2.646,48,0,45.354,0,42.089V5.91C0,2.646,2.646,0,5.911,0H42.09C45.354,0,48,2.646,48,5.91V42.089z"/>
	<g>
		<rect x="35.621" y="14.229" style="fill:#297EB7;" width="5.955" height="20.717"/>
		<rect x="41.543" y="16.715" style="fill:#F19B1F;" width="3.342" height="16.576"/>
		<rect x="6.772" y="14.229" style="fill:#297EB7;" width="5.83" height="20.717"/>
		<rect x="3.595" y="16.715" style="fill:#F19B1F;" width="3.181" height="16.576"/>
		<path style="fill:#E64C3B;" d="M12.573,12.903v23.203h23.2V12.903H12.573z M29.227,27.563H29.21
			c-0.097,0.881-0.915,1.68-2.04,1.907c-1.332,0.267-2.582-0.373-2.792-1.426c-0.211-1.053,0.698-2.124,2.028-2.391
			c0.586-0.117,1.15-0.051,1.623,0.143v-4.659l-5.388,2.073v6.148h-0.009c-0.003,0.947-0.85,1.839-2.048,2.081
			c-1.332,0.265-2.583-0.373-2.792-1.426c-0.211-1.056,0.695-2.125,2.028-2.392c0.586-0.117,1.151-0.051,1.624,0.141v-7.088
			l7.783-2.992V27.563z"/>
	</g>
</g>
<g id="Layer_1">
</g>
</svg>
