<?xml version="1.0" encoding="iso-8859-1"?>
<!-- Generator: Adobe Illustrator 15.0.0, SVG Export Plug-In . SVG Version: 6.00 Build 0)  -->
<!DOCTYPE svg PUBLIC "-//W3C//DTD SVG 1.1//EN" "http://www.w3.org/Graphics/SVG/1.1/DTD/svg11.dtd">
<svg version="1.1" xmlns="http://www.w3.org/2000/svg" xmlns:xlink="http://www.w3.org/1999/xlink" x="0px" y="0px" width="48px"
	 height="48px" viewBox="0 0 48 48" style="enable-background:new 0 0 48 48;" xml:space="preserve">
<g id="Credit_Card">
	<path style="fill-rule:evenodd;clip-rule:evenodd;fill:#FFFFFF;" d="M48,42.09c0,3.264-2.646,5.91-5.91,5.91H5.911
		C2.647,48,0,45.354,0,42.09V5.911C0,2.646,2.647,0,5.911,0H42.09C45.354,0,48,2.646,48,5.911V42.09z"/>
	<path style="fill:#F19B1F;" d="M38.593,12.223H9.539c-0.706,0-1.282,0.577-1.282,1.284v19.667c0,0.705,0.576,1.283,1.282,1.283
		h29.054c0.704,0,1.282-0.578,1.282-1.283V13.507C39.875,12.8,39.297,12.223,38.593,12.223z"/>
	<rect x="8.257" y="16.589" style="fill:#222F35;" width="31.618" height="5.656"/>
	<g>
		<rect x="10.424" y="24.405" style="fill:#F1F1F2;" width="19.938" height="2.223"/>
		<rect x="33.51" y="24.405" style="fill:#FFFFFF;" width="4.198" height="2.223"/>
	</g>
	<rect x="10.425" y="28.646" style="fill:#F5E886;" width="4.198" height="2.223"/>
</g>
<g id="Layer_1">
</g>
</svg>
