<?xml version="1.0" encoding="iso-8859-1"?>
<!-- Generator: Adobe Illustrator 15.0.0, SVG Export Plug-In . SVG Version: 6.00 Build 0)  -->
<!DOCTYPE svg PUBLIC "-//W3C//DTD SVG 1.1//EN" "http://www.w3.org/Graphics/SVG/1.1/DTD/svg11.dtd">
<svg version="1.1" xmlns="http://www.w3.org/2000/svg" xmlns:xlink="http://www.w3.org/1999/xlink" x="0px" y="0px" width="48px"
	 height="48px" viewBox="0 0 48 48" style="enable-background:new 0 0 48 48;" xml:space="preserve">
<g id="Damn_Good_Coffee">
	<path style="fill-rule:evenodd;clip-rule:evenodd;fill:#3B97D2;" d="M48,42.09c0,3.264-2.646,5.91-5.91,5.91H5.911
		C2.646,48,0,45.354,0,42.09V5.911C0,2.646,2.646,0,5.911,0H42.09C45.354,0,48,2.646,48,5.911V42.09z"/>
	<path style="fill:none;" d="M33.861,32.387c-0.066,0.128-0.141,0.248-0.209,0.374c0.158-0.068,0.321-0.132,0.477-0.202
		c0.273-0.126,0.557-0.238,0.814-0.379c0.1-0.055,0.191-0.115,0.287-0.171c2.121-1.219,3.623-2.935,3.592-5.368
		c-0.008-0.97-0.855-1.416-1.95-1.592c-0.181-0.028-0.365-0.052-0.556-0.067c-0.151-0.012-0.308-0.008-0.463-0.008
		c0,0.002,0,0.003,0,0.005C35.604,27.658,34.974,30.215,33.861,32.387z"/>
	<g>
		<g>
			<path style="fill:#D0D2D3;" d="M19.739,10.871c0.201-4.06,4.467-3.95,4.467-3.95s-2.785,1.432-2.294,4.189
				c0.216,1.205,1.026,2.982,0.596,4.195c-1.354,3.858-5.688,3.778-5.688,3.778s2.188-0.519,3.166-3.993
				C20.316,13.921,19.688,12.002,19.739,10.871"/>
		</g>
	</g>
	<g>
		<g>
			<path style="fill:#D0D2D3;" d="M24.587,12.736c0.05-3.103,3.329-3.15,3.329-3.15s-2.104,1.177-1.657,3.264
				c0.194,0.913,0.858,2.245,0.562,3.184c-0.95,2.983-4.28,3.055-4.28,3.055s1.667-0.463,2.335-3.142
				C25.098,15.045,24.57,13.602,24.587,12.736"/>
		</g>
	</g>
	<path style="fill:#CCCCCC;" d="M37.019,22.54c-0.218-0.022-0.435-0.041-0.65-0.052c-0.133-0.007-0.26-0.004-0.388-0.002
		c0,0.077,0,0.145,0.001,0.196c0,0.029-0.001,0.059-0.001,0.089c0.005,1.001-0.036,1.998-0.127,2.98
		c0.155,0,0.312-0.004,0.463,0.008c0.19,0.016,0.375,0.039,0.556,0.068c1.095,0.175,1.942,0.621,1.95,1.592
		c0.031,2.433-1.471,4.148-3.592,5.367c-0.096,0.056-0.188,0.117-0.287,0.171c-0.258,0.141-0.541,0.253-0.814,0.378
		c-0.155,0.072-0.318,0.135-0.477,0.203c-0.605,1.1-1.332,2.099-2.213,2.947c-0.365,0.352-0.764,0.668-1.18,0.968
		c0.674-0.152,1.354-0.317,2.037-0.51c0.23-0.065,0.465-0.13,0.698-0.196c0.075-0.021,0.149-0.041,0.224-0.063
		c4.758-1.505,9.164-4.255,9.111-9.3C42.287,23.926,39.639,22.806,37.019,22.54z"/>
	<path style="fill:#F4F5F5;" d="M35.985,20.586H9.911l0.007,2.301c0.069,8.535,3.395,16.798,13.167,16.722
		c2.969-0.023,5.324-0.825,7.174-2.157c0.416-0.3,0.814-0.616,1.18-0.968c0.881-0.849,1.607-1.848,2.213-2.947
		c0.068-0.125,0.143-0.246,0.209-0.374c1.112-2.172,1.742-4.728,1.992-7.407c0-0.002,0-0.004,0-0.006
		c0.091-0.982,0.132-1.979,0.127-2.98c0-0.03,0.001-0.06,0.001-0.089c-0.001-0.051-0.001-0.119-0.001-0.196
		C35.979,22.023,35.982,21.158,35.985,20.586z"/>
	<path style="fill:#EFC319;" d="M26.651,24.23c-1.022,0.365-1.765,1.354-1.765,2.531v3.008c0,1.488,1.17,2.693,2.612,2.693
		c1.444,0,2.613-1.205,2.613-2.693v-3.008c0-1.178-0.741-2.166-1.764-2.531v-3.645h-1.697V24.23z"/>
</g>
<g id="Layer_1">
</g>
</svg>
