<?xml version="1.0" encoding="iso-8859-1"?>
<!-- Generator: Adobe Illustrator 15.0.0, SVG Export Plug-In . SVG Version: 6.00 Build 0)  -->
<!DOCTYPE svg PUBLIC "-//W3C//DTD SVG 1.1//EN" "http://www.w3.org/Graphics/SVG/1.1/DTD/svg11.dtd">
<svg version="1.1" xmlns="http://www.w3.org/2000/svg" xmlns:xlink="http://www.w3.org/1999/xlink" x="0px" y="0px" width="48px"
	 height="48px" viewBox="0 0 48 48" style="enable-background:new 0 0 48 48;" xml:space="preserve">
<g id="Death_Star">
	<path style="fill-rule:evenodd;clip-rule:evenodd;fill:#603A70;" d="M48,42.089C48,45.354,45.354,48,42.09,48H5.911
		C2.646,48,0,45.354,0,42.089V5.91C0,2.646,2.646,0,5.911,0H42.09C45.354,0,48,2.646,48,5.91V42.089z"/>
	<rect x="9.355" y="22.27" style="fill:#D0D2D3;" width="29.813" height="3.281"/>
	<path style="fill:#F1F1F2;" d="M24.261,8.168c-8.526,0-15.475,6.688-15.927,15.102h31.854C39.736,14.855,32.787,8.168,24.261,8.168
		z"/>
	<path style="fill:#F1F1F2;" d="M24.261,40.103c8.446,0,15.34-6.562,15.91-14.864H8.352C8.921,33.54,15.815,40.103,24.261,40.103z"
		/>
	<circle style="fill:#D0D2D3;" cx="24.261" cy="15.744" r="5.36"/>
	<circle style="fill:#222F35;" cx="24.261" cy="15.745" r="2.291"/>
</g>
<g id="Layer_1">
</g>
</svg>
