<?xml version="1.0" encoding="iso-8859-1"?>
<!-- Generator: Adobe Illustrator 15.0.0, SVG Export Plug-In . SVG Version: 6.00 Build 0)  -->
<!DOCTYPE svg PUBLIC "-//W3C//DTD SVG 1.1//EN" "http://www.w3.org/Graphics/SVG/1.1/DTD/svg11.dtd">
<svg version="1.1" xmlns="http://www.w3.org/2000/svg" xmlns:xlink="http://www.w3.org/1999/xlink" x="0px" y="0px" width="48px"
	 height="48px" viewBox="0 0 48 48" style="enable-background:new 0 0 48 48;" xml:space="preserve">
<g id="Delivery">
	<path style="fill-rule:evenodd;clip-rule:evenodd;fill:#FFFFFF;" d="M48,42.089C48,45.354,45.354,48,42.09,48H5.911
		C2.646,48,0,45.354,0,42.089V5.91C0,2.646,2.646,0,5.911,0H42.09C45.354,0,48,2.646,48,5.91V42.089z"/>
	<path style="fill:#FFC91B;" d="M41.143,9.773H6.857c-0.811,0-1.472,0.662-1.472,1.473v24.75c0,0.812,0.661,1.477,1.472,1.477
		h34.286c0.809,0,1.473-0.664,1.473-1.477v-24.75C42.615,10.436,41.951,9.773,41.143,9.773z"/>
	<g>
		<path style="fill:#F19B1F;" d="M15.901,23.621L6.775,9.777c-0.772,0.043-1.39,0.682-1.39,1.465v24.75
			c0,0.812,0.661,1.477,1.472,1.477h0.002L15.901,23.621z"/>
	</g>
	<path style="fill:#222F35;" d="M11.933,24.42c-0.441,0.441-1.155,0.441-1.596,0c-0.44-0.441-0.44-1.154,0-1.594
		c0.441-0.443,1.155-0.443,1.596,0C12.374,23.266,12.374,23.979,11.933,24.42z"/>
	<path style="fill:#FFFFFF;" d="M31.438,18.76h-12.71c-0.309,0-0.561,0.252-0.561,0.562v8.604c0,0.307,0.252,0.561,0.561,0.561
		h12.71c0.308,0,0.56-0.254,0.56-0.561v-8.604C31.997,19.012,31.745,18.76,31.438,18.76z"/>
	<rect x="19.693" y="20.69" style="fill-rule:evenodd;clip-rule:evenodd;fill:#CCCCCC;" width="10.883" height="1.324"/>
	<rect x="19.693" y="22.961" style="fill-rule:evenodd;clip-rule:evenodd;fill:#CCCCCC;" width="7.051" height="1.324"/>
	<rect x="19.693" y="25.232" style="fill-rule:evenodd;clip-rule:evenodd;fill:#CCCCCC;" width="8.942" height="1.324"/>
</g>
<g id="Layer_1">
</g>
</svg>
