<?xml version="1.0" encoding="iso-8859-1"?>
<!-- Generator: Adobe Illustrator 15.0.0, SVG Export Plug-In . SVG Version: 6.00 Build 0)  -->
<!DOCTYPE svg PUBLIC "-//W3C//DTD SVG 1.1//EN" "http://www.w3.org/Graphics/SVG/1.1/DTD/svg11.dtd">
<svg version="1.1" xmlns="http://www.w3.org/2000/svg" xmlns:xlink="http://www.w3.org/1999/xlink" x="0px" y="0px"
	 width="47.999px" height="48px" viewBox="0 0 47.999 48" style="enable-background:new 0 0 47.999 48;" xml:space="preserve">
<g id="Digital_Video_Camera">
	<path style="fill-rule:evenodd;clip-rule:evenodd;fill:#EFC319;" d="M47.999,42.09c0,3.264-2.646,5.91-5.91,5.91H5.91
		C2.646,48,0,45.354,0,42.09V5.911C0,2.646,2.646,0,5.91,0h36.179c3.265,0,5.91,2.646,5.91,5.911V42.09z"/>
	<path style="fill:#222F35;" d="M41.462,18.982c-0.535-0.282-1.195-0.269-1.72,0.032l-4.72,2.719V15.54H31.45l-3.425-5.591
		c-0.2-0.269-0.478-0.47-0.793-0.595c-0.005-0.002-0.011-0.004-0.017-0.006c-0.096-0.037-0.194-0.069-0.298-0.089
		c-0.067-0.014-0.135-0.018-0.203-0.024c-0.045-0.003-0.087-0.016-0.133-0.016h-0.034H11.645c-0.997,0-1.806,0.808-1.806,1.806
		s0.809,1.806,1.806,1.806H25.8l0.543,2.71H9.839v20.57h25.184v-7.287l4.72,2.719c0.272,0.156,0.578,0.236,0.89,0.236
		c0.285,0,0.574-0.068,0.83-0.204C41.999,31.291,41.999,19.266,41.462,18.982z"/>
	<path style="fill:#131B1D;" d="M31.45,15.54l-3.425-5.591c-0.2-0.269-0.478-0.47-0.793-0.595c-0.005-0.002-0.011-0.004-0.017-0.006
		c-0.096-0.037-0.194-0.069-0.298-0.089c-0.067-0.014-0.135-0.018-0.203-0.024c-0.045-0.003-0.087-0.016-0.133-0.016h-0.034H11.645
		c-0.997,0-1.806,0.808-1.806,1.806s0.809,1.806,1.806,1.806H25.8l0.543,2.71H31.45z"/>
	<rect x="15.077" y="31.49" style="fill:#131B1D;" width="5.416" height="2.268"/>
	<circle style="fill:#131B1D;" cx="25.566" cy="32.631" r="1.147"/>
	<circle style="fill:#131B1D;" cx="29.212" cy="32.631" r="1.147"/>
	<path style="fill:#131B1D;" d="M41.462,18.982c-0.535-0.282-1.195-0.269-1.72,0.032l-2.824,1.627l-0.542,0.312l-0.36,0.208
		l-0.993,0.572v7.089l0.993,0.572l0.36,0.209l0.542,0.311l2.824,1.627c0.272,0.156,0.578,0.236,0.89,0.236
		c0.285,0,0.574-0.068,0.83-0.204C41.999,31.291,41.999,19.266,41.462,18.982z"/>
	<rect x="15.077" y="20.364" style="fill:#364951;" width="15.282" height="8.976"/>
	<rect x="15.077" y="20.364" style="fill:#929497;" width="15.282" height="8.976"/>
	<g>
		<rect x="17.359" y="22.927" style="fill:#1C272B;" width="4.225" height="3.812"/>
		<rect x="23.853" y="22.927" style="fill:#1C272B;" width="4.225" height="3.812"/>
	</g>
</g>
<g id="Layer_1">
</g>
</svg>
