<?xml version="1.0" encoding="iso-8859-1"?>
<!-- Generator: Adobe Illustrator 15.0.0, SVG Export Plug-In . SVG Version: 6.00 Build 0)  -->
<!DOCTYPE svg PUBLIC "-//W3C//DTD SVG 1.1//EN" "http://www.w3.org/Graphics/SVG/1.1/DTD/svg11.dtd">
<svg version="1.1" xmlns="http://www.w3.org/2000/svg" xmlns:xlink="http://www.w3.org/1999/xlink" x="0px" y="0px"
	 width="47.999px" height="48px" viewBox="0 0 47.999 48" style="enable-background:new 0 0 47.999 48;" xml:space="preserve">
<g id="Document_Email">
	<path style="fill-rule:evenodd;clip-rule:evenodd;fill:#F5E886;" d="M47.999,42.089c0,3.265-2.646,5.911-5.91,5.911H5.91
		C2.646,48,0,45.354,0,42.089V5.91C0,2.646,2.646,0,5.91,0h36.179c3.265,0,5.91,2.646,5.91,5.91V42.089z"/>
	<polygon style="fill-rule:evenodd;clip-rule:evenodd;fill:#297EB7;" points="24.151,8.479 8.668,21.465 8.668,39.082 
		39.635,39.082 39.635,21.465 	"/>
	<rect x="11.878" y="7.27" style="fill-rule:evenodd;clip-rule:evenodd;fill:#FFFFFF;" width="24.639" height="31.237"/>
	<polygon style="fill-rule:evenodd;clip-rule:evenodd;fill:#3B97D2;" points="39.635,39.082 8.668,39.082 8.668,21.465 	"/>
	<polygon style="fill-rule:evenodd;clip-rule:evenodd;fill:#4CC0E5;" points="8.668,39.082 39.635,39.082 39.635,21.465 	"/>
	<rect x="13.814" y="11.87" style="fill-rule:evenodd;clip-rule:evenodd;fill:#CCCCCC;" width="13.924" height="1.695"/>
	<rect x="13.814" y="14.776" style="fill-rule:evenodd;clip-rule:evenodd;fill:#CCCCCC;" width="9.021" height="1.694"/>
	<rect x="13.814" y="17.682" style="fill-rule:evenodd;clip-rule:evenodd;fill:#CCCCCC;" width="11.441" height="1.695"/>
</g>
<g id="Layer_1">
</g>
</svg>
