<?xml version="1.0" encoding="iso-8859-1"?>
<!-- Generator: Adobe Illustrator 15.0.0, SVG Export Plug-In . SVG Version: 6.00 Build 0)  -->
<!DOCTYPE svg PUBLIC "-//W3C//DTD SVG 1.1//EN" "http://www.w3.org/Graphics/SVG/1.1/DTD/svg11.dtd">
<svg version="1.1" xmlns="http://www.w3.org/2000/svg" xmlns:xlink="http://www.w3.org/1999/xlink" x="0px" y="0px" width="48px"
	 height="48px" viewBox="0 0 48 48" style="enable-background:new 0 0 48 48;" xml:space="preserve">
<g id="Dollar_Bill">
	<path style="fill-rule:evenodd;clip-rule:evenodd;fill:#F2F3F3;" d="M48,42.09c0,3.264-2.646,5.91-5.91,5.91H5.911
		C2.646,48,0,45.354,0,42.09V5.911C0,2.646,2.646,0,5.911,0H42.09C45.354,0,48,2.646,48,5.911V42.09z"/>
	<path style="fill:#4EB96F;" d="M41.504,12.837H6.432c-0.668,0-1.214,0.546-1.214,1.216v18.615c0,0.668,0.545,1.215,1.214,1.215
		h35.072c0.666,0,1.214-0.547,1.214-1.215V14.053C42.718,13.383,42.17,12.837,41.504,12.837z"/>
	<path style="fill:#249351;" d="M18.107,28.46h-7.593V18.259h7.593c0.47-0.815,1.048-1.526,1.711-2.104h-9.304H8.409v2.104V28.46
		v2.104v0.001h11.409C19.155,29.986,18.577,29.275,18.107,28.46z"/>
	<path style="fill:#249351;" d="M37.423,16.155h-9.305c0.663,0.578,1.242,1.289,1.712,2.104h7.593V28.46H29.83
		c-0.47,0.815-1.049,1.526-1.712,2.104h11.407v-0.001V28.46V18.259v-2.104H37.423z"/>
	<path style="fill:#249351;" d="M28.611,25.365c0-1.747-1.285-2.916-3.85-3.51v-2.399c0.657,0.157,1.223,0.551,1.695,1.182
		l1.932-1.06c-0.416-0.683-0.943-1.21-1.576-1.582c-0.623-0.368-1.31-0.603-2.051-0.715v-1.127h-1.499v1.109
		c-0.943,0.1-1.727,0.403-2.33,0.939c-0.699,0.624-1.051,1.44-1.051,2.451c0,0.46,0.088,0.882,0.264,1.266
		c0.176,0.384,0.393,0.697,0.65,0.938s0.569,0.456,0.934,0.645c0.366,0.189,0.704,0.331,1.009,0.423
		c0.163,0.05,0.35,0.087,0.524,0.131v2.699c-0.852-0.227-1.49-0.75-1.884-1.605l-2.055,0.963c0.389,0.812,0.963,1.456,1.723,1.927
		c0.637,0.395,1.391,0.606,2.217,0.709v1.815h1.499v-1.768c1.202-0.1,2.145-0.464,2.824-1.096
		C28.27,27.063,28.611,26.287,28.611,25.365z M22.695,21.185c-0.226-0.177-0.338-0.428-0.338-0.753c0-0.349,0.128-0.612,0.389-0.789
		c0.146-0.099,0.324-0.167,0.517-0.215v2.048C23.033,21.39,22.834,21.294,22.695,21.185z M25.786,26.499
		c-0.229,0.214-0.573,0.345-1.024,0.397V24.42c0.445,0.104,0.789,0.243,1.021,0.423c0.236,0.183,0.354,0.448,0.354,0.792
		C26.138,25.992,26.021,26.279,25.786,26.499z"/>
</g>
<g id="Layer_1">
</g>
</svg>
