<?xml version="1.0" encoding="iso-8859-1"?>
<!-- Generator: Adobe Illustrator 15.0.0, SVG Export Plug-In . SVG Version: 6.00 Build 0)  -->
<!DOCTYPE svg PUBLIC "-//W3C//DTD SVG 1.1//EN" "http://www.w3.org/Graphics/SVG/1.1/DTD/svg11.dtd">
<svg version="1.1" xmlns="http://www.w3.org/2000/svg" xmlns:xlink="http://www.w3.org/1999/xlink" x="0px" y="0px" width="48px"
	 height="48px" viewBox="0 0 48 48" style="enable-background:new 0 0 48 48;" xml:space="preserve">
<g id="Download_from_HD">
	<path style="fill-rule:evenodd;clip-rule:evenodd;fill:#603A70;" d="M48,5.911C48,2.646,45.354,0,42.09,0H5.91
		C2.646,0,0,2.646,0,5.911V42.09C0,45.354,2.646,48,5.91,48h36.18c3.264,0,5.91-2.646,5.91-5.91V5.911z"/>
	<path style="fill:#F19B1F;" d="M37.187,38.61V9.554c0-1.25-1.014-2.264-2.263-2.264H13.076c-1.248,0-2.262,1.014-2.262,2.264V38.61
		c0,1.248,1.014,2.264,2.262,2.264h21.848C36.173,40.874,37.187,39.858,37.187,38.61z"/>
	<path style="fill:#CCCCCC;" d="M31.068,33.241c0,0.59-0.479,1.068-1.068,1.068H18.002c-0.591,0-1.07-0.479-1.07-1.068V14.925
		c0-0.592,0.479-1.07,1.07-1.07H30c0.59,0,1.068,0.479,1.068,1.07V33.241z"/>
	<g>
		<circle style="fill:#222F35;" cx="33.5" cy="11.082" r="1.478"/>
		<circle style="fill:#222F35;" cx="14.5" cy="11.082" r="1.478"/>
	</g>
	<g>
		<circle style="fill:#222F35;" cx="33.5" cy="37.082" r="1.478"/>
		<circle style="fill:#222F35;" cx="14.5" cy="37.082" r="1.478"/>
	</g>
	<path style="fill:#FFFFFF;" d="M28.244,24.229c-0.019,0.036-0.031,0.071-0.055,0.104l-3.467,4.558
		c-0.161,0.225-0.428,0.358-0.722,0.358c-0.288,0-0.56-0.134-0.718-0.358l-3.469-4.558c-0.178-0.247-0.193-0.566-0.043-0.83
		c0.088-0.153,0.23-0.267,0.393-0.341c0.115-0.052,0.239-0.084,0.371-0.084h1.766v-2.054v-1.517c0-0.209,0.115-0.384,0.279-0.49
		c0.092-0.06,0.197-0.104,0.314-0.104h2.215c0.326,0,0.594,0.266,0.594,0.594v3.57h1.766c0.322,0,0.613,0.162,0.762,0.425
		C28.363,23.732,28.361,24,28.244,24.229z"/>
</g>
<g id="Layer_1">
</g>
</svg>
