<?xml version="1.0" encoding="iso-8859-1"?>
<!-- Generator: Adobe Illustrator 15.0.0, SVG Export Plug-In . SVG Version: 6.00 Build 0)  -->
<!DOCTYPE svg PUBLIC "-//W3C//DTD SVG 1.1//EN" "http://www.w3.org/Graphics/SVG/1.1/DTD/svg11.dtd">
<svg version="1.1" xmlns="http://www.w3.org/2000/svg" xmlns:xlink="http://www.w3.org/1999/xlink" x="0px" y="0px" width="48px"
	 height="48px" viewBox="0 0 48 48" style="enable-background:new 0 0 48 48;" xml:space="preserve">
<g id="Dreamweaver">
	<path style="fill-rule:evenodd;clip-rule:evenodd;fill:#249351;" d="M48,42.089C48,45.354,45.354,48,42.089,48H5.911
		C2.646,48,0,45.354,0,42.089V5.91C0,2.646,2.646,0,5.911,0h36.178C45.354,0,48,2.646,48,5.91V42.089z"/>
	<path style="fill:#4EB96F;" d="M9.789,30.908V16.256h5.517c1.445,0,2.699,0.32,3.762,0.961c1.062,0.642,1.862,1.51,2.399,2.605
		c0.536,1.096,0.805,2.349,0.805,3.76c0,1.046-0.155,2.014-0.467,2.906c-0.312,0.891-0.759,1.664-1.342,2.32
		c-0.583,0.654-1.316,1.169-2.2,1.541s-1.869,0.559-2.957,0.559H9.789z M11.325,29.458h3.969c1.699,0,3.011-0.53,3.936-1.59
		s1.388-2.488,1.388-4.286c0-1.805-0.463-3.235-1.388-4.291c-0.925-1.057-2.236-1.585-3.936-1.585h-3.969V29.458z"/>
	<path style="fill:#4EB96F;" d="M23.924,19.575h1.472l2.562,9.736l3.099-9.736h1.432l3.081,9.75l2.566-9.75h1.407l-3.105,11.333
		h-1.686l-3.01-9.521l-3.019,9.521H27.04L23.924,19.575z"/>
</g>
<g id="Layer_1">
</g>
</svg>
