<?xml version="1.0" encoding="iso-8859-1"?>
<!-- Generator: Adobe Illustrator 15.0.0, SVG Export Plug-In . SVG Version: 6.00 Build 0)  -->
<!DOCTYPE svg PUBLIC "-//W3C//DTD SVG 1.1//EN" "http://www.w3.org/Graphics/SVG/1.1/DTD/svg11.dtd">
<svg version="1.1" xmlns="http://www.w3.org/2000/svg" xmlns:xlink="http://www.w3.org/1999/xlink" x="0px" y="0px" width="48px"
	 height="48px" viewBox="0 0 48 48" style="enable-background:new 0 0 48 48;" xml:space="preserve">
<g id="EPS_File">
	<path style="fill-rule:evenodd;clip-rule:evenodd;fill:#B6DAA1;" d="M48,42.089C48,45.354,45.354,48,42.089,48H5.911
		C2.646,48,0,45.354,0,42.089V5.91C0,2.646,2.646,0,5.911,0h36.178C45.354,0,48,2.646,48,5.91V42.089z"/>
	<path style="fill:#4EB96F;" d="M12.813,7.27c-0.559,0-1.013,0.455-1.013,1.013V38.07c0,0.556,0.454,1.012,1.013,1.012H35.98
		c0.557,0,1.013-0.456,1.013-1.012V14.934L29.329,7.27H12.813z"/>
	<path style="fill:#249351;" d="M30.342,14.934h6.651L29.329,7.27v6.651C29.329,14.479,29.785,14.934,30.342,14.934z"/>
	<path style="fill:#FFFFFF;" d="M15.835,26.084h0.672v0.848h-0.672V26.084z"/>
	<path style="fill:#FFFFFF;" d="M21.802,21.22v0.464h-3.399v2.064h3.184v0.464h-3.184v2.256h3.439v0.464h-3.983V21.22H21.802z"/>
	<path style="fill:#FFFFFF;" d="M25.173,21.22c0.256,0,0.487,0.036,0.695,0.108c0.208,0.071,0.387,0.179,0.536,0.319
		c0.149,0.142,0.265,0.313,0.345,0.517c0.079,0.202,0.119,0.432,0.119,0.688s-0.04,0.485-0.119,0.688
		c-0.08,0.202-0.195,0.374-0.345,0.516s-0.328,0.248-0.536,0.32c-0.208,0.071-0.439,0.107-0.695,0.107h-1.992v2.448h-0.544V21.22
		H25.173z M25.053,24.02c0.379,0,0.686-0.096,0.92-0.288c0.234-0.191,0.352-0.485,0.352-0.88s-0.117-0.688-0.352-0.88
		s-0.541-0.288-0.92-0.288h-1.872v2.336H25.053z"/>
	<path style="fill:#FFFFFF;" d="M28.124,25.788c0.097,0.197,0.229,0.354,0.396,0.472s0.366,0.201,0.596,0.252
		s0.475,0.076,0.736,0.076c0.149,0,0.312-0.021,0.487-0.064c0.177-0.042,0.341-0.11,0.492-0.204c0.152-0.093,0.279-0.213,0.38-0.359
		c0.102-0.146,0.152-0.324,0.152-0.532c0-0.16-0.036-0.299-0.108-0.416c-0.071-0.117-0.165-0.216-0.279-0.296
		c-0.115-0.08-0.241-0.146-0.38-0.196c-0.14-0.051-0.275-0.092-0.408-0.124l-1.272-0.312c-0.165-0.043-0.326-0.097-0.483-0.16
		c-0.158-0.064-0.295-0.149-0.412-0.256c-0.117-0.107-0.212-0.237-0.284-0.393c-0.072-0.154-0.108-0.344-0.108-0.567
		c0-0.139,0.027-0.302,0.08-0.488c0.054-0.187,0.153-0.362,0.3-0.528c0.147-0.165,0.349-0.305,0.604-0.42
		c0.256-0.114,0.584-0.172,0.984-0.172c0.282,0,0.552,0.037,0.808,0.112c0.256,0.074,0.479,0.187,0.672,0.336
		s0.346,0.335,0.46,0.556c0.114,0.222,0.172,0.479,0.172,0.772h-0.544c-0.011-0.219-0.06-0.409-0.147-0.572
		s-0.203-0.299-0.345-0.408c-0.141-0.109-0.304-0.191-0.487-0.248c-0.185-0.056-0.378-0.084-0.58-0.084
		c-0.187,0-0.367,0.021-0.54,0.061c-0.174,0.04-0.325,0.104-0.456,0.191s-0.236,0.204-0.316,0.349
		c-0.08,0.144-0.12,0.322-0.12,0.535c0,0.134,0.023,0.25,0.068,0.349s0.108,0.183,0.188,0.252c0.079,0.069,0.172,0.125,0.275,0.168
		c0.104,0.043,0.215,0.077,0.332,0.104l1.393,0.345c0.202,0.053,0.393,0.118,0.571,0.195c0.179,0.078,0.336,0.174,0.473,0.288
		c0.136,0.115,0.242,0.255,0.319,0.42c0.077,0.166,0.116,0.365,0.116,0.601c0,0.063-0.007,0.149-0.02,0.256
		c-0.014,0.106-0.046,0.22-0.097,0.34s-0.122,0.241-0.216,0.364c-0.094,0.122-0.222,0.233-0.384,0.332
		c-0.163,0.099-0.364,0.179-0.604,0.239c-0.239,0.062-0.527,0.093-0.863,0.093s-0.648-0.039-0.937-0.116s-0.533-0.196-0.735-0.356
		c-0.203-0.159-0.359-0.365-0.469-0.615c-0.109-0.251-0.155-0.553-0.14-0.904h0.544C27.982,25.345,28.028,25.591,28.124,25.788z"/>
</g>
<g id="Layer_1">
</g>
</svg>
