<?xml version="1.0" encoding="iso-8859-1"?>
<!-- Generator: Adobe Illustrator 15.0.0, SVG Export Plug-In . SVG Version: 6.00 Build 0)  -->
<!DOCTYPE svg PUBLIC "-//W3C//DTD SVG 1.1//EN" "http://www.w3.org/Graphics/SVG/1.1/DTD/svg11.dtd">
<svg version="1.1" xmlns="http://www.w3.org/2000/svg" xmlns:xlink="http://www.w3.org/1999/xlink" x="0px" y="0px" width="48px"
	 height="48px" viewBox="0 0 48 48" style="enable-background:new 0 0 48 48;" xml:space="preserve">
<g id="Female_User">
	<path style="fill-rule:evenodd;clip-rule:evenodd;fill:#3B97D2;" d="M48,42.09c0,3.264-2.646,5.91-5.91,5.91H5.911
		C2.646,48,0,45.354,0,42.09V5.911C0,2.646,2.646,0,5.911,0H42.09C45.354,0,48,2.646,48,5.911V42.09z"/>
	<circle style="fill:#E8D0B8;" cx="24.224" cy="24.8" r="16.23"/>
	<path style="fill-rule:evenodd;clip-rule:evenodd;fill:#297EB7;" d="M24.239,32.899c-0.887-1.329-2.659-0.552-2.659,0.897
		c0,0.979,2.346,3.09,2.659,3.09c0.312,0,2.658-2.121,2.658-3.102C26.896,32.348,25.125,31.57,24.239,32.899"/>
	<path style="fill-rule:evenodd;clip-rule:evenodd;fill:#FFFFFF;" d="M25.176,34.768c0,0.253-0.441,0.458-0.983,0.458
		c-0.544,0-0.983-0.205-0.983-0.458c0-0.25,0.439-0.455,0.983-0.455C24.735,34.312,25.176,34.518,25.176,34.768z"/>
	<path style="fill:#1C272B;" d="M18.216,26.113c1.643,0,3.002,1.192,3.271,2.757c0.032-0.185,0.054-0.374,0.054-0.567
		c0-1.836-1.488-3.324-3.325-3.324c-1.836,0-3.324,1.488-3.324,3.324c0,0.193,0.021,0.383,0.054,0.567
		C15.214,27.306,16.575,26.113,18.216,26.113z"/>
	<path style="fill:#1C272B;" d="M30.025,26.113c1.641,0,3.002,1.192,3.271,2.757c0.033-0.185,0.053-0.374,0.053-0.567
		c0-1.836-1.488-3.324-3.324-3.324s-3.324,1.488-3.324,3.324c0,0.193,0.02,0.383,0.053,0.567
		C27.023,27.306,28.383,26.113,30.025,26.113z"/>
	<path style="fill:#E64C3B;" d="M45.574,30.111c-0.072-0.15-0.145-0.298-0.213-0.444c-3.762-8.086,1.998-10.43-0.604-16.518
		c-0.35-1.128-0.967-2.137-1.779-2.954c-0.459-0.541-0.881-0.861-1.283-1.023c-1.105-0.692-2.412-1.092-3.812-1.092
		c-1.96,0-3.625,0.788-4.918,2.059c-2.055-1.443-5.217-2.371-8.77-2.371c-3.604,0-6.803,0.956-8.856,2.435
		c-1.302-1.311-3.159-2.123-5.154-2.123c-1.4,0-2.735,0.399-3.84,1.092c-0.403,0.162-0.839,0.482-1.297,1.023
		c-0.813,0.816-1.438,1.826-1.786,2.954c-2.602,6.088,3.155,8.432-0.608,16.518c-0.068,0.146-0.14,0.294-0.214,0.444
		c-0.651,1.312,2.228,0.42,5.358-2.271c0.006-0.004,4.383-4.187,5.77-7.402c0.76-1.768,1.449-3.554,1.656-5.264
		c2.126,2.282,7.508,3.898,13.686,3.898c1.523,0,3.047-0.098,4.43-0.282c0.18,0.549,0.217,1.099,0.455,1.647
		c1.385,3.215,5.791,7.398,5.797,7.402C42.723,30.531,46.225,31.423,45.574,30.111z"/>
</g>
<g id="Layer_1">
</g>
</svg>
