<?xml version="1.0" encoding="iso-8859-1"?>
<!-- Generator: Adobe Illustrator 15.0.0, SVG Export Plug-In . SVG Version: 6.00 Build 0)  -->
<!DOCTYPE svg PUBLIC "-//W3C//DTD SVG 1.1//EN" "http://www.w3.org/Graphics/SVG/1.1/DTD/svg11.dtd">
<svg version="1.1" xmlns="http://www.w3.org/2000/svg" xmlns:xlink="http://www.w3.org/1999/xlink" x="0px" y="0px" width="48px"
	 height="48px" viewBox="0 0 48 48" style="enable-background:new 0 0 48 48;" xml:space="preserve">
<g id="Flag">
	<path style="fill-rule:evenodd;clip-rule:evenodd;fill:#E0E0E0;" d="M48,42.089C48,45.354,45.354,48,42.09,48H5.911
		C2.647,48,0,45.354,0,42.089V5.91C0,2.646,2.647,0,5.911,0H42.09C45.354,0,48,2.646,48,5.91V42.089z"/>
	<path style="fill:#222F35;" d="M25.025,36.756l-7.639-7.636l0,0l-5.516-5.514l-2.895-2.896c-0.981-0.98-2.572-0.979-3.553,0.001
		c-0.98,0.981-0.98,2.571,0,3.552l2.158,2.158l6.96,6.957l0,0l7.667,7.666l2.158,2.158c0.98,0.98,2.571,0.981,3.553-0.002
		c0.98-0.98,0.98-2.57,0-3.551L25.025,36.756z"/>
	<polygon style="fill:#F05742;" points="44.906,14.294 30.768,28.433 20.448,18.113 34.587,3.975 35.089,14.282 	"/>
	<polygon style="fill:#B53937;" points="30.768,28.412 33.014,19.479 24.547,11.012 18.932,16.597 	"/>
	
		<rect x="8.353" y="15.241" transform="matrix(0.7071 -0.7071 0.7071 0.7071 -10.0941 20.5935)" style="fill:#E64C3B;" width="22.916" height="14.48"/>
</g>
<g id="Layer_1">
</g>
</svg>
