<?xml version="1.0" encoding="iso-8859-1"?>
<!-- Generator: Adobe Illustrator 15.0.0, SVG Export Plug-In . SVG Version: 6.00 Build 0)  -->
<!DOCTYPE svg PUBLIC "-//W3C//DTD SVG 1.1//EN" "http://www.w3.org/Graphics/SVG/1.1/DTD/svg11.dtd">
<svg version="1.1" xmlns="http://www.w3.org/2000/svg" xmlns:xlink="http://www.w3.org/1999/xlink" x="0px" y="0px" width="48px"
	 height="48px" viewBox="0 0 48 48" style="enable-background:new 0 0 48 48;" xml:space="preserve">
<g id="Green">
	<path style="fill-rule:evenodd;clip-rule:evenodd;fill:#B6DAA1;" d="M48,42.09c0,3.264-2.646,5.91-5.911,5.91H5.911
		C2.646,48,0,45.354,0,42.09V5.911C0,2.646,2.646,0,5.911,0h36.178C45.354,0,48,2.646,48,5.911V42.09z"/>
	<path style="fill-rule:evenodd;clip-rule:evenodd;fill:#4EB96F;" d="M35.894,18.209C31.847,9.225,19.997,5.431,19.997,5.431
		s5.471,9.315-1.523,15.236c-3.364,2.848-5.179,6.344-5.021,10.192c-0.005,0.098-0.016,0.193-0.016,0.292
		c0,5.726,4.857,10.368,10.85,10.368c1.798,0,3.49-0.424,4.981-1.164c-0.005,0.008-0.007,0.014-0.011,0.021
		c4.356-1.723,7.259-6.039,8.061-9.887C38.156,26.471,37.518,21.812,35.894,18.209z"/>
	<path style="fill-rule:evenodd;clip-rule:evenodd;fill:#249351;" d="M25.992,27.033c1.702,2.92,0.863,7.14-2.569,10.708
		c-4.044,4.206-10.223,6.005-14.559,4.475c3.956-0.827,8.495-3.396,12.142-7.187C23.554,32.383,25.236,29.576,25.992,27.033z"/>
</g>
<g id="Layer_1">
</g>
</svg>
