<?xml version="1.0" encoding="iso-8859-1"?>
<!-- Generator: Adobe Illustrator 15.0.0, SVG Export Plug-In . SVG Version: 6.00 Build 0)  -->
<!DOCTYPE svg PUBLIC "-//W3C//DTD SVG 1.1//EN" "http://www.w3.org/Graphics/SVG/1.1/DTD/svg11.dtd">
<svg version="1.1" xmlns="http://www.w3.org/2000/svg" xmlns:xlink="http://www.w3.org/1999/xlink" x="0px" y="0px" width="48px"
	 height="48px" viewBox="0 0 48 48" style="enable-background:new 0 0 48 48;" xml:space="preserve">
<g id="Headphones">
	<path style="fill-rule:evenodd;clip-rule:evenodd;fill:#3B97D2;" d="M48,42.089C48,45.354,45.354,48,42.09,48H5.911
		C2.646,48,0,45.354,0,42.089V5.91C0,2.646,2.646,0,5.911,0H42.09C45.354,0,48,2.646,48,5.91V42.089z"/>
	<rect x="37.803" y="22.64" style="fill:#222F35;" width="2.053" height="4.189"/>
	<rect x="8.775" y="22.64" style="fill:#222F35;" width="2.053" height="4.189"/>
	<path style="fill:#FFFFFF;" d="M14.136,38.977c-4.048,0-7.329-3.281-7.329-7.328c0-4.048,3.281-7.329,7.329-7.329V38.977z"/>
	<path style="fill:#FFFFFF;" d="M34.799,38.977c4.049,0,7.33-3.281,7.33-7.328c0-4.048-3.281-7.329-7.33-7.329V38.977z"/>
	<path style="fill:#222F35;" d="M17.699,39.301c0,0.243-0.197,0.439-0.439,0.439h-2.685c-0.242,0-0.438-0.196-0.438-0.439V23.995
		c0-0.242,0.197-0.439,0.438-0.439h2.685c0.243,0,0.439,0.197,0.439,0.439V39.301z"/>
	<path style="fill:#222F35;" d="M31.236,39.301c0,0.243,0.197,0.439,0.439,0.439h2.686c0.241,0,0.438-0.196,0.438-0.439V23.995
		c0-0.242-0.196-0.439-0.438-0.439h-2.686c-0.242,0-0.439,0.197-0.439,0.439V39.301z"/>
	<path style="fill:#FFFFFF;" d="M24.264,6.26c-8.868,0-16.083,6.77-16.083,15.09v1.45h3.257v-1.45
		c0-6.524,5.753-11.832,12.825-11.832c7.072,0,12.826,5.308,12.826,11.832v1.45h3.257v-1.45C40.347,13.029,33.133,6.26,24.264,6.26z
		"/>
	<g>
		<path style="fill:#222F35;" d="M24.231,9.499c-3.935,0-7.503,1.7-10.087,4.443l2.565,1.798c2.007-1.849,4.64-2.974,7.522-2.974
			c2.883,0,5.516,1.125,7.522,2.974l2.565-1.798C31.736,11.199,28.168,9.499,24.231,9.499z"/>
	</g>
</g>
<g id="Layer_1">
</g>
</svg>
