<?xml version="1.0" encoding="iso-8859-1"?>
<!-- Generator: Adobe Illustrator 15.0.0, SVG Export Plug-In . SVG Version: 6.00 Build 0)  -->
<!DOCTYPE svg PUBLIC "-//W3C//DTD SVG 1.1//EN" "http://www.w3.org/Graphics/SVG/1.1/DTD/svg11.dtd">
<svg version="1.1" xmlns="http://www.w3.org/2000/svg" xmlns:xlink="http://www.w3.org/1999/xlink" x="0px" y="0px" width="48px"
	 height="48px" viewBox="0 0 48 48" style="enable-background:new 0 0 48 48;" xml:space="preserve">
<g id="Health">
	<path style="fill-rule:evenodd;clip-rule:evenodd;fill:#FFFFFF;" d="M48,42.089C48,45.354,45.354,48,42.089,48H5.911
		C2.646,48,0,45.354,0,42.089V5.91C0,2.646,2.646,0,5.911,0h36.178C45.354,0,48,2.646,48,5.91V42.089z"/>
	<path style="fill:#E64C3B;" d="M37.549,22.348c-1.509,0-2.803,0.886-3.424,2.158h-1.292l-2.812-8.02h-3.76l-2.379,10.23
		L21.839,8.383l-3.768,0.031l-0.185-0.031l-4.422,16.094l-3.494-0.024v3.715l6.303,0.025v-0.09l0.11,0.034l2.417-10.346
		l2.356,20.938h3.96l3.434-14.441l1.359,3.879l0.111-0.034v0.09h4.318c0.682,1.058,1.862,1.765,3.209,1.765
		c2.104,0,3.821-1.714,3.821-3.821C41.37,24.06,39.653,22.348,37.549,22.348z"/>
	<circle style="fill:#FFFFFF;" cx="36.852" cy="25.47" r="1.265"/>
</g>
<g id="Layer_1">
</g>
</svg>
