<?xml version="1.0" encoding="iso-8859-1"?>
<!-- Generator: Adobe Illustrator 15.0.0, SVG Export Plug-In . SVG Version: 6.00 Build 0)  -->
<!DOCTYPE svg PUBLIC "-//W3C//DTD SVG 1.1//EN" "http://www.w3.org/Graphics/SVG/1.1/DTD/svg11.dtd">
<svg version="1.1" xmlns="http://www.w3.org/2000/svg" xmlns:xlink="http://www.w3.org/1999/xlink" x="0px" y="0px" width="48px"
	 height="48px" viewBox="0 0 48 48" style="enable-background:new 0 0 48 48;" xml:space="preserve">
<g id="Heart">
	<path style="fill-rule:evenodd;clip-rule:evenodd;fill:#FFFFFF;" d="M48,42.09c0,3.264-2.646,5.91-5.91,5.91H5.911
		C2.646,48,0,45.354,0,42.09V5.911C0,2.646,2.646,0,5.911,0H42.09C45.354,0,48,2.646,48,5.911V42.09z"/>
	<path style="fill-rule:evenodd;clip-rule:evenodd;fill:#E64C3B;" d="M23.999,15.813c-4.788-7.185-14.368-4.195-14.368,3.63
		c0,5.295,4.785,9.07,8.382,11.916c3.742,2.959,4.79,4.809,5.986,6.006c1.198-1.197,2.2-3.111,5.987-6.006
		c3.651-2.788,8.383-6.681,8.383-11.973C38.369,11.618,28.789,8.629,23.999,15.813z"/>
</g>
<g id="Layer_1">
</g>
</svg>
