<?xml version="1.0" encoding="iso-8859-1"?>
<!-- Generator: Adobe Illustrator 15.0.0, SVG Export Plug-In . SVG Version: 6.00 Build 0)  -->
<!DOCTYPE svg PUBLIC "-//W3C//DTD SVG 1.1//EN" "http://www.w3.org/Graphics/SVG/1.1/DTD/svg11.dtd">
<svg version="1.1" xmlns="http://www.w3.org/2000/svg" xmlns:xlink="http://www.w3.org/1999/xlink" x="0px" y="0px" width="48px"
	 height="48px" viewBox="0 0 48 48" style="enable-background:new 0 0 48 48;" xml:space="preserve">
<g id="Illustrator">
	<path style="fill-rule:evenodd;clip-rule:evenodd;fill:#F19B1F;" d="M48,42.089C48,45.354,45.354,48,42.089,48H5.911
		C2.646,48,0,45.354,0,42.089V5.91C0,2.646,2.646,0,5.911,0h36.178C45.354,0,48,2.646,48,5.91V42.089z"/>
	<path style="fill:#EFC319;" d="M14.835,30.908l6.069-14.652h1.762l6.069,14.652h-1.74l-1.783-4.404H18.24l-1.783,4.404H14.835z
		 M18.831,25.054h5.812l-2.857-7.24L18.831,25.054z"/>
	<rect x="30.813" y="15.203" style="fill:#EFC319;" width="1.407" height="1.762"/>
	<rect x="30.813" y="19.575" style="fill:#EFC319;" width="1.407" height="11.333"/>
</g>
<g id="Layer_1">
</g>
</svg>
