<?xml version="1.0" encoding="iso-8859-1"?>
<!-- Generator: Adobe Illustrator 15.0.0, SVG Export Plug-In . SVG Version: 6.00 Build 0)  -->
<!DOCTYPE svg PUBLIC "-//W3C//DTD SVG 1.1//EN" "http://www.w3.org/Graphics/SVG/1.1/DTD/svg11.dtd">
<svg version="1.1" xmlns="http://www.w3.org/2000/svg" xmlns:xlink="http://www.w3.org/1999/xlink" x="0px" y="0px" width="48px"
	 height="48px" viewBox="0 0 48 48" style="enable-background:new 0 0 48 48;" xml:space="preserve">
<g id="Image_Email">
	<path style="fill-rule:evenodd;clip-rule:evenodd;fill:#F5E886;" d="M48,42.089C48,45.354,45.354,48,42.089,48H5.911
		C2.646,48,0,45.354,0,42.089V5.91C0,2.646,2.646,0,5.911,0h36.178C45.354,0,48,2.646,48,5.91V42.089z"/>
	<polygon style="fill-rule:evenodd;clip-rule:evenodd;fill:#297EB7;" points="24.299,8.479 8.815,21.465 8.815,39.082 
		39.782,39.082 39.782,21.465 	"/>
	<rect x="11.881" y="7.27" style="fill-rule:evenodd;clip-rule:evenodd;fill:#FFFFFF;" width="24.639" height="31.237"/>
	<g>
		<g>
			<g>
				<path style="fill:#4CC0E5;" d="M19.287,21.039c0.301,0.14,0.505,0.281,0.795,0.427c1.609-0.827,3.392-1.56,5.309-2.18
					c1.613-0.522,3.322-0.964,5.113-1.31c1.202-0.23,2.441-0.422,3.707-0.563V9.808H14.105v9.163
					c0.011,0.002,0.021,0.006,0.033,0.009C15.874,19.547,17.57,20.233,19.287,21.039z"/>
			</g>
			<path style="fill:#249351;" d="M19.263,21.039c-1.705-0.799-3.431-1.484-5.138-2.047v6.696c0.366-0.358,0.738-0.711,1.143-1.053
				c0.015-0.014,0.031-0.024,0.044-0.037c0.123-0.103,0.248-0.205,0.376-0.307c1.258-1.021,2.73-1.973,4.39-2.826
				C19.786,21.32,19.564,21.179,19.263,21.039z"/>
			<path style="fill:#4EB96F;" d="M34.217,30.273v-12.86c-1.28,0.142-2.509,0.333-3.713,0.563c-1.79,0.346-3.499,0.787-5.113,1.31
				c-1.917,0.62-3.696,1.353-5.307,2.18c0.012,0.006,0.02,0.012,0.03,0.016c-1.582,0.81-2.999,1.697-4.221,2.651
				c-0.067,0.054-0.135,0.105-0.2,0.159c-0.128,0.102-0.249,0.204-0.372,0.307c-0.011,0.013-0.018,0.022-0.03,0.034
				c0,0-0.006,0.002-0.007,0.003c-0.418,0.357-0.763,0.724-1.159,1.098v4.54H34.217z"/>
		</g>
		<circle style="fill:#F5E886;" cx="29.327" cy="13.642" r="1.888"/>
	</g>
	<polygon style="fill-rule:evenodd;clip-rule:evenodd;fill:#3B97D2;" points="39.782,39.082 8.815,39.082 8.815,21.465 	"/>
	<polygon style="fill-rule:evenodd;clip-rule:evenodd;fill:#4CC0E5;" points="8.815,39.082 39.782,39.082 39.782,21.465 	"/>
</g>
<g id="Layer_1">
</g>
</svg>
