<?xml version="1.0" encoding="iso-8859-1"?>
<!-- Generator: Adobe Illustrator 15.0.0, SVG Export Plug-In . SVG Version: 6.00 Build 0)  -->
<!DOCTYPE svg PUBLIC "-//W3C//DTD SVG 1.1//EN" "http://www.w3.org/Graphics/SVG/1.1/DTD/svg11.dtd">
<svg version="1.1" xmlns="http://www.w3.org/2000/svg" xmlns:xlink="http://www.w3.org/1999/xlink" x="0px" y="0px" width="48px"
	 height="48px" viewBox="0 0 48 48" style="enable-background:new 0 0 48 48;" xml:space="preserve">
<g id="JPEG_Image_File">
	<path style="fill-rule:evenodd;clip-rule:evenodd;fill:#F19B1F;" d="M48,42.089C48,45.354,45.354,48,42.09,48H5.911
		C2.647,48,0,45.354,0,42.089V5.91C0,2.646,2.647,0,5.911,0H42.09C45.354,0,48,2.646,48,5.91V42.089z"/>
	<path style="fill:#E64C3B;" d="M12.432,7.27c-0.559,0-1.012,0.455-1.012,1.013V38.07c0,0.556,0.453,1.012,1.012,1.012H35.6
		c0.557,0,1.012-0.456,1.012-1.012V14.934L28.948,7.27H12.432z"/>
	<path style="fill:#B53937;" d="M29.96,14.934h6.651L28.948,7.27v6.651C28.948,14.479,29.403,14.934,29.96,14.934z"/>
	<path style="fill:#FFFFFF;" d="M15.454,26.084h0.672v0.848h-0.672V26.084z"/>
	<path style="fill:#FFFFFF;" d="M20.414,21.22v4.12c0,0.293-0.029,0.547-0.088,0.76c-0.059,0.214-0.153,0.39-0.284,0.528
		s-0.301,0.242-0.512,0.312s-0.471,0.104-0.78,0.104c-0.325,0-0.592-0.055-0.8-0.164s-0.371-0.254-0.488-0.433
		s-0.197-0.385-0.239-0.619c-0.043-0.235-0.064-0.478-0.064-0.729h0.544c0.005,0.123,0.014,0.27,0.024,0.44
		c0.011,0.17,0.048,0.333,0.111,0.487c0.064,0.155,0.17,0.287,0.316,0.396s0.361,0.164,0.644,0.164c0.214,0,0.39-0.028,0.528-0.084
		c0.139-0.057,0.248-0.145,0.328-0.265c0.08-0.119,0.136-0.272,0.168-0.46c0.032-0.187,0.048-0.41,0.048-0.672V21.22H20.414z"/>
	<path style="fill:#FFFFFF;" d="M24.202,21.22c0.256,0,0.487,0.036,0.695,0.108c0.208,0.071,0.387,0.179,0.536,0.319
		c0.149,0.142,0.265,0.313,0.345,0.517c0.079,0.202,0.119,0.432,0.119,0.688s-0.04,0.485-0.119,0.688
		c-0.08,0.202-0.195,0.374-0.345,0.516s-0.328,0.248-0.536,0.32c-0.208,0.071-0.439,0.107-0.695,0.107H22.21v2.448h-0.544V21.22
		H24.202z M24.082,24.02c0.379,0,0.686-0.096,0.92-0.288c0.234-0.191,0.352-0.485,0.352-0.88s-0.117-0.688-0.352-0.88
		s-0.541-0.288-0.92-0.288H22.21v2.336H24.082z"/>
	<path style="fill:#FFFFFF;" d="M31.293,26.932l-0.072-1.04h-0.017c-0.096,0.203-0.214,0.377-0.355,0.524
		c-0.142,0.146-0.298,0.267-0.468,0.359c-0.171,0.094-0.354,0.161-0.549,0.204c-0.194,0.043-0.396,0.064-0.604,0.064
		c-0.448,0-0.842-0.082-1.18-0.244c-0.339-0.163-0.62-0.38-0.845-0.652c-0.224-0.271-0.392-0.587-0.504-0.943
		c-0.111-0.357-0.168-0.733-0.168-1.129c0-0.395,0.057-0.771,0.168-1.128c0.112-0.356,0.28-0.673,0.504-0.947
		c0.225-0.275,0.506-0.493,0.845-0.656c0.338-0.163,0.731-0.244,1.18-0.244c0.299,0,0.581,0.04,0.848,0.12s0.504,0.2,0.712,0.36
		c0.208,0.159,0.385,0.357,0.528,0.592c0.145,0.234,0.243,0.509,0.296,0.824h-0.544c-0.016-0.166-0.07-0.332-0.164-0.5
		c-0.093-0.168-0.219-0.321-0.376-0.461c-0.157-0.138-0.345-0.252-0.563-0.34s-0.464-0.132-0.736-0.132
		c-0.379,0-0.704,0.072-0.976,0.216c-0.272,0.145-0.495,0.335-0.668,0.572c-0.174,0.237-0.302,0.506-0.385,0.804
		c-0.082,0.299-0.124,0.605-0.124,0.92c0,0.31,0.042,0.615,0.124,0.916c0.083,0.302,0.211,0.571,0.385,0.809
		c0.173,0.237,0.396,0.428,0.668,0.572c0.271,0.144,0.597,0.216,0.976,0.216c0.314,0,0.596-0.053,0.844-0.156
		s0.457-0.249,0.628-0.436c0.171-0.188,0.299-0.408,0.385-0.664c0.085-0.257,0.125-0.536,0.119-0.841h-1.943v-0.464h2.424v2.904
		H31.293z"/>
</g>
<g id="Layer_1">
</g>
</svg>
