<?xml version="1.0" encoding="iso-8859-1"?>
<!-- Generator: Adobe Illustrator 15.0.0, SVG Export Plug-In . SVG Version: 6.00 Build 0)  -->
<!DOCTYPE svg PUBLIC "-//W3C//DTD SVG 1.1//EN" "http://www.w3.org/Graphics/SVG/1.1/DTD/svg11.dtd">
<svg version="1.1" xmlns="http://www.w3.org/2000/svg" xmlns:xlink="http://www.w3.org/1999/xlink" x="0px" y="0px" width="48px"
	 height="48px" viewBox="0 0 48 48" style="enable-background:new 0 0 48 48;" xml:space="preserve">
<g id="Kettlebell">
	<path style="fill-rule:evenodd;clip-rule:evenodd;fill:#FFC91B;" d="M48,42.089C48,45.354,45.354,48,42.089,48H5.911
		C2.646,48,0,45.354,0,42.089V5.91C0,2.646,2.646,0,5.911,0h36.178C45.354,0,48,2.646,48,5.91V42.089z"/>
	<g>
		<g>
			<path d="M34.643,19.969c0.223-0.73-0.049-1.527-0.694-1.961c0.767-1.902,1.203-2.719,1.197-4.485
				c-0.018-5.796-4.723-7.075-10.517-7.058c-5.795,0.018-10.488,1.328-10.471,7.123c0.006,1.774,0.451,2.6,1.233,4.504
				c-0.646,0.463-0.895,1.305-0.607,2.05c-1.096,1.278-1.944,2.771-2.487,4.402l0.012-0.001c-0.461,1.351-0.712,2.801-0.707,4.312
				c0.022,7.298,5.959,13.198,13.26,13.175c7.3-0.021,13.199-5.959,13.177-13.258C38.027,25.384,36.743,22.302,34.643,19.969z
				 M29.792,15.584c-0.625-0.236-1.312-0.09-1.791,0.345c-1.042-0.263-2.134-0.4-3.257-0.396c-1.157,0.003-2.281,0.158-3.35,0.443
				c-0.494-0.464-1.219-0.613-1.865-0.344c-0.386-1.167-0.604-1.147-0.607-2.058c-0.01-3.16,2.561-3.308,5.719-3.316
				c3.158-0.01,5.73,0.121,5.74,3.28C30.383,14.445,30.165,14.42,29.792,15.584z"/>
		</g>
	</g>
	<g>
		<path style="fill:#FFFFFF;" d="M25.022,40.384c-3.665,0.011-4.646-1.392-4.646-1.392l0.849-3.02l1.111,2.668l0.674-0.804
			l0.63,0.695l0.594-0.7l0.7,0.614l0.674-0.619l0.64,0.636l0.708-0.639l0.68,0.86l1.094-2.737l0.867,3.016
			C29.597,38.963,28.991,40.371,25.022,40.384z"/>
	</g>
	<g>
		<path style="fill:#FFFFFF;" d="M31.296,35.716l-1.881-7.376l-1.134,1.456l-1.201-1.067l-1.067,1.075l-1.145-1.034l-1.171,1.041
			l-1.007-1.172l-1.054,1.179l-1.145-1.346l-1.834,7.279l-1.475-9.55c0,0,3.188,1.783,7.821,1.77
			c4.458-0.016,7.705-1.817,7.705-1.817L31.296,35.716z"/>
	</g>
</g>
<g id="Layer_1">
</g>
</svg>
