<?xml version="1.0" encoding="iso-8859-1"?>
<!-- Generator: Adobe Illustrator 15.0.0, SVG Export Plug-In . SVG Version: 6.00 Build 0)  -->
<!DOCTYPE svg PUBLIC "-//W3C//DTD SVG 1.1//EN" "http://www.w3.org/Graphics/SVG/1.1/DTD/svg11.dtd">
<svg version="1.1" xmlns="http://www.w3.org/2000/svg" xmlns:xlink="http://www.w3.org/1999/xlink" x="0px" y="0px" width="48px"
	 height="48px" viewBox="0 0 48 48" style="enable-background:new 0 0 48 48;" xml:space="preserve">
<g id="Key">
	<path style="fill-rule:evenodd;clip-rule:evenodd;fill:#F19B1F;" d="M48,42.09c0,3.264-2.646,5.91-5.911,5.91H5.911
		C2.646,48,0,45.354,0,42.09V5.911C0,2.646,2.646,0,5.911,0h36.178C45.354,0,48,2.646,48,5.911V42.09z"/>
	<path style="fill:#131B1D;" d="M26.741,25.249l0.925,0.931c1.357,1.365,1.35,3.57-0.016,4.929l-6.031,5.994
		c-0.038,0.04-0.075,0.082-0.114,0.122c-3.086,3.066-8.073,3.052-11.141-0.033c-3.068-3.086-3.055-8.074,0.031-11.143
		c0.016-0.015,0.032-0.029,0.048-0.045c0.008-0.007,0.015-0.016,0.022-0.025l6.08-6.041c1.365-1.357,3.572-1.351,4.928,0.014
		l1.17,1.177L26.741,25.249z"/>
	<path style="fill:#F1F1F2;" d="M24.554,23.048L37.993,9.591c1.521,1.512,1.528,3.969,0.019,5.488
		c-0.021,0.019-0.042,0.038-0.062,0.057l-1.796,0.415l-0.497,1.838l-1.803,0.418l-0.431,1.832l-1.737,0.38l-0.497,1.838
		l-3.915,3.929l-0.533-0.537L24.554,23.048z"/>
	<path style="fill:#CCCCCC;" d="M24.554,23.048l-1.91-1.92l-0.812-0.818l3.913-3.9l1.839-0.495l0.379-1.737l1.833-0.431l0.417-1.805
		l1.839-0.496l0.421-1.806c0.004-0.003,0.026-0.026,0.035-0.033c1.51-1.52,3.969-1.528,5.486-0.017L24.554,23.048z"/>
	<path style="fill:#B53937;" d="M18.402,35.199c-0.719,0.697-1.624,1.092-2.552,1.177c-1.219,0.114-2.479-0.292-3.408-1.225
		s-1.334-2.191-1.217-3.409c0.09-0.926,0.482-1.828,1.18-2.544c0.007-0.008,0.012-0.017,0.021-0.024
		c0.015-0.014,0.032-0.029,0.047-0.045c0,0,0.069-0.07,0.093-0.094l0.248-0.247c0.002-0.003,0.006-0.004,0.007-0.006L13,28.604
		c0.465-0.463,1.217-0.461,1.679,0.001l4.315,4.326c0.463,0.464,0.462,1.218-0.001,1.679l-0.512,0.512l-0.052,0.053
		C18.422,35.183,18.411,35.189,18.402,35.199z"/>
</g>
<g id="Layer_1">
</g>
</svg>
