<?xml version="1.0" encoding="iso-8859-1"?>
<!-- Generator: Adobe Illustrator 15.0.0, SVG Export Plug-In . SVG Version: 6.00 Build 0)  -->
<!DOCTYPE svg PUBLIC "-//W3C//DTD SVG 1.1//EN" "http://www.w3.org/Graphics/SVG/1.1/DTD/svg11.dtd">
<svg version="1.1" xmlns="http://www.w3.org/2000/svg" xmlns:xlink="http://www.w3.org/1999/xlink" x="0px" y="0px"
	 width="47.999px" height="48px" viewBox="0 0 47.999 48" style="enable-background:new 0 0 47.999 48;" xml:space="preserve">
<g id="Keys">
	<path style="fill-rule:evenodd;clip-rule:evenodd;fill:#945BA4;" d="M47.999,42.089c0,3.265-2.646,5.911-5.91,5.911H5.91
		C2.646,48,0,45.354,0,42.089V5.91C0,2.646,2.646,0,5.91,0h36.179c3.265,0,5.91,2.646,5.91,5.91V42.089z"/>
	<path style="fill:#222F35;" d="M8.352,38.08c2.257,2.258,5.933,2.258,8.189,0c1.753-1.752,2.146-4.357,1.177-6.492l13.127-13.127
		l1.831,1.832c-0.572,0.575-0.571,1.506,0.002,2.08c0.027,0.026,0.056,0.053,0.085,0.077c0.008,0.009,0.014,0.02,0.022,0.027
		l2.587,2.587c0.115,0.116,0.304,0.116,0.42,0l1.441-1.44c0.115-0.114,0.115-0.303,0-0.421l-1.536-1.533l0.441-0.441l1.534,1.536
		c0.117,0.115,0.306,0.115,0.421,0l1.439-1.441c0.117-0.115,0.117-0.305,0-0.42l-1.532-1.533l0.441-0.441l1.532,1.533
		c0.117,0.117,0.304,0.115,0.422,0l1.438-1.439c0.116-0.115,0.116-0.305,0.001-0.421l-2.587-2.588
		c-0.017-0.017-0.034-0.029-0.053-0.041c-0.018-0.021-0.034-0.04-0.053-0.059c-0.555-0.555-1.44-0.574-2.02-0.058l-1.837-1.838
		l1.888-1.888l-0.002-0.004c0.735-0.796,0.718-2.041-0.055-2.813c-0.773-0.772-2.019-0.789-2.812-0.056l-0.005-0.002L14.844,28.713
		c-2.134-0.967-4.739-0.576-6.492,1.177C6.093,32.146,6.093,35.822,8.352,38.08z M11.11,35.32c-0.738-0.736-0.738-1.935,0-2.673
		c0.737-0.736,1.934-0.736,2.673,0c0.737,0.738,0.737,1.937,0,2.673C13.044,36.059,11.848,36.059,11.11,35.32z"/>
	<path style="fill:#CCCCCC;" d="M40.229,29.89c-1.753-1.753-4.358-2.144-6.492-1.177L14.279,9.256l-0.005,0.002
		c-0.794-0.733-2.039-0.717-2.812,0.056c-0.772,0.772-0.79,2.018-0.055,2.813l-0.002,0.004l1.888,1.888l-1.837,1.838
		c-0.579-0.517-1.465-0.497-2.02,0.058c-0.019,0.019-0.035,0.038-0.053,0.059c-0.019,0.012-0.036,0.024-0.053,0.041l-2.587,2.588
		c-0.115,0.116-0.115,0.306,0.001,0.421l1.438,1.439c0.118,0.115,0.305,0.117,0.422,0l1.532-1.533l0.441,0.441l-1.532,1.533
		c-0.117,0.115-0.117,0.305,0,0.42l1.439,1.441c0.115,0.115,0.304,0.115,0.421,0l1.534-1.536l0.441,0.441l-1.536,1.533
		c-0.115,0.118-0.115,0.307,0,0.421l1.441,1.44c0.116,0.116,0.305,0.116,0.42,0l2.587-2.587c0.009-0.008,0.015-0.019,0.022-0.027
		c0.029-0.024,0.058-0.051,0.085-0.077c0.573-0.574,0.574-1.505,0.002-2.08l1.831-1.832l13.127,13.127
		c-0.969,2.135-0.576,4.74,1.177,6.492c2.257,2.258,5.933,2.258,8.189,0C42.487,35.822,42.487,32.146,40.229,29.89z M34.797,35.32
		c-0.737-0.736-0.737-1.935,0-2.673c0.739-0.736,1.936-0.736,2.673,0c0.738,0.738,0.738,1.937,0,2.673
		C36.732,36.059,35.536,36.059,34.797,35.32z"/>
</g>
<g id="Layer_1">
</g>
</svg>
