<?xml version="1.0" encoding="iso-8859-1"?>
<!-- Generator: Adobe Illustrator 15.0.0, SVG Export Plug-In . SVG Version: 6.00 Build 0)  -->
<!DOCTYPE svg PUBLIC "-//W3C//DTD SVG 1.1//EN" "http://www.w3.org/Graphics/SVG/1.1/DTD/svg11.dtd">
<svg version="1.1" xmlns="http://www.w3.org/2000/svg" xmlns:xlink="http://www.w3.org/1999/xlink" x="0px" y="0px"
	 width="47.999px" height="48px" viewBox="0 0 47.999 48" style="enable-background:new 0 0 47.999 48;" xml:space="preserve">
<g id="Knife">
	<path style="fill-rule:evenodd;clip-rule:evenodd;fill:#F19B1F;" d="M47.999,42.09c0,3.264-2.646,5.91-5.91,5.91H5.91
		C2.646,48,0,45.354,0,42.09V5.911C0,2.646,2.646,0,5.91,0h36.179c3.265,0,5.91,2.646,5.91,5.911V42.09z"/>
	<path style="fill:#CDCCCB;" d="M18.202,27.806l-5.507,5.515c-0.579,0.58-0.01,1.184,0.72,1.907l0.693,0.697
		c0.722,0.72,1.327,1.292,1.91,0.712l5.503-5.516"/>
	<path style="fill:#131B1D;" d="M19.798,34.381c0.559-0.557,0.557-1.46,0.001-2.016l-2.743-2.743
		c-0.556-0.556-1.458-0.556-2.015,0.001l-4.545,4.545v-0.002l-0.274,0.274l-0.181,0.181c-0.354,0.354,0.004-0.004-0.692,0.693
		c-0.21,0.209-0.407,0.405-0.574,0.572c-0.137,0.137-0.367,0.368-0.455,0.457c-1.081,1.08-0.941,3.064,0.369,4.375
		c1.312,1.312,3.297,1.451,4.377,0.369c0.144-0.143,0.359-0.359,0.607-0.607c0.048-0.037,0.098-0.07,0.141-0.113L19.798,34.381z"/>
	<path style="fill:#E6E7E8;" d="M37.556,20.833c2.689-3.963,3.219-7.199,2.956-9.593C40.17,8.112,38.48,6.417,38.48,6.417
		L17.27,27.629l3.396,3.457l4.183,4.252C24.848,35.338,32.911,27.674,37.556,20.833z"/>
	<circle style="fill:#FFFFFF;" cx="11.501" cy="37.92" r="1.007"/>
	<circle style="fill:#131B1D;" cx="23.317" cy="26.667" r="1.367"/>
</g>
<g id="Layer_1">
</g>
</svg>
