<?xml version="1.0" encoding="iso-8859-1"?>
<!-- Generator: Adobe Illustrator 15.0.0, SVG Export Plug-In . SVG Version: 6.00 Build 0)  -->
<!DOCTYPE svg PUBLIC "-//W3C//DTD SVG 1.1//EN" "http://www.w3.org/Graphics/SVG/1.1/DTD/svg11.dtd">
<svg version="1.1" xmlns="http://www.w3.org/2000/svg" xmlns:xlink="http://www.w3.org/1999/xlink" x="0px" y="0px" width="48px"
	 height="48px" viewBox="0 0 48 48" style="enable-background:new 0 0 48 48;" xml:space="preserve">
<g id="Large_Coffee">
	<path style="fill-rule:evenodd;clip-rule:evenodd;fill:#3B97D2;" d="M48,42.09c0,3.264-2.646,5.91-5.91,5.91H5.911
		C2.646,48,0,45.354,0,42.09V5.911C0,2.646,2.646,0,5.911,0H42.09C45.354,0,48,2.646,48,5.911V42.09z"/>
	<g>
		<g>
			<path style="fill:#D0D2D3;" d="M21.617,7.094c0.2-4.06,4.468-3.949,4.468-3.949S23.3,4.577,23.79,7.333
				c0.217,1.205,1.026,2.982,0.597,4.195c-1.354,3.858-5.688,3.778-5.688,3.778s2.188-0.519,3.165-3.993
				C22.194,10.145,21.565,8.226,21.617,7.094"/>
		</g>
	</g>
	<g>
		<g>
			<path style="fill:#D0D2D3;" d="M26.466,8.959c0.051-3.103,3.328-3.149,3.328-3.149s-2.103,1.177-1.656,3.264
				c0.193,0.913,0.857,2.245,0.562,3.185c-0.95,2.982-4.28,3.055-4.28,3.055s1.668-0.463,2.336-3.143
				C26.976,11.269,26.448,9.826,26.466,8.959"/>
		</g>
	</g>
	<path style="fill:#CCCCCC;" d="M40.933,24.702c-0.04-3.887-2.52-5.147-4.974-5.446c-0.204-0.025-0.407-0.046-0.608-0.058
		c-0.207-0.013-0.403-0.003-0.604-0.006c-0.125,0-0.239,0.006-0.361,0.007c0,0.052-0.003,0.103-0.003,0.154c0,0.477,0,1.812,0,3.515
		c0.104-0.003,0.208-0.008,0.312-0.006c0.202,0.007,0.407-0.005,0.606,0.013c0.178,0.018,0.352,0.044,0.521,0.076
		c1.025,0.197,1.819,0.7,1.827,1.79c0.026,2.688-1.335,4.596-3.267,5.961c0,1.611,0,2.934,0,3.583
		C38.006,32.466,40.976,29.516,40.933,24.702z"/>
	<path style="fill:#F4F5F5;" d="M34.392,16.809H11.936v17.912c0,2.699,2.188,4.889,4.888,4.889h12.67
		c2.701,0,4.889-2.189,4.889-4.889C34.383,34.721,34.389,17.489,34.392,16.809z"/>
	<path style="fill:#EFC319;" d="M26.53,20.454c-1.022,0.365-1.766,1.354-1.766,2.531v3.007c0,1.488,1.17,2.695,2.613,2.695
		s2.613-1.207,2.613-2.695v-3.007c0-1.178-0.741-2.166-1.764-2.531v-3.645H26.53V20.454z"/>
</g>
<g id="Layer_1">
</g>
</svg>
