<?xml version="1.0" encoding="iso-8859-1"?>
<!-- Generator: Adobe Illustrator 15.0.0, SVG Export Plug-In . SVG Version: 6.00 Build 0)  -->
<!DOCTYPE svg PUBLIC "-//W3C//DTD SVG 1.1//EN" "http://www.w3.org/Graphics/SVG/1.1/DTD/svg11.dtd">
<svg version="1.1" xmlns="http://www.w3.org/2000/svg" xmlns:xlink="http://www.w3.org/1999/xlink" x="0px" y="0px"
	 width="47.758px" height="47.758px" viewBox="0 0 47.758 47.758" style="enable-background:new 0 0 47.758 47.758;"
	 xml:space="preserve">
<g id="Layers">
	<path style="fill-rule:evenodd;clip-rule:evenodd;fill:#F2F3F3;" d="M47.758,41.877c0,3.248-2.634,5.881-5.882,5.881H5.882
		C2.634,47.758,0,45.125,0,41.877V5.88C0,2.633,2.634,0,5.882,0h35.994c3.248,0,5.882,2.633,5.882,5.881V41.877z"/>
	<path style="fill-rule:evenodd;clip-rule:evenodd;fill:#F19B1F;" d="M23.923,22.952c-0.026-0.014-0.055-0.015-0.081-0.025
		c-0.041-0.017-0.081-0.03-0.124-0.039c-0.054-0.01-0.104-0.013-0.158-0.011c-0.034,0.001-0.067,0.003-0.103,0.01
		c-0.062,0.011-0.119,0.031-0.175,0.058c-0.016,0.008-0.035,0.008-0.052,0.018c-0.188,0.107-13.537,8.278-14.278,8.737
		c-0.113,0.062-0.216,0.146-0.282,0.268c-0.082,0.146-0.095,0.31-0.067,0.463c0.001,0.008,0.001,0.014,0.002,0.02
		c0.016,0.074,0.045,0.143,0.082,0.209c0.01,0.016,0.01,0.033,0.021,0.049c0.003,0.004,0.008,0.006,0.011,0.012
		c0.028,0.039,0.064,0.069,0.102,0.102c0.037,0.037,0.074,0.075,0.119,0.102c0.003,0.003,0.007,0.008,0.011,0.01
		c0.195,0.107,14.722,7.59,14.922,7.686c0.016,0.008,0.031,0.008,0.047,0.014c0.066,0.027,0.133,0.045,0.205,0.051
		c0.018,0.002,0.034,0.002,0.051,0.002c0.076,0,0.149-0.01,0.225-0.033c0.013-0.004,0.023-0.01,0.035-0.014
		c0.048-0.018,0.096-0.027,0.139-0.055L38.82,31.86c0.023-0.013,0.035-0.034,0.055-0.048c0.038-0.027,0.071-0.057,0.104-0.092
		c0.034-0.035,0.062-0.074,0.088-0.115c0.012-0.02,0.03-0.033,0.04-0.055c0.01-0.02,0.009-0.041,0.017-0.061
		c0.017-0.047,0.027-0.092,0.035-0.141c0.007-0.045,0.012-0.088,0.01-0.133c-0.002-0.043-0.009-0.086-0.02-0.13
		c-0.011-0.048-0.025-0.093-0.046-0.138c-0.009-0.02-0.009-0.041-0.02-0.06c-0.012-0.021-0.031-0.032-0.045-0.052
		c-0.028-0.039-0.06-0.074-0.095-0.107c-0.036-0.033-0.071-0.06-0.111-0.084c-0.021-0.014-0.035-0.033-0.057-0.043L23.923,22.952z"
		/>
	<path style="fill-rule:evenodd;clip-rule:evenodd;fill:#E64C3B;" d="M23.923,15.051c-0.026-0.014-0.055-0.015-0.081-0.025
		c-0.041-0.017-0.081-0.03-0.124-0.039c-0.054-0.01-0.104-0.013-0.158-0.012c-0.034,0.002-0.067,0.003-0.103,0.01
		c-0.062,0.011-0.119,0.032-0.175,0.059c-0.016,0.008-0.035,0.007-0.052,0.017c-0.188,0.108-13.537,8.279-14.278,8.738
		c-0.113,0.062-0.216,0.145-0.282,0.267c-0.082,0.146-0.095,0.31-0.067,0.463c0.001,0.007,0.001,0.013,0.002,0.019
		c0.016,0.075,0.045,0.143,0.082,0.209c0.01,0.016,0.01,0.033,0.021,0.048c0.003,0.005,0.008,0.007,0.011,0.013
		c0.028,0.039,0.064,0.069,0.102,0.102c0.037,0.037,0.074,0.074,0.119,0.102c0.003,0.002,0.007,0.006,0.011,0.009
		c0.195,0.106,14.722,7.591,14.922,7.687c0.016,0.008,0.031,0.007,0.047,0.012c0.066,0.028,0.133,0.047,0.205,0.053
		c0.018,0.002,0.034,0.001,0.051,0.001c0.076,0.001,0.149-0.01,0.225-0.032c0.013-0.005,0.023-0.01,0.035-0.015
		c0.048-0.018,0.096-0.026,0.139-0.055l14.248-8.721c0.023-0.013,0.035-0.034,0.055-0.048c0.038-0.028,0.071-0.057,0.104-0.091
		c0.034-0.037,0.062-0.074,0.088-0.116c0.012-0.021,0.03-0.033,0.04-0.055c0.01-0.02,0.009-0.041,0.017-0.061
		c0.017-0.046,0.027-0.091,0.035-0.14c0.007-0.044,0.012-0.088,0.01-0.132c-0.002-0.044-0.009-0.086-0.02-0.13
		c-0.011-0.047-0.025-0.093-0.046-0.137c-0.009-0.02-0.009-0.041-0.02-0.06c-0.012-0.021-0.031-0.033-0.045-0.051
		c-0.028-0.04-0.06-0.075-0.095-0.108c-0.036-0.033-0.071-0.06-0.111-0.084c-0.021-0.013-0.035-0.032-0.057-0.043L23.923,15.051z"/>
	<path style="fill-rule:evenodd;clip-rule:evenodd;fill:#3B97D2;" d="M23.923,7.15c-0.026-0.014-0.055-0.015-0.081-0.025
		c-0.041-0.017-0.081-0.03-0.124-0.039c-0.054-0.011-0.104-0.013-0.158-0.012c-0.034,0.001-0.067,0.003-0.103,0.01
		c-0.062,0.011-0.119,0.032-0.175,0.059C23.267,7.15,23.247,7.15,23.23,7.16c-0.188,0.108-13.537,8.279-14.278,8.738
		c-0.113,0.062-0.216,0.145-0.282,0.267c-0.082,0.146-0.095,0.31-0.067,0.463c0.001,0.007,0.001,0.013,0.002,0.019
		c0.016,0.075,0.045,0.142,0.082,0.209c0.01,0.015,0.01,0.033,0.021,0.048c0.003,0.005,0.008,0.007,0.011,0.012
		c0.028,0.039,0.064,0.069,0.102,0.103c0.037,0.037,0.074,0.074,0.119,0.101c0.003,0.003,0.007,0.007,0.011,0.009
		c0.195,0.107,14.722,7.59,14.922,7.687c0.016,0.007,0.031,0.007,0.047,0.012c0.066,0.028,0.133,0.046,0.205,0.052
		c0.018,0.002,0.034,0.001,0.051,0.001c0.076,0,0.149-0.01,0.225-0.033c0.013-0.004,0.023-0.009,0.035-0.014
		c0.048-0.018,0.096-0.026,0.139-0.055l14.248-8.721c0.023-0.013,0.035-0.034,0.055-0.048c0.038-0.028,0.071-0.057,0.104-0.091
		c0.034-0.037,0.062-0.074,0.088-0.116c0.012-0.021,0.03-0.034,0.04-0.055c0.01-0.02,0.009-0.041,0.017-0.061
		c0.017-0.046,0.027-0.091,0.035-0.14c0.007-0.044,0.012-0.088,0.01-0.133c-0.002-0.044-0.009-0.086-0.02-0.13
		c-0.011-0.048-0.025-0.093-0.046-0.138c-0.009-0.02-0.009-0.041-0.02-0.06c-0.012-0.021-0.031-0.033-0.045-0.052
		c-0.028-0.04-0.06-0.075-0.095-0.108c-0.036-0.033-0.071-0.06-0.111-0.084c-0.021-0.013-0.035-0.033-0.057-0.043L23.923,7.15z"/>
</g>
<g id="Layer_1">
</g>
</svg>
