<?xml version="1.0" encoding="iso-8859-1"?>
<!-- Generator: Adobe Illustrator 15.0.0, SVG Export Plug-In . SVG Version: 6.00 Build 0)  -->
<!DOCTYPE svg PUBLIC "-//W3C//DTD SVG 1.1//EN" "http://www.w3.org/Graphics/SVG/1.1/DTD/svg11.dtd">
<svg version="1.1" xmlns="http://www.w3.org/2000/svg" xmlns:xlink="http://www.w3.org/1999/xlink" x="0px" y="0px"
	 width="48.014px" height="48px" viewBox="0 0 48.014 48" style="enable-background:new 0 0 48.014 48;" xml:space="preserve">
<g id="Location">
	<path style="fill-rule:evenodd;clip-rule:evenodd;fill:#915645;" d="M48.014,42.09c0,3.264-2.646,5.91-5.911,5.91H5.925
		c-3.265,0-5.911-2.646-5.911-5.91V5.911C0.014,2.646,2.66,0,5.925,0h36.178c3.265,0,5.911,2.646,5.911,5.911V42.09z"/>
	<path style="fill-rule:evenodd;clip-rule:evenodd;fill:#FFFFFF;" d="M48,42.09c0,3.264-2.646,5.91-5.911,5.91H5.911
		C2.646,48,0,45.354,0,42.09V5.911C0,2.646,2.646,0,5.911,0h36.178C45.354,0,48,2.646,48,5.911V42.09z"/>
	<path style="fill-rule:evenodd;clip-rule:evenodd;fill:none;" d="M48,42.09c0,3.264-2.646,5.91-5.911,5.91H5.911
		C2.646,48,0,45.354,0,42.09V5.911C0,2.646,2.646,0,5.911,0h36.178C45.354,0,48,2.646,48,5.911V42.09z"/>
	<path style="fill:#FFFFFF;" d="M0,34.285v7.805c0,1.463,0.535,2.801,1.417,3.833l3.51-9.888L0,34.285z"/>
	<path style="fill:#FFFFFF;" d="M20.927,37.615l1.443-4.066l0.007,0.002l0.071-0.223c0.307-0.86,1.184-1.396,2.088-1.272
		c0.131,0.018,0.26,0.051,0.384,0.095c1.01,0.355,1.538,1.471,1.181,2.477c-0.024,0.069-0.054,0.133-0.093,0.217l-1.442,4.062
		l5.73,2.057l3.763-10.604l-20.122-7.143l-3.758,10.585l10.587,3.759L20.927,37.615z"/>
	<polygon style="fill:#FFFFFF;" points="0,18.271 0,19.214 0.297,18.377 	"/>
	
		<rect x="16.343" y="13.438" transform="matrix(-0.9424 -0.3346 0.3346 -0.9424 46.3675 44.5326)" style="fill:#FFFFFF;" width="21.352" height="9.67"/>
	<polygon style="fill:#FFFFFF;" points="15.907,5.104 17.719,0 10.897,0 9.849,2.954 	"/>
	<path style="fill:#FFFFFF;" d="M48,16.493V5.911c0-0.564-0.084-1.107-0.231-1.625l-3.82,10.769L48,16.493z"/>
	<polygon style="fill:#FFFFFF;" points="39.424,27.805 48,30.871 48,20.589 42.656,18.693 	"/>
	<path style="fill:#FFFFFF;" d="M39.987,13.649l4.638-13.071C43.855,0.211,42.998,0,42.089,0H22.178l-2.311,6.509L39.987,13.649z"/>
	<polygon style="fill:#FFFFFF;" points="8.558,6.592 5.323,15.704 11.381,17.854 14.615,8.744 8.716,6.65 	"/>
	<path style="fill:#FFFFFF;" d="M6.81,0H5.911C2.646,0,0,2.646,0,5.911v7.903l1.7,0.604L6.81,0z"/>
	
		<rect x="-0.547" y="22.815" transform="matrix(-0.3345 0.9424 -0.9424 -0.3345 31.2933 29.9603)" style="fill:#FFFFFF;" width="11.23" height="6.428"/>
	<path style="fill:#FFFFFF;" d="M8.887,37.441L5.157,47.947C5.405,47.979,5.655,48,5.911,48H17.24l2.394-6.742L8.887,37.441z"/>
	<polygon style="fill:#FFFFFF;" points="32.256,48 38.467,48 32.958,46.022 	"/>
	<path style="fill:#FFFFFF;" d="M34.25,42.383l11.681,4.193C47.195,45.492,48,43.886,48,42.09v-6.753l-9.982-3.569L34.25,42.383z"/>
	<polygon style="fill:#FFFFFF;" points="23.435,42.604 23.273,42.547 21.339,48 27.799,48 29.004,44.604 	"/>
	<g>
		
			<rect x="27.35" y="1.223" transform="matrix(0.3345 -0.9424 0.9424 0.3345 8.2743 35.5137)" style="fill:#E0E0E0;" width="3.863" height="21.35"/>
		<polygon style="fill:#E0E0E0;" points="42.656,18.693 48,20.589 48,16.493 43.948,15.055 		"/>
		<path style="fill:#E0E0E0;" d="M23.435,42.604l5.569,2l1.292-3.641l-5.73-2.057l1.442-4.062c0.039-0.084,0.068-0.147,0.093-0.217
			c0.357-1.006-0.171-2.121-1.181-2.477c-0.124-0.044-0.253-0.077-0.384-0.095c-0.904-0.124-1.781,0.412-2.088,1.272l-0.071,0.223
			l-0.007-0.002l-1.443,4.066l-0.161-0.055l-10.587-3.759l-1.292,3.64l10.747,3.816L17.24,48h4.099l1.935-5.453L23.435,42.604z"/>
		<polygon style="fill:#E0E0E0;" points="5.323,15.704 8.558,6.592 8.716,6.65 14.615,8.744 15.907,5.104 9.849,2.954 10.897,0 
			6.81,0 1.7,14.417 		"/>
		<polygon style="fill:#E0E0E0;" points="6.219,32.396 0.162,30.245 3.918,19.663 0.297,18.377 0,19.214 0,34.285 4.927,36.035 		
			"/>
		<path style="fill:#E0E0E0;" d="M32.958,46.022L38.467,48h3.622c1.468,0,2.809-0.538,3.842-1.424L34.25,42.383L32.958,46.022z"/>
	</g>
	<path style="fill:#F5E886;" d="M39.424,27.805l3.232-9.111l1.292-3.639l3.82-10.769C47.3,2.646,46.142,1.3,44.625,0.578
		l-4.638,13.071l-1.291,3.639l-3.233,9.113l-20.121-7.144l3.233-9.109l1.292-3.64L22.178,0h-4.459l-1.812,5.104l-1.292,3.64
		l-3.234,9.111l-6.058-2.15L1.7,14.417L0,13.814v4.458l0.297,0.105l3.621,1.286l6.058,2.15L6.219,32.396l-1.292,3.64l-3.51,9.888
		c0.93,1.089,2.248,1.833,3.74,2.024l3.729-10.506l1.292-3.64l3.758-10.585l20.122,7.143l-3.763,10.604l-1.292,3.641L27.799,48
		h4.457l0.702-1.978l1.292-3.64l3.768-10.615L48,35.337v-4.466L39.424,27.805z"/>
	<ellipse style="fill:#929497;" cx="17.681" cy="31.131" rx="3.132" ry="1.265"/>
	<path style="fill:#3C404A;" d="M23.637,15.751c0-3.373-2.732-6.108-6.107-6.108c-3.374,0-6.107,2.735-6.107,6.108
		c0,1.114,0.305,2.153,0.825,3.052h-0.009l5.291,7.688l5.294-7.688h-0.008C23.337,17.904,23.637,16.865,23.637,15.751z
		 M17.529,18.854c-1.699,0-3.086-1.383-3.086-3.083c0-1.7,1.387-3.084,3.086-3.084c1.7,0,3.086,1.384,3.086,3.084
		C20.615,17.471,19.229,18.854,17.529,18.854z"/>
</g>
<g id="Layer_1">
</g>
</svg>
