<?xml version="1.0" encoding="iso-8859-1"?>
<!-- Generator: Adobe Illustrator 15.0.0, SVG Export Plug-In . SVG Version: 6.00 Build 0)  -->
<!DOCTYPE svg PUBLIC "-//W3C//DTD SVG 1.1//EN" "http://www.w3.org/Graphics/SVG/1.1/DTD/svg11.dtd">
<svg version="1.1" xmlns="http://www.w3.org/2000/svg" xmlns:xlink="http://www.w3.org/1999/xlink" x="0px" y="0px" width="48px"
	 height="48px" viewBox="0 0 48 48" style="enable-background:new 0 0 48 48;" xml:space="preserve">
<g id="Lock">
	<path style="fill-rule:evenodd;clip-rule:evenodd;fill:#F19B1F;" d="M48,42.09c0,3.264-2.646,5.91-5.91,5.91H5.911
		C2.646,48,0,45.354,0,42.09V5.911C0,2.646,2.646,0,5.911,0H42.09C45.354,0,48,2.646,48,5.911V42.09z"/>
	<path style="fill:#131B1D;" d="M32.545,12.2c-0.01-0.086-0.021-0.171-0.033-0.256c-0.055-0.393-0.125-0.776-0.221-1.143
		c0,0,0-0.001,0-0.002l0,0c-0.979-3.712-4.064-6.03-8.35-6.03c-4.712,0-7.971,2.809-8.57,7.19c-0.012,0.082-0.022,0.163-0.032,0.245
		c-0.046,0.404-0.077,0.815-0.077,1.244v2.713h3.438v-2.849c0-0.361,0.032-0.693,0.074-1.015c0.012-0.087,0.02-0.179,0.035-0.263
		c0.042-0.247,0.106-0.473,0.173-0.695c0.043-0.14,0.088-0.278,0.14-0.409c0.72-1.786,2.361-2.69,4.819-2.69
		c2.473,0,4.105,0.912,4.811,2.717l0,0c0.128,0.326,0.226,0.681,0.294,1.063c0.001,0.009,0.005,0.017,0.007,0.026
		c0.067,0.39,0.104,0.811,0.104,1.265v2.849h3.467v-2.713C32.623,13.018,32.591,12.605,32.545,12.2z"/>
	<path style="fill:#3C404A;" d="M34.36,21.712c0.028-1.141,1.259-2.274,1.249-4.783c-0.01-2.662-2.159-4.82-4.821-4.82
		c-2.376,0-4.338,1.721-4.737,3.981c-0.674-0.121-1.366-0.194-2.075-0.194s-1.4,0.073-2.074,0.194
		c-0.4-2.26-2.362-3.981-4.738-3.981c-2.663,0-4.812,2.158-4.822,4.82c-0.009,2.509,1.221,3.642,1.249,4.783
		c-0.043,2.265-2.284,3.583-2.264,8.237c0,7.145,6.181,11.244,12.648,11.244c6.467,0,12.649-4.1,12.649-11.244
		C36.645,25.295,34.404,23.978,34.36,21.712z"/>
	<path style="fill:#231F20;" d="M26.221,25.919c0-1.245-1.011-2.253-2.254-2.253c-1.241,0-2.253,1.009-2.253,2.253
		c0,0.833,0.458,1.552,1.125,1.942v4.055h2.257v-4.055C25.766,27.471,26.221,26.752,26.221,25.919"/>
	<circle style="fill:#F2F3F3;" cx="30.921" cy="16.994" r="1.365"/>
	<circle style="fill:#F2F3F3;" cx="17.031" cy="16.994" r="1.365"/>
</g>
<g id="Layer_1">
</g>
</svg>
