<?xml version="1.0" encoding="iso-8859-1"?>
<!-- Generator: Adobe Illustrator 15.0.0, SVG Export Plug-In . SVG Version: 6.00 Build 0)  -->
<!DOCTYPE svg PUBLIC "-//W3C//DTD SVG 1.1//EN" "http://www.w3.org/Graphics/SVG/1.1/DTD/svg11.dtd">
<svg version="1.1" xmlns="http://www.w3.org/2000/svg" xmlns:xlink="http://www.w3.org/1999/xlink" x="0px" y="0px"
	 width="47.999px" height="48px" viewBox="0 0 47.999 48" style="enable-background:new 0 0 47.999 48;" xml:space="preserve">
<g id="Low_Battery_Power">
	<path style="fill-rule:evenodd;clip-rule:evenodd;fill:#3B97D2;" d="M47.999,42.089c0,3.265-2.646,5.911-5.91,5.911H5.91
		C2.646,48,0,45.354,0,42.089V5.91C0,2.646,2.646,0,5.91,0h36.179c3.265,0,5.91,2.646,5.91,5.91V42.089z"/>
	<polygon style="fill:#F2F3F3;" points="10.076,14.896 10.076,20.082 7.411,20.082 7.411,30.172 10.076,30.172 10.076,34.887 
		40.4,34.887 40.4,14.896 	"/>
	<polygon style="fill:#F19B1F;" points="35.64,20.033 31.014,20.033 24.167,30.172 35.64,30.172 	"/>
	<rect x="7.412" y="20.082" style="fill:#222F35;" width="2.679" height="10.09"/>
</g>
<g id="Layer_1">
</g>
</svg>
