<?xml version="1.0" encoding="iso-8859-1"?>
<!-- Generator: Adobe Illustrator 15.0.0, SVG Export Plug-In . SVG Version: 6.00 Build 0)  -->
<!DOCTYPE svg PUBLIC "-//W3C//DTD SVG 1.1//EN" "http://www.w3.org/Graphics/SVG/1.1/DTD/svg11.dtd">
<svg version="1.1" xmlns="http://www.w3.org/2000/svg" xmlns:xlink="http://www.w3.org/1999/xlink" x="0px" y="0px" width="48px"
	 height="48px" viewBox="0 0 48 48" style="enable-background:new 0 0 48 48;" xml:space="preserve">
<g id="Magic_Eight_Ball">
	<path style="fill-rule:evenodd;clip-rule:evenodd;fill:#F19B1F;" d="M48,42.089C48,45.354,45.354,48,42.09,48H5.911
		C2.646,48,0,45.354,0,42.089V5.91C0,2.646,2.646,0,5.911,0H42.09C45.354,0,48,2.646,48,5.91V42.089z"/>
	<path style="fill:#131B1D;" d="M39.848,26.206c1.119-8.753-5.072-16.755-13.824-17.872C17.27,7.217,9.268,13.407,8.152,22.161
		c-1.119,8.753,5.07,16.753,13.823,17.87C30.73,41.15,38.729,34.961,39.848,26.206z"/>
	<path style="fill:#FFFFFF;" d="M22.543,30.767c-4.373,0.398-8.239-2.813-8.642-7.191c-0.398-4.367,2.823-8.234,7.194-8.636
		c4.371-0.404,8.242,2.818,8.64,7.193C30.135,26.502,26.916,30.366,22.543,30.767z"/>
	<path style="fill:#131B1D;" d="M22.755,21.916c0.478-0.334,0.823-0.862,0.755-1.607c-0.101-1.061-1.102-1.977-2.592-1.838
		c-1.497,0.129-2.316,1.217-2.221,2.281c0.067,0.742,0.503,1.198,1.02,1.44c-0.892,0.47-1.482,1.272-1.386,2.351
		c0.139,1.508,1.502,2.521,3.354,2.351c1.85-0.169,3.01-1.413,2.871-2.922C24.458,22.898,23.73,22.217,22.755,21.916z M20.28,20.696
		c-0.04-0.489,0.252-0.862,0.758-0.903c0.507-0.045,0.861,0.261,0.907,0.752c0.046,0.496-0.247,0.883-0.754,0.928
		C20.683,21.521,20.33,21.193,20.28,20.696z M21.562,25.509c-0.9,0.085-1.521-0.472-1.595-1.273c-0.074-0.795,0.44-1.435,1.34-1.514
		c0.889-0.079,1.517,0.452,1.588,1.25C22.969,24.766,22.452,25.432,21.562,25.509z"/>
</g>
<g id="Layer_1">
</g>
</svg>
