<?xml version="1.0" encoding="iso-8859-1"?>
<!-- Generator: Adobe Illustrator 15.0.0, SVG Export Plug-In . SVG Version: 6.00 Build 0)  -->
<!DOCTYPE svg PUBLIC "-//W3C//DTD SVG 1.1//EN" "http://www.w3.org/Graphics/SVG/1.1/DTD/svg11.dtd">
<svg version="1.1" xmlns="http://www.w3.org/2000/svg" xmlns:xlink="http://www.w3.org/1999/xlink" x="0px" y="0px" width="48px"
	 height="48px" viewBox="0 0 48 48" style="enable-background:new 0 0 48 48;" xml:space="preserve">
<g id="Magnet">
	<path style="fill-rule:evenodd;clip-rule:evenodd;fill:#603A70;" d="M48,42.089C48,45.354,45.354,48,42.09,48H5.911
		C2.647,48,0,45.354,0,42.089V5.91C0,2.646,2.647,0,5.911,0H42.09C45.354,0,48,2.646,48,5.91V42.089z"/>
	<path style="fill:#F05742;" d="M31.4,24.062l-5.134,5.133c-0.539,0.54-1.143,0.945-1.801,1.205
		c-0.657,0.267-1.343,0.395-2.033,0.388c-0.708-0.01-1.381-0.147-2.057-0.419c-0.672-0.271-1.249-0.654-1.771-1.174
		c-0.542-0.544-0.932-1.127-1.188-1.781c-0.261-0.661-0.398-1.354-0.411-2.062c-0.012-0.692,0.115-1.357,0.387-2.036
		c0.266-0.657,0.669-1.264,1.2-1.796l5.132-5.132l-5.046-5.045l-5.132,5.132c-1.213,1.212-2.141,2.607-2.76,4.146
		c-0.609,1.542-0.92,3.135-0.927,4.731c-0.006,1.601,0.306,3.196,0.922,4.739c0.614,1.545,1.545,2.944,2.764,4.163
		c1.218,1.218,2.613,2.146,4.153,2.759c1.541,0.608,3.133,0.92,4.735,0.92c1.614,0,3.212-0.313,4.752-0.929
		c1.543-0.62,2.937-1.544,4.143-2.749l5.132-5.132L31.4,24.062z"/>
	<path style="fill:#CCCCCC;" d="M35.729,19.732L31.4,24.062l5.061,5.062l4.33-4.33L35.729,19.732z"/>
	<path style="fill:#CCCCCC;" d="M18.679,11.343l5.046,5.045l4.329-4.331L23.01,7.011L18.679,11.343z"/>
</g>
<g id="Layer_1">
</g>
</svg>
