<?xml version="1.0" encoding="iso-8859-1"?>
<!-- Generator: Adobe Illustrator 15.0.0, SVG Export Plug-In . SVG Version: 6.00 Build 0)  -->
<!DOCTYPE svg PUBLIC "-//W3C//DTD SVG 1.1//EN" "http://www.w3.org/Graphics/SVG/1.1/DTD/svg11.dtd">
<svg version="1.1" xmlns="http://www.w3.org/2000/svg" xmlns:xlink="http://www.w3.org/1999/xlink" x="0px" y="0px" width="48px"
	 height="48px" viewBox="0 0 48 48" style="enable-background:new 0 0 48 48;" xml:space="preserve">
<g id="Maintenance">
	<path style="fill:#CCCCCC;" d="M42.089,0H24H5.91C2.646,0,0,2.646,0,5.91V24v18.089C0,45.354,2.646,48,5.91,48H24h18.089
		C45.354,48,48,45.354,48,42.089V24V5.91C48,2.646,45.354,0,42.089,0z"/>
	<polygon style="fill:#FFFFFF;" points="38.907,7.029 35.254,9.221 34.524,11.411 25.76,20.176 27.951,22.367 36.716,13.603 
		38.906,12.872 41.098,9.221 	"/>
	
		<rect x="19.09" y="21.731" transform="matrix(0.7071 0.7071 -0.7071 0.7071 24.5266 -8.6499)" style="fill:#B53937;" width="7.229" height="7.101"/>
	<path style="fill:#E64C3B;" d="M16.375,39.305c0.008-0.008,0.016-0.012,0.023-0.018l8.743-8.743
		c0.885-0.886,0.885-2.323-0.001-3.209l-4.366-4.365c-0.887-0.888-2.323-0.886-3.209,0l-8.742,8.741
		c-0.013,0.014-0.022,0.03-0.036,0.045c-0.026,0.024-0.053,0.044-0.08,0.07c-2.093,2.094-2.092,5.485,0,7.579
		c2.092,2.092,5.485,2.093,7.578,0C16.319,39.372,16.343,39.34,16.375,39.305z"/>
	<path style="fill:#E64C3B;" d="M29.522,22.952l-4.366-4.365c-0.887-0.887-2.323-0.886-3.208,0c-0.886,0.886-0.887,2.321,0,3.208
		l4.366,4.366c0.886,0.886,2.323,0.887,3.21,0C30.408,25.275,30.408,23.839,29.522,22.952z"/>
	<path style="fill:#F1694A;" d="M17.864,25.011l-0.964,0.965l-0.187,0.188l0,0l-1.017,1.019l-5.443,5.443
		c-0.438,0.438-0.438,1.147,0.001,1.586c0.438,0.438,1.149,0.438,1.586,0.002l5.771-5.774l1.004-1.003l0,0l-0.458,0.457l1.295-1.295
		c0.438-0.438,0.438-1.148,0-1.588C19.013,24.571,18.303,24.571,17.864,25.011z"/>
</g>
<g id="Layer_1">
</g>
</svg>
