<?xml version="1.0" encoding="iso-8859-1"?>
<!-- Generator: Adobe Illustrator 15.0.0, SVG Export Plug-In . SVG Version: 6.00 Build 0)  -->
<!DOCTYPE svg PUBLIC "-//W3C//DTD SVG 1.1//EN" "http://www.w3.org/Graphics/SVG/1.1/DTD/svg11.dtd">
<svg version="1.1" xmlns="http://www.w3.org/2000/svg" xmlns:xlink="http://www.w3.org/1999/xlink" x="0px" y="0px" width="48px"
	 height="48px" viewBox="0 0 48 48" style="enable-background:new 0 0 48 48;" xml:space="preserve">
<g id="Male_User">
	<path style="fill-rule:evenodd;clip-rule:evenodd;fill:#3B97D2;" d="M48,42.09c0,3.264-2.646,5.91-5.91,5.91H5.911
		C2.647,48,0,45.354,0,42.09V5.911C0,2.646,2.647,0,5.911,0H42.09C45.354,0,48,2.646,48,5.911V42.09z"/>
	<path style="fill:#E8D0B8;" d="M9,25.768c0,0.001,0,0.002,0,0.003c2-1.607,4.344-4.177,5.729-7.393
		c0.762-1.768,1.222-3.553,1.429-5.264c2.125,2.283,7.392,3.899,13.57,3.899c3.199,0,6.151-0.435,8.554-1.169
		c0.814,1.58,1.382,3.32,1.642,5.18c1.244,8.876-4.943,17.083-13.82,18.326c-8.531,1.195-16.436-4.472-18.145-12.793
		c0.322-0.239,0.677-0.497,1-0.776C8.962,25.775,9,25.771,9,25.768z"/>
	<path style="fill:#1C272B;" d="M21.596,7.203c7.017-0.984,13.611,2.679,16.681,8.64c-2.404,0.735-5.357,1.169-8.555,1.169
		c-6.178,0-11.454-1.617-13.58-3.899l0,0l0,0l0,0c-0.207,1.711-0.653,3.497-1.415,5.264C13.344,21.594,11,24.163,9,25.771
		c0-0.001,0-0.002,0-0.003c0,0.004-0.039,0.008-0.043,0.012c-0.322,0.279-0.663,0.537-0.986,0.776
		c-0.068-0.339-0.14-0.681-0.189-1.026C6.538,16.651,12.719,8.447,21.596,7.203z"/>
	<path style="fill:#231F20;" d="M27.273,31.797c0.924-0.123,1.855-0.168,2.764-0.393c0.15-0.037,0.338-0.092,0.469-0.176
		c0.016-0.008,0.023-0.016,0.033-0.021c0.006-0.05,0.021-0.138,0.021-0.142c0.029-0.452-0.143-0.967-0.244-1.402
		c-0.312-1.346-0.482-2.727-0.752-4.083c-0.334-1.686-0.686-3.369-0.932-5.071c-0.121-0.859,1.211-1.046,1.334-0.187
		c0.264,1.842,0.654,3.661,1.014,5.485c0.281,1.434,0.52,2.869,0.809,4.299c0.1,0.495,0.199,1.078,0.025,1.567
		c-0.168,0.478-0.621,0.745-1.074,0.913c-1.045,0.382-2.188,0.397-3.281,0.542C26.6,33.244,26.41,31.911,27.273,31.797z"/>
</g>
<g id="Layer_1">
</g>
</svg>
