<?xml version="1.0" encoding="iso-8859-1"?>
<!-- Generator: Adobe Illustrator 15.0.0, SVG Export Plug-In . SVG Version: 6.00 Build 0)  -->
<!DOCTYPE svg PUBLIC "-//W3C//DTD SVG 1.1//EN" "http://www.w3.org/Graphics/SVG/1.1/DTD/svg11.dtd">
<svg version="1.1" xmlns="http://www.w3.org/2000/svg" xmlns:xlink="http://www.w3.org/1999/xlink" x="0px" y="0px" width="48px"
	 height="48px" viewBox="0 0 48 48" style="enable-background:new 0 0 48 48;" xml:space="preserve">
<g id="Mouse">
	<path style="fill-rule:evenodd;clip-rule:evenodd;fill:#4EB96F;" d="M48,42.09c0,3.264-2.646,5.91-5.91,5.91H5.911
		C2.646,48,0,45.354,0,42.09V5.911C0,2.646,2.646,0,5.911,0H42.09C45.354,0,48,2.646,48,5.911V42.09z"/>
	<path style="fill:#FFFFFF;" d="M35.961,26.262c3.835-3.834,3.835-10.049,0-13.884c-3.834-3.835-10.052-3.836-13.886-0.002
		c-1.952,1.953-8,8.001-9.953,9.953c-3.834,3.834-3.834,10.051,0.001,13.886c3.834,3.835,10.051,3.835,13.885,0
		C27.961,34.264,34.01,28.215,35.961,26.262z"/>
	<circle style="fill:#CCCCCC;" cx="29.712" cy="18.626" r="2.291"/>
</g>
<g id="Layer_1">
</g>
</svg>
