<?xml version="1.0" encoding="iso-8859-1"?>
<!-- Generator: Adobe Illustrator 15.0.0, SVG Export Plug-In . SVG Version: 6.00 Build 0)  -->
<!DOCTYPE svg PUBLIC "-//W3C//DTD SVG 1.1//EN" "http://www.w3.org/Graphics/SVG/1.1/DTD/svg11.dtd">
<svg version="1.1" xmlns="http://www.w3.org/2000/svg" xmlns:xlink="http://www.w3.org/1999/xlink" x="0px" y="0px" width="48px"
	 height="48px" viewBox="0 0 48 48" style="enable-background:new 0 0 48 48;" xml:space="preserve">
<g id="Music_note">
	<path style="fill-rule:evenodd;clip-rule:evenodd;fill:#E64C3B;" d="M48,42.09c0,3.264-2.646,5.91-5.91,5.91H5.911
		C2.646,48,0,45.354,0,42.09V5.911C0,2.646,2.646,0,5.911,0H42.09C45.354,0,48,2.646,48,5.911V42.09z"/>
	<path style="fill:#1C272B;" d="M18.199,17.308v13.136c-0.876-0.356-1.922-0.479-3.01-0.263c-2.466,0.494-4.149,2.477-3.758,4.43
		c0.39,1.953,2.706,3.137,5.174,2.643c2.222-0.445,3.794-2.101,3.798-3.854h0.015V22.003l9.988-3.841v8.634
		c-0.877-0.357-1.923-0.479-3.01-0.262c-2.467,0.493-4.15,2.476-3.759,4.428c0.391,1.953,2.706,3.137,5.174,2.643
		c2.087-0.417,3.599-1.904,3.78-3.535h0.033V11.76L18.199,17.308z"/>
</g>
<g id="Layer_1">
</g>
</svg>
