<?xml version="1.0" encoding="iso-8859-1"?>
<!-- Generator: Adobe Illustrator 15.0.0, SVG Export Plug-In . SVG Version: 6.00 Build 0)  -->
<!DOCTYPE svg PUBLIC "-//W3C//DTD SVG 1.1//EN" "http://www.w3.org/Graphics/SVG/1.1/DTD/svg11.dtd">
<svg version="1.1" xmlns="http://www.w3.org/2000/svg" xmlns:xlink="http://www.w3.org/1999/xlink" x="0px" y="0px" width="48px"
	 height="48px" viewBox="0 0 48 48" style="enable-background:new 0 0 48 48;" xml:space="preserve">
<g id="Music_note_2">
	<path style="fill-rule:evenodd;clip-rule:evenodd;fill:#F19B1F;" d="M48,42.09c0,3.264-2.646,5.91-5.91,5.91H5.911
		C2.646,48,0,45.354,0,42.09V5.911C0,2.646,2.646,0,5.911,0H42.09C45.354,0,48,2.646,48,5.911V42.09z"/>
	<path style="fill:#1C272B;" d="M25.902,13.021H25.73h-1.736h-0.483v16.037c-0.876-0.356-1.923-0.479-3.01-0.263
		c-2.466,0.495-4.149,2.477-3.758,4.43c0.39,1.953,2.706,3.137,5.173,2.643c2.086-0.418,3.597-1.904,3.781-3.535h0.033V19.158
		c3.246,0.515,3.725,3.078,3.329,4.15c-0.149,0.408,0.114,0.715,0.618,0C33.266,18.193,25.485,16.397,25.902,13.021z"/>
</g>
<g id="Layer_1">
</g>
</svg>
