<?xml version="1.0" encoding="iso-8859-1"?>
<!-- Generator: Adobe Illustrator 15.0.0, SVG Export Plug-In . SVG Version: 6.00 Build 0)  -->
<!DOCTYPE svg PUBLIC "-//W3C//DTD SVG 1.1//EN" "http://www.w3.org/Graphics/SVG/1.1/DTD/svg11.dtd">
<svg version="1.1" xmlns="http://www.w3.org/2000/svg" xmlns:xlink="http://www.w3.org/1999/xlink" x="0px" y="0px" width="48px"
	 height="48px" viewBox="0 0 48 48" style="enable-background:new 0 0 48 48;" xml:space="preserve">
<g id="Navigation">
	<path style="fill-rule:evenodd;clip-rule:evenodd;fill:#F19B1F;" d="M48,42.089C48,45.354,45.354,48,42.089,48H5.911
		C2.646,48,0,45.354,0,42.089V5.91C0,2.646,2.646,0,5.911,0h36.178C45.354,0,48,2.646,48,5.91V42.089z"/>
	<g>
		<g>
			<path style="fill:#FFFFFF;" d="M40.619,24.084l-10.231-3.186l3.143-6.795l-6.369,3.578L23.964,7.457l-3.181,10.229l-6.8-3.136
				l3.578,6.359L7.341,24.114l10.229,3.183l-3.565,6.369l6.79-3.151l3.199,10.223l3.179-10.227l6.803,3.137l-3.578-6.362
				L40.619,24.084z M23.978,26.054c-1.075-0.003-1.952-0.874-1.952-1.952c-0.003-1.084,0.871-1.956,1.954-1.957
				c1.077-0.001,1.953,0.871,1.951,1.953C25.933,25.178,25.062,26.051,23.978,26.054z"/>
		</g>
	</g>
</g>
<g id="Layer_1">
</g>
</svg>
