<?xml version="1.0" encoding="iso-8859-1"?>
<!-- Generator: Adobe Illustrator 15.0.0, SVG Export Plug-In . SVG Version: 6.00 Build 0)  -->
<!DOCTYPE svg PUBLIC "-//W3C//DTD SVG 1.1//EN" "http://www.w3.org/Graphics/SVG/1.1/DTD/svg11.dtd">
<svg version="1.1" xmlns="http://www.w3.org/2000/svg" xmlns:xlink="http://www.w3.org/1999/xlink" x="0px" y="0px" width="48px"
	 height="48px" viewBox="0 0 48 48" style="enable-background:new 0 0 48 48;" xml:space="preserve">
<g id="Notes">
	<path style="fill-rule:evenodd;clip-rule:evenodd;fill:#945BA4;" d="M48,42.09c0,3.264-2.646,5.91-5.911,5.91H5.911
		C2.646,48,0,45.354,0,42.09V5.911C0,2.646,2.646,0,5.911,0h36.178C45.354,0,48,2.646,48,5.911V42.09z"/>
	<g>
		<path style="fill:#FDE466;" d="M38.973,10.223H9.92c-0.707,0-1.283,0.577-1.283,1.284v25.667c0,0.705,0.576,1.283,1.283,1.283
			h29.053c0.705,0,1.283-0.578,1.283-1.283V11.507C40.256,10.8,39.678,10.223,38.973,10.223z"/>
	</g>
	<path style="fill:#222F35;" d="M40.256,17.589v-6.082c0-0.707-0.578-1.284-1.283-1.284H9.92c-0.707,0-1.283,0.577-1.283,1.284
		v6.082H40.256z"/>
	<circle style="fill:#FFFFFF;" cx="12.946" cy="14.27" r="1.438"/>
	<circle style="fill:#FFFFFF;" cx="35.946" cy="14.27" r="1.438"/>
	<rect x="8.637" y="22.041" style="fill:#E4894A;" width="31.619" height="0.5"/>
	<rect x="8.637" y="27.428" style="fill:#E4894A;" width="31.619" height="0.5"/>
	<rect x="8.637" y="32.805" style="fill:#E4894A;" width="31.619" height="0.5"/>
</g>
<g id="Layer_1">
</g>
</svg>
