<?xml version="1.0" encoding="iso-8859-1"?>
<!-- Generator: Adobe Illustrator 15.0.0, SVG Export Plug-In . SVG Version: 6.00 Build 0)  -->
<!DOCTYPE svg PUBLIC "-//W3C//DTD SVG 1.1//EN" "http://www.w3.org/Graphics/SVG/1.1/DTD/svg11.dtd">
<svg version="1.1" xmlns="http://www.w3.org/2000/svg" xmlns:xlink="http://www.w3.org/1999/xlink" x="0px" y="0px" width="48px"
	 height="48px" viewBox="0 0 48 48" style="enable-background:new 0 0 48 48;" xml:space="preserve">
<g id="Notebook">
	<path style="fill-rule:evenodd;clip-rule:evenodd;fill:#F2F3F3;" d="M48,42.09c0,3.264-2.646,5.91-5.91,5.91H5.911
		C2.646,48,0,45.354,0,42.09V5.911C0,2.646,2.646,0,5.911,0H42.09C45.354,0,48,2.646,48,5.911V42.09z"/>
	<polygon style="fill:#3C404A;" points="16.032,38.183 16.032,42.426 17.218,41.819 18.405,42.426 18.405,38.183 	"/>
	<path style="fill:#131B1D;" d="M34.197,9.25H14.187v28.933h20.011c0.826,0,1.497-0.671,1.497-1.497V10.748
		C35.694,9.921,35.023,9.25,34.197,9.25z"/>
	<rect x="14.187" y="18.724" style="fill:#E64C3B;" width="21.508" height="9.735"/>
	<rect x="29.568" y="9.25" style="fill:#EFC319;" width="2.372" height="28.933"/>
</g>
<g id="Layer_1">
</g>
</svg>
