<?xml version="1.0" encoding="iso-8859-1"?>
<!-- Generator: Adobe Illustrator 15.0.0, SVG Export Plug-In . SVG Version: 6.00 Build 0)  -->
<!DOCTYPE svg PUBLIC "-//W3C//DTD SVG 1.1//EN" "http://www.w3.org/Graphics/SVG/1.1/DTD/svg11.dtd">
<svg version="1.1" xmlns="http://www.w3.org/2000/svg" xmlns:xlink="http://www.w3.org/1999/xlink" x="0px" y="0px"
	 width="47.999px" height="48px" viewBox="0 0 47.999 48" style="enable-background:new 0 0 47.999 48;" xml:space="preserve">
<g id="Paint_Roller">
	<path style="fill-rule:evenodd;clip-rule:evenodd;fill:#E64C3B;" d="M47.999,42.09c0,3.264-2.646,5.91-5.91,5.91H5.91
		C2.646,48,0,45.354,0,42.09V5.911C0,2.646,2.646,0,5.91,0h36.179c3.265,0,5.91,2.646,5.91,5.911V42.09z"/>
	<path style="fill:#1C272B;" d="M33.287,29.352l4.228-4.227c0.858-0.86,0.857-2.25,0-3.107L21.98,6.484
		c-0.858-0.857-2.247-0.859-3.106,0l-4.227,4.227c-0.857,0.857-0.857,2.248,0,3.106l15.534,15.535
		C31.039,30.209,32.43,30.209,33.287,29.352z"/>
	<path style="fill:#28373D;" d="M35.538,22.307l-0.934-0.934l-3.011-3.01l0,0l-2.399-2.399l-7.391-7.391
		c-0.423-0.423-1.111-0.422-1.535,0.002C19.844,9,19.843,9.689,20.267,10.112l7.709,7.708l2.387,2.387l0,0l2.386,2.385l1.253,1.254
		c0.425,0.423,1.113,0.424,1.538-0.001S35.962,22.732,35.538,22.307z"/>
	
		<rect x="34.505" y="26.84" transform="matrix(0.7071 -0.7071 0.7071 0.7071 -9.2025 33.8827)" style="fill:#ADADAD;" width="3.588" height="2.42"/>
	<polygon style="fill:#CCCCCC;" points="38.423,27.637 35.886,30.174 37.173,31.461 32.331,36.303 21.032,25.004 17.692,28.344 
		15.997,30.039 18.532,32.576 20.229,30.879 21.031,30.076 32.331,41.377 42.246,31.461 	"/>
	<path style="fill:#131B1D;" d="M18.874,31.824l-2.127-2.127c-0.432-0.432-1.131-0.432-1.562,0l-7.815,7.816
		c-0.433,0.432-0.433,1.131-0.001,1.562l2.127,2.127c0.432,0.432,1.131,0.432,1.563,0l7.815-7.816
		C19.306,32.955,19.306,32.256,18.874,31.824z"/>
</g>
<g id="Layer_1">
</g>
</svg>
