<?xml version="1.0" encoding="iso-8859-1"?>
<!-- Generator: Adobe Illustrator 15.0.0, SVG Export Plug-In . SVG Version: 6.00 Build 0)  -->
<!DOCTYPE svg PUBLIC "-//W3C//DTD SVG 1.1//EN" "http://www.w3.org/Graphics/SVG/1.1/DTD/svg11.dtd">
<svg version="1.1" xmlns="http://www.w3.org/2000/svg" xmlns:xlink="http://www.w3.org/1999/xlink" x="0px" y="0px" width="48px"
	 height="48px" viewBox="0 0 48 48" style="enable-background:new 0 0 48 48;" xml:space="preserve">
<g id="Paint_Brush">
	<path style="fill-rule:evenodd;clip-rule:evenodd;fill:#E64C3B;" d="M48,42.09c0,3.264-2.646,5.91-5.91,5.91H5.911
		C2.647,48,0,45.354,0,42.09V5.911C0,2.646,2.647,0,5.911,0H42.09C45.354,0,48,2.646,48,5.911V42.09z"/>
	<path style="fill:#1C272B;" d="M26.656,7.347c0.025-0.835,1.785,3.894,1.785,3.894l3.777,1.67l0.83,4.457l3.787,0.159l1.576,3.47
		l3.576,1.683c-2.086,0.183-14.584,10.797-14.584,10.797L14.912,20.983C14.912,20.983,26.614,8.607,26.656,7.347z"/>
	<path style="fill:#F19B1F;" d="M17.149,37.514c0.579-0.58,3.88-6.883,3.88-6.883l5.35,5.351l2.333-2.333l-14.04-14.043
		l-2.334,2.334l5.348,5.348c0,0-6.3,3.305-6.879,3.882c-1.752,1.752-1.752,4.593,0.002,6.346
		C12.559,39.265,15.398,39.265,17.149,37.514z M12.389,35.935c-0.885-0.885-0.885-2.323-0.001-3.206
		c0.881-0.881,2.319-0.881,3.203,0.004c0.882,0.88,0.88,2.315-0.002,3.197C14.705,36.814,13.27,36.814,12.389,35.935z"/>
	<g>
		<path style="fill:#131B1D;" d="M27.928,33.026L15.387,20.484c0.426-0.454,1.115-1.185,1.961-2.094l12.777,12.78
			C29.173,31.969,28.404,32.623,27.928,33.026z"/>
	</g>
</g>
<g id="Layer_1">
</g>
</svg>
