<?xml version="1.0" encoding="iso-8859-1"?>
<!-- Generator: Adobe Illustrator 15.0.0, SVG Export Plug-In . SVG Version: 6.00 Build 0)  -->
<!DOCTYPE svg PUBLIC "-//W3C//DTD SVG 1.1//EN" "http://www.w3.org/Graphics/SVG/1.1/DTD/svg11.dtd">
<svg version="1.1" xmlns="http://www.w3.org/2000/svg" xmlns:xlink="http://www.w3.org/1999/xlink" x="0px" y="0px" width="48px"
	 height="48px" viewBox="0 0 48 48" style="enable-background:new 0 0 48 48;" xml:space="preserve">
<g id="Passbook">
	<path style="fill-rule:evenodd;clip-rule:evenodd;fill:#603A70;" d="M48,42.089C48,45.354,45.354,48,42.089,48H5.911
		C2.646,48,0,45.354,0,42.089V5.91C0,2.646,2.646,0,5.911,0h36.178C45.354,0,48,2.646,48,5.91V42.089z"/>
	<path style="fill-rule:evenodd;clip-rule:evenodd;fill:#9DBEC6;" d="M23.354,29.969l2.554-17.895l-10.455,0.878
		c-0.781,0.063-1.362,0.753-1.292,1.533l1.676,19.988L23.354,29.969z"/>
	<path style="fill:#FFFFFF;" d="M42.428,11.715L27.689,9.604c-0.768-0.104-1.49,0.436-1.602,1.205l-2.734,19.16l7.598-4.55
		c-1.095-0.39-1.856-0.936-1.769-1.559c0.28-1.994,2.361-3.22,4.669-2.895c1.026,0.145,1.923,0.57,2.578,1.174l6.486-3.883
		l0.705-4.938C43.735,12.546,43.195,11.822,42.428,11.715z M36.541,18.101c-0.174,1.24-1.319,2.104-2.558,1.929
		c-1.239-0.174-2.101-1.318-1.927-2.559c0.175-1.237,1.319-2.101,2.559-1.927C35.853,15.718,36.716,16.864,36.541,18.101z"/>
	<path style="fill:#3C404A;" d="M29.183,23.86c-0.088,0.623,0.674,1.169,1.769,1.559l5.479-3.279
		c-0.655-0.604-1.552-1.029-2.578-1.174C31.544,20.641,29.463,21.866,29.183,23.86z"/>
	<circle style="fill:#3C404A;" cx="34.299" cy="17.787" r="2.265"/>
	<path style="fill:#F2F3F3;" d="M6.531,18.757c-0.737,0.262-1.125,1.07-0.87,1.806l5.841,16.501l2.059-1.23L7.204,18.517
		L6.531,18.757z"/>
	<polygon style="fill:#F2F3F3;" points="15.836,34.474 14.289,16.008 7.957,18.25 14.247,35.424 	"/>
	<polygon style="fill:#945BA4;" points="7.957,18.25 7.204,18.517 13.561,35.833 14.247,35.424 	"/>
	<g>
		<g>
			<path style="fill-rule:evenodd;clip-rule:evenodd;fill:#E64C3B;" d="M11.568,24.605c0.336,0.917,1.405,1.293,2.217,1.545
				c0.841,0.262,1.136,0.53,1.42,0.662c0.132-0.283,0.195-0.672,0.657-1.423c0.444-0.722,1.034-1.681,0.698-2.601
				c-0.497-1.359-2.351-1.269-2.725,0.283C12.548,22.13,11.076,23.257,11.568,24.605z"/>
		</g>
	</g>
	<g>
		<path style="fill:#9DBEC6;" d="M16.994,25.713c-0.062,0.071-0.123,0.143-0.183,0.216C16.871,25.855,16.932,25.784,16.994,25.713z"
			/>
		<path style="fill:#4CC0E5;" d="M19.685,23.33c1.413-0.994,3.101-1.886,4.989-2.614l1.233-8.642l-10.455,0.878
			c-0.781,0.063-1.362,0.753-1.292,1.533l0.644,7.676c1.401,0.202,2.884,0.524,4.354,0.981
			C19.353,23.202,19.499,23.268,19.685,23.33z"/>
		<path style="fill:#9DBEC6;" d="M16,28.46v0.011c1-0.83,0.76-1.661,1.415-2.468C16.764,26.8,17,27.624,16,28.46z"/>
		<path style="fill:#249351;" d="M16.812,25.929c0.06-0.073,0.12-0.145,0.183-0.216c0.722-0.831,1.629-1.636,2.69-2.383
			c-0.186-0.062-0.332-0.128-0.526-0.188c-1.471-0.457-2.953-0.779-4.354-0.981l0.529,6.299c0.28-0.836,0.764-1.66,1.416-2.457
			C16.769,25.977,16.79,25.953,16.812,25.929z"/>
		<path style="fill:#4EB96F;" d="M19.685,23.33c0.007,0.003,0.013,0.005,0.021,0.009c-1.071,0.747-1.983,1.545-2.712,2.374
			c-0.062,0.071-0.123,0.143-0.183,0.216c-0.021,0.024-0.043,0.048-0.062,0.074c-0.655,0.807-1.136,1.638-1.416,2.468l0.06,0.711
			l0.443,5.292l7.518-4.505l0.098-0.692l1.223-8.561C22.785,21.444,21.098,22.336,19.685,23.33z"/>
		<path style="fill:#8CB156;" d="M16.994,25.713c0.729-0.829,1.641-1.627,2.712-2.374c-0.009-0.004-0.015-0.006-0.021-0.009
			C18.623,24.077,17.716,24.882,16.994,25.713z"/>
		<path style="fill:#8CB156;" d="M16.812,25.929c-0.021,0.024-0.043,0.048-0.062,0.074C16.769,25.977,16.79,25.953,16.812,25.929z"
			/>
	</g>
	<circle style="fill:#F5E886;" cx="22.487" cy="16.733" r="1.932"/>
</g>
<g id="Layer_1">
</g>
</svg>
