<?xml version="1.0" encoding="iso-8859-1"?>
<!-- Generator: Adobe Illustrator 15.0.0, SVG Export Plug-In . SVG Version: 6.00 Build 0)  -->
<!DOCTYPE svg PUBLIC "-//W3C//DTD SVG 1.1//EN" "http://www.w3.org/Graphics/SVG/1.1/DTD/svg11.dtd">
<svg version="1.1" xmlns="http://www.w3.org/2000/svg" xmlns:xlink="http://www.w3.org/1999/xlink" x="0px" y="0px" width="48px"
	 height="48px" viewBox="0 0 48 48" style="enable-background:new 0 0 48 48;" xml:space="preserve">
<g id="Patterns">
	<path style="fill-rule:evenodd;clip-rule:evenodd;fill:#FFFFFF;" d="M48,42.089C48,45.354,45.354,48,42.09,48H5.911
		C2.646,48,0,45.354,0,42.089V5.91C0,2.646,2.646,0,5.911,0H42.09C45.354,0,48,2.646,48,5.91V42.089z"/>
	<polygon style="fill:#F19B1F;" points="36.129,18.959 38.814,17.4 38.814,20.518 38.814,20.518 38.814,15.524 36.764,14.333 
		32.459,16.831 	"/>
	<polygon style="fill:#F19B1F;" points="24.125,11.994 28.156,14.333 32.459,11.836 28.428,9.497 	"/>
	<polygon style="fill:#F19B1F;" points="24.125,16.672 20.092,14.333 15.79,16.831 19.821,19.17 	"/>
	<polygon style="fill:#F19B1F;" points="36.129,28.635 38.814,27.075 38.814,30.192 38.814,30.192 38.814,25.197 36.4,23.797 
		32.098,26.294 	"/>
	<polygon style="fill:#F19B1F;" points="24.125,21.666 27.793,23.797 32.098,21.299 28.428,19.17 	"/>
	<polygon style="fill:#F19B1F;" points="24.125,25.927 20.456,23.797 16.152,26.294 19.821,28.424 	"/>
	<polygon style="fill:#F19B1F;" points="12.12,18.959 9.435,20.518 9.435,22.396 11.849,23.797 16.152,21.299 	"/>
	<polygon style="fill:#F19B1F;" points="24.125,30.92 28.156,33.26 32.459,30.762 28.428,28.424 	"/>
	<polygon style="fill:#F19B1F;" points="20.092,33.26 15.79,35.758 19.821,38.097 24.125,35.6 	"/>
	<polygon style="fill:#F19B1F;" points="12.12,28.635 9.435,30.192 9.435,32.069 11.485,33.26 15.79,30.762 	"/>
	<polygon style="fill:#FFC91B;" points="24.125,7 19.821,9.497 15.79,11.836 11.485,14.333 9.435,15.524 9.435,20.518 9.435,20.518 
		12.12,18.959 15.79,16.831 20.092,14.333 24.125,11.994 28.428,9.497 	"/>
	<polygon style="fill:#FFC91B;" points="32.459,11.836 28.156,14.333 24.125,16.672 19.821,19.17 16.152,21.299 11.849,23.797 
		9.435,25.197 9.435,30.192 9.435,30.192 12.12,28.635 16.152,26.294 20.456,23.797 24.125,21.666 28.428,19.17 32.459,16.831 
		36.764,14.333 	"/>
	<polygon style="fill:#FFC91B;" points="32.098,21.299 27.793,23.797 24.125,25.927 19.821,28.424 15.79,30.762 11.485,33.26 
		15.79,35.758 20.092,33.26 24.125,30.92 28.428,28.424 32.098,26.294 36.4,23.797 38.814,22.396 38.814,20.518 38.814,17.4 
		36.129,18.959 	"/>
	<polygon style="fill:#FFC91B;" points="32.459,30.762 28.156,33.26 24.125,35.6 19.821,38.097 24.125,40.593 28.428,38.097 
		32.459,35.758 36.764,33.26 38.814,32.069 38.814,30.192 38.814,27.075 36.129,28.635 	"/>
</g>
<g id="Layer_1">
</g>
</svg>
