<?xml version="1.0" encoding="iso-8859-1"?>
<!-- Generator: Adobe Illustrator 15.0.0, SVG Export Plug-In . SVG Version: 6.00 Build 0)  -->
<!DOCTYPE svg PUBLIC "-//W3C//DTD SVG 1.1//EN" "http://www.w3.org/Graphics/SVG/1.1/DTD/svg11.dtd">
<svg version="1.1" xmlns="http://www.w3.org/2000/svg" xmlns:xlink="http://www.w3.org/1999/xlink" x="0px" y="0px"
	 width="47.999px" height="48px" viewBox="0 0 47.999 48" style="enable-background:new 0 0 47.999 48;" xml:space="preserve">
<g id="PDF_File">
	<path style="fill-rule:evenodd;clip-rule:evenodd;fill:#3B97D2;" d="M47.999,42.089c0,3.265-2.646,5.911-5.91,5.911H5.91
		C2.646,48,0,45.354,0,42.089V5.91C0,2.646,2.646,0,5.91,0h36.179c3.265,0,5.91,2.646,5.91,5.91V42.089z"/>
	<path style="fill:#945BA4;" d="M13.133,7.27c-0.558,0-1.012,0.455-1.012,1.013V38.07c0,0.556,0.454,1.012,1.012,1.012h23.169
		c0.557,0,1.012-0.456,1.012-1.012V14.934L29.65,7.27H13.133z"/>
	<path style="fill:#603A70;" d="M30.662,14.934h6.651L29.65,7.27v6.651C29.65,14.479,30.105,14.934,30.662,14.934z"/>
	<path style="fill:#FFFFFF;" d="M16.155,26.084h0.672v0.848h-0.672V26.084z"/>
	<path style="fill:#FFFFFF;" d="M20.715,21.22c0.256,0,0.487,0.036,0.695,0.108c0.208,0.071,0.387,0.179,0.536,0.319
		c0.149,0.142,0.265,0.313,0.345,0.517c0.079,0.202,0.119,0.432,0.119,0.688s-0.04,0.485-0.119,0.688
		c-0.08,0.202-0.195,0.374-0.345,0.516s-0.328,0.248-0.536,0.32c-0.208,0.071-0.439,0.107-0.695,0.107h-1.992v2.448h-0.544V21.22
		H20.715z M20.595,24.02c0.379,0,0.686-0.096,0.92-0.288c0.234-0.191,0.352-0.485,0.352-0.88s-0.117-0.688-0.352-0.88
		s-0.541-0.288-0.92-0.288h-1.872v2.336H20.595z"/>
	<path style="fill:#FFFFFF;" d="M25.202,21.22c0.869,0.021,1.524,0.266,1.964,0.731c0.44,0.467,0.66,1.175,0.66,2.124
		c0,0.95-0.22,1.658-0.66,2.124c-0.439,0.467-1.095,0.711-1.964,0.732h-1.976V21.22H25.202z M24.931,26.468
		c0.41,0,0.764-0.044,1.06-0.132s0.54-0.229,0.732-0.42c0.191-0.192,0.333-0.44,0.424-0.744c0.091-0.305,0.136-0.67,0.136-1.097
		c0-0.426-0.045-0.792-0.136-1.096s-0.232-0.552-0.424-0.744c-0.192-0.191-0.437-0.332-0.732-0.42s-0.649-0.132-1.06-0.132h-1.16
		v4.784H24.931z"/>
	<path style="fill:#FFFFFF;" d="M32.45,21.22v0.464h-3.08v2.064h2.736v0.464H29.37v2.72h-0.544V21.22H32.45z"/>
</g>
<g id="Layer_1">
</g>
</svg>
