<?xml version="1.0" encoding="iso-8859-1"?>
<!-- Generator: Adobe Illustrator 15.0.0, SVG Export Plug-In . SVG Version: 6.00 Build 0)  -->
<!DOCTYPE svg PUBLIC "-//W3C//DTD SVG 1.1//EN" "http://www.w3.org/Graphics/SVG/1.1/DTD/svg11.dtd">
<svg version="1.1" xmlns="http://www.w3.org/2000/svg" xmlns:xlink="http://www.w3.org/1999/xlink" x="0px" y="0px" width="48px"
	 height="48px" viewBox="0 0 48 48" style="enable-background:new 0 0 48 48;" xml:space="preserve">
<g id="Photoshop_File">
	<path style="fill-rule:evenodd;clip-rule:evenodd;fill:#945BA4;" d="M48,42.089C48,45.354,45.354,48,42.09,48H5.911
		C2.646,48,0,45.354,0,42.089V5.91C0,2.646,2.646,0,5.911,0H42.09C45.354,0,48,2.646,48,5.91V42.089z"/>
	<path style="fill:#3B97D2;" d="M13.025,7.27c-0.558,0-1.012,0.455-1.012,1.013V38.07c0,0.556,0.455,1.012,1.012,1.012h23.168
		c0.557,0,1.012-0.456,1.012-1.012V14.934L29.541,7.27H13.025z"/>
	<path style="fill:#297EB7;" d="M30.555,14.934h6.65L29.541,7.27v6.651C29.541,14.479,29.998,14.934,30.555,14.934z"/>
	<path style="fill:#FFFFFF;" d="M15.777,26.084h0.672v0.848h-0.672V26.084z"/>
	<path style="fill:#FFFFFF;" d="M20.337,21.22c0.256,0,0.488,0.036,0.696,0.108c0.208,0.071,0.387,0.179,0.536,0.319
		c0.149,0.142,0.264,0.313,0.344,0.517c0.08,0.202,0.12,0.432,0.12,0.688s-0.04,0.485-0.12,0.688
		c-0.08,0.202-0.195,0.374-0.344,0.516c-0.149,0.142-0.328,0.248-0.536,0.32c-0.208,0.071-0.44,0.107-0.696,0.107h-1.992v2.448
		h-0.544V21.22H20.337z M20.217,24.02c0.378,0,0.685-0.096,0.92-0.288c0.234-0.191,0.352-0.485,0.352-0.88s-0.118-0.688-0.352-0.88
		c-0.235-0.192-0.542-0.288-0.92-0.288h-1.872v2.336H20.217z"/>
	<path style="fill:#FFFFFF;" d="M23.289,25.788c0.096,0.197,0.228,0.354,0.396,0.472c0.168,0.117,0.367,0.201,0.596,0.252
		s0.475,0.076,0.736,0.076c0.149,0,0.312-0.021,0.488-0.064c0.176-0.042,0.34-0.11,0.491-0.204c0.152-0.093,0.279-0.213,0.381-0.359
		s0.152-0.324,0.152-0.532c0-0.16-0.037-0.299-0.108-0.416c-0.072-0.117-0.165-0.216-0.28-0.296s-0.241-0.146-0.38-0.196
		s-0.274-0.092-0.407-0.124l-1.273-0.312c-0.165-0.043-0.327-0.097-0.484-0.16c-0.157-0.064-0.294-0.149-0.412-0.256
		c-0.117-0.107-0.212-0.237-0.284-0.393c-0.072-0.154-0.108-0.344-0.108-0.567c0-0.139,0.026-0.302,0.08-0.488
		c0.054-0.187,0.153-0.362,0.3-0.528c0.146-0.165,0.348-0.305,0.604-0.42c0.256-0.114,0.584-0.172,0.984-0.172
		c0.282,0,0.552,0.037,0.808,0.112c0.256,0.074,0.48,0.187,0.672,0.336c0.192,0.149,0.346,0.335,0.461,0.556
		c0.114,0.222,0.172,0.479,0.172,0.772h-0.545c-0.01-0.219-0.059-0.409-0.147-0.572c-0.088-0.163-0.202-0.299-0.344-0.408
		s-0.304-0.191-0.488-0.248c-0.184-0.056-0.377-0.084-0.58-0.084c-0.187,0-0.367,0.021-0.54,0.061
		c-0.173,0.04-0.326,0.104-0.456,0.191c-0.131,0.088-0.236,0.204-0.316,0.349c-0.08,0.144-0.12,0.322-0.12,0.535
		c0,0.134,0.022,0.25,0.068,0.349s0.108,0.183,0.188,0.252s0.172,0.125,0.276,0.168s0.215,0.077,0.332,0.104l1.392,0.345
		c0.202,0.053,0.394,0.118,0.572,0.195c0.179,0.078,0.336,0.174,0.472,0.288c0.137,0.115,0.242,0.255,0.32,0.42
		c0.077,0.166,0.115,0.365,0.115,0.601c0,0.063-0.006,0.149-0.02,0.256s-0.045,0.22-0.096,0.34s-0.123,0.241-0.217,0.364
		c-0.093,0.122-0.221,0.233-0.383,0.332c-0.164,0.099-0.365,0.179-0.604,0.239c-0.24,0.062-0.528,0.093-0.864,0.093
		s-0.648-0.039-0.936-0.116c-0.288-0.077-0.533-0.196-0.736-0.356c-0.203-0.159-0.359-0.365-0.468-0.615
		c-0.109-0.251-0.156-0.553-0.14-0.904h0.544C23.147,25.345,23.193,25.591,23.289,25.788z"/>
	<path style="fill:#FFFFFF;" d="M30.016,21.22c0.869,0.021,1.524,0.266,1.965,0.731c0.439,0.467,0.659,1.175,0.659,2.124
		c0,0.95-0.22,1.658-0.659,2.124c-0.44,0.467-1.096,0.711-1.965,0.732H28.04V21.22H30.016z M29.744,26.468
		c0.41,0,0.764-0.044,1.06-0.132s0.54-0.229,0.731-0.42c0.193-0.192,0.334-0.44,0.425-0.744c0.091-0.305,0.136-0.67,0.136-1.097
		c0-0.426-0.045-0.792-0.136-1.096s-0.231-0.552-0.425-0.744c-0.191-0.191-0.436-0.332-0.731-0.42s-0.649-0.132-1.06-0.132h-1.16
		v4.784H29.744z"/>
</g>
<g id="Layer_1">
</g>
</svg>
