<?xml version="1.0" encoding="iso-8859-1"?>
<!-- Generator: Adobe Illustrator 15.0.0, SVG Export Plug-In . SVG Version: 6.00 Build 0)  -->
<!DOCTYPE svg PUBLIC "-//W3C//DTD SVG 1.1//EN" "http://www.w3.org/Graphics/SVG/1.1/DTD/svg11.dtd">
<svg version="1.1" xmlns="http://www.w3.org/2000/svg" xmlns:xlink="http://www.w3.org/1999/xlink" x="0px" y="0px"
	 width="47.999px" height="48px" viewBox="0 0 47.999 48" style="enable-background:new 0 0 47.999 48;" xml:space="preserve">
<g id="Photoshop">
	<path style="fill-rule:evenodd;clip-rule:evenodd;fill:#945BA4;" d="M47.999,42.089c0,3.265-2.646,5.911-5.91,5.911H5.91
		C2.646,48,0,45.354,0,42.089V5.91C0,2.646,2.646,0,5.91,0h36.179c3.265,0,5.91,2.646,5.91,5.91V42.089z"/>
	<path style="fill:#3B97D2;" d="M13.642,30.908V16.256h5.926c1.623,0,2.871,0.396,3.744,1.188c0.872,0.791,1.309,1.856,1.309,3.195
		s-0.437,2.402-1.31,3.19s-2.122,1.182-3.746,1.182h-4.387v5.897H13.642z M15.178,23.561h4.404c1.132,0,1.979-0.262,2.541-0.784
		c0.562-0.522,0.843-1.235,0.843-2.138s-0.283-1.617-0.849-2.143c-0.565-0.527-1.411-0.79-2.535-0.79h-4.404V23.561z"/>
	<path style="fill:#3B97D2;" d="M26.058,28.889l1.117-0.902c0.896,1.246,2.134,1.869,3.717,1.869c0.866,0,1.572-0.187,2.116-0.559
		s0.816-0.905,0.816-1.6c0-0.144-0.015-0.276-0.043-0.397c-0.028-0.122-0.062-0.229-0.103-0.322
		c-0.039-0.093-0.11-0.183-0.215-0.269c-0.104-0.086-0.193-0.159-0.269-0.22c-0.075-0.062-0.2-0.124-0.376-0.188
		s-0.323-0.118-0.442-0.16c-0.12-0.043-0.307-0.094-0.561-0.153s-0.463-0.108-0.626-0.146c-0.164-0.038-0.409-0.096-0.736-0.172
		c-0.495-0.116-0.903-0.212-1.227-0.287s-0.66-0.197-1.011-0.366c-0.351-0.168-0.634-0.357-0.849-0.568
		c-0.215-0.212-0.393-0.48-0.531-0.807c-0.141-0.325-0.21-0.696-0.21-1.111c0-0.724,0.2-1.334,0.602-1.832
		c0.401-0.497,0.897-0.852,1.487-1.062c0.592-0.212,1.245-0.317,1.961-0.317c0.905,0,1.728,0.172,2.466,0.516
		s1.347,0.767,1.824,1.268l-0.994,1.031c-0.823-0.995-1.929-1.493-3.317-1.493c-0.466,0-0.89,0.049-1.273,0.146
		c-0.383,0.099-0.71,0.277-0.982,0.537s-0.408,0.582-0.408,0.968c0,0.242,0.034,0.459,0.102,0.647
		c0.068,0.189,0.15,0.343,0.247,0.461c0.096,0.118,0.232,0.229,0.407,0.329c0.175,0.102,0.481,0.201,0.918,0.3
		c0.438,0.099,0.714,0.161,0.83,0.187c0.371,0.084,0.651,0.147,0.841,0.19c0.19,0.043,0.458,0.104,0.805,0.181
		c0.347,0.078,0.613,0.158,0.801,0.239s0.4,0.174,0.638,0.277s0.423,0.208,0.558,0.312s0.281,0.234,0.441,0.393
		c0.159,0.157,0.279,0.324,0.361,0.499c0.081,0.176,0.15,0.378,0.207,0.607s0.085,0.477,0.085,0.741
		c0,1.053-0.393,1.903-1.176,2.552c-0.784,0.647-1.86,0.972-3.229,0.972c-1.053,0-1.983-0.2-2.793-0.602
		S26.566,29.612,26.058,28.889z"/>
</g>
<g id="Layer_1">
</g>
</svg>
