<?xml version="1.0" encoding="iso-8859-1"?>
<!-- Generator: Adobe Illustrator 15.0.0, SVG Export Plug-In . SVG Version: 6.00 Build 0)  -->
<!DOCTYPE svg PUBLIC "-//W3C//DTD SVG 1.1//EN" "http://www.w3.org/Graphics/SVG/1.1/DTD/svg11.dtd">
<svg version="1.1" xmlns="http://www.w3.org/2000/svg" xmlns:xlink="http://www.w3.org/1999/xlink" x="0px" y="0px" width="48px"
	 height="48px" viewBox="0 0 48 48" style="enable-background:new 0 0 48 48;" xml:space="preserve">
<g id="Pin">
	<path style="fill-rule:evenodd;clip-rule:evenodd;fill:#3B97D2;" d="M48,42.09c0,3.264-2.646,5.91-5.91,5.91H5.911
		C2.647,48,0,45.354,0,42.09V5.911C0,2.646,2.647,0,5.911,0H42.09C45.354,0,48,2.646,48,5.911V42.09z"/>
	<path style="fill:#E64C3B;" d="M15.584,8.752l-6.213,6.216c-0.799,0.799-0.799,2.095,0.002,2.894c0.799,0.799,2.095,0.799,2.894,0
		l6.212-6.216c0.8-0.799,0.8-2.095,0-2.895C17.68,7.953,16.385,7.953,15.584,8.752z"/>
	<polygon style="fill:#FFFFFF;" points="37.516,37.186 28.08,23.717 26.082,25.716 	"/>
	<polygon style="fill:#CCCCCC;" points="26.082,25.716 24.342,27.455 37.516,37.186 	"/>
	<path style="fill:#E64C3B;" d="M25.176,18.209l0.016,0.015l-6.347,6.348l-0.016-0.015c-1.896,3.359-2.119,6.794-0.251,8.663
		l5.765-5.765l1.74-1.739l1.998-1.999l5.76-5.759C31.971,16.089,28.535,16.312,25.176,18.209z"/>
	<polygon style="fill:#B53937;" points="12.201,17.929 18.831,24.558 18.844,24.572 25.191,18.224 25.178,18.21 18.548,11.581 	"/>
</g>
<g id="Layer_1">
</g>
</svg>
