<?xml version="1.0" encoding="iso-8859-1"?>
<!-- Generator: Adobe Illustrator 15.0.0, SVG Export Plug-In . SVG Version: 6.00 Build 0)  -->
<!DOCTYPE svg PUBLIC "-//W3C//DTD SVG 1.1//EN" "http://www.w3.org/Graphics/SVG/1.1/DTD/svg11.dtd">
<svg version="1.1" xmlns="http://www.w3.org/2000/svg" xmlns:xlink="http://www.w3.org/1999/xlink" x="0px" y="0px" width="48px"
	 height="48px" viewBox="0 0 48 48" style="enable-background:new 0 0 48 48;" xml:space="preserve">
<g id="Playlist">
	<path style="fill-rule:evenodd;clip-rule:evenodd;fill:#F2F3F3;" d="M48,42.089C48,45.354,45.354,48,42.09,48H5.911
		C2.646,48,0,45.354,0,42.089V5.91C0,2.646,2.646,0,5.911,0H42.09C45.354,0,48,2.646,48,5.91V42.089z"/>
	<path style="fill:#1C272B;" d="M29.471,12.701h-0.195h-1.957h-0.546v16.957c-0.988-0.401-2.168-0.54-3.394-0.296
		c-2.782,0.558-4.68,2.794-4.238,4.995c0.44,2.203,3.051,3.537,5.834,2.979c2.354-0.47,4.058-2.146,4.264-3.986h0.037V19.622
		c3.66,0.58,4.201,3.47,3.755,4.68c-0.169,0.46,0.13,0.807,0.696,0C37.773,18.532,29,16.508,29.471,12.701z"/>
	<g>
		<path style="fill:#F19B1F;" d="M23.281,24.339H13.186v2.101h10.096L23.281,24.339L23.281,24.339z"/>
	</g>
	<g>
		<path style="fill:#297EB7;" d="M23.281,20.446H13.186v2.1h10.096L23.281,20.446L23.281,20.446z"/>
	</g>
	<g>
		<path style="fill:#E64C3B;" d="M23.281,16.553H13.186v2.102h10.096L23.281,16.553L23.281,16.553z"/>
	</g>
</g>
<g id="Layer_1">
</g>
</svg>
