<?xml version="1.0" encoding="iso-8859-1"?>
<!-- Generator: Adobe Illustrator 15.0.0, SVG Export Plug-In . SVG Version: 6.00 Build 0)  -->
<!DOCTYPE svg PUBLIC "-//W3C//DTD SVG 1.1//EN" "http://www.w3.org/Graphics/SVG/1.1/DTD/svg11.dtd">
<svg version="1.1" xmlns="http://www.w3.org/2000/svg" xmlns:xlink="http://www.w3.org/1999/xlink" x="0px" y="0px" width="48px"
	 height="48px" viewBox="0 0 48 48" style="enable-background:new 0 0 48 48;" xml:space="preserve">
<g id="PNG_Image_File">
	<path style="fill-rule:evenodd;clip-rule:evenodd;fill:#E64C3B;" d="M48,42.089C48,45.354,45.354,48,42.09,48H5.911
		C2.646,48,0,45.354,0,42.089V5.91C0,2.646,2.646,0,5.911,0H42.09C45.354,0,48,2.646,48,5.91V42.089z"/>
	<path style="fill:#EFC319;" d="M12.606,7.27c-0.558,0-1.012,0.455-1.012,1.013V38.07c0,0.556,0.454,1.012,1.012,1.012h23.168
		c0.556,0,1.013-0.456,1.013-1.012V14.934L29.123,7.27H12.606z"/>
	<path style="fill:#F19B1F;" d="M30.135,14.934h6.652L29.123,7.27v6.651C29.123,14.479,29.579,14.934,30.135,14.934z"/>
	<path style="fill:#FFFFFF;" d="M15.358,26.084h0.672v0.848h-0.672V26.084z"/>
	<path style="fill:#FFFFFF;" d="M19.918,21.22c0.256,0,0.488,0.036,0.696,0.108c0.208,0.071,0.387,0.179,0.536,0.319
		c0.149,0.142,0.264,0.313,0.344,0.517c0.08,0.202,0.12,0.432,0.12,0.688s-0.04,0.485-0.12,0.688
		c-0.08,0.202-0.195,0.374-0.344,0.516c-0.149,0.142-0.328,0.248-0.536,0.32c-0.208,0.071-0.44,0.107-0.696,0.107h-1.992v2.448
		h-0.544V21.22H19.918z M19.799,24.02c0.378,0,0.685-0.096,0.92-0.288c0.234-0.191,0.352-0.485,0.352-0.88s-0.118-0.688-0.352-0.88
		c-0.235-0.192-0.542-0.288-0.92-0.288h-1.872v2.336H19.799z"/>
	<path style="fill:#FFFFFF;" d="M23.033,21.22l3.328,4.832h0.016V21.22h0.545v5.712h-0.608L22.985,22.1h-0.016v4.832h-0.544V21.22
		H23.033z"/>
	<path style="fill:#FFFFFF;" d="M32.662,26.932l-0.071-1.04h-0.017c-0.096,0.203-0.215,0.377-0.355,0.524
		c-0.142,0.146-0.297,0.267-0.469,0.359c-0.17,0.094-0.353,0.161-0.547,0.204c-0.195,0.043-0.396,0.064-0.604,0.064
		c-0.448,0-0.841-0.082-1.181-0.244c-0.338-0.163-0.619-0.38-0.844-0.652c-0.224-0.271-0.392-0.587-0.504-0.943
		c-0.111-0.357-0.168-0.733-0.168-1.129c0-0.395,0.057-0.771,0.168-1.128c0.112-0.356,0.28-0.673,0.504-0.947
		c0.225-0.275,0.506-0.493,0.844-0.656c0.34-0.163,0.732-0.244,1.181-0.244c0.299,0,0.581,0.04,0.849,0.12
		c0.266,0.08,0.504,0.2,0.711,0.36c0.209,0.159,0.385,0.357,0.528,0.592s0.243,0.509,0.296,0.824h-0.544
		c-0.016-0.166-0.071-0.332-0.164-0.5s-0.219-0.321-0.376-0.461c-0.157-0.138-0.346-0.252-0.564-0.34s-0.463-0.132-0.735-0.132
		c-0.379,0-0.704,0.072-0.976,0.216c-0.272,0.145-0.495,0.335-0.668,0.572c-0.174,0.237-0.302,0.506-0.385,0.804
		c-0.082,0.299-0.123,0.605-0.123,0.92c0,0.31,0.041,0.615,0.123,0.916c0.083,0.302,0.211,0.571,0.385,0.809
		c0.173,0.237,0.396,0.428,0.668,0.572c0.271,0.144,0.597,0.216,0.976,0.216c0.314,0,0.597-0.053,0.845-0.156
		c0.247-0.104,0.457-0.249,0.627-0.436c0.171-0.188,0.299-0.408,0.385-0.664c0.085-0.257,0.125-0.536,0.119-0.841h-1.943v-0.464
		h2.424v2.904H32.662z"/>
</g>
<g id="Layer_1">
</g>
</svg>
