<?xml version="1.0" encoding="iso-8859-1"?>
<!-- Generator: Adobe Illustrator 15.0.0, SVG Export Plug-In . SVG Version: 6.00 Build 0)  -->
<!DOCTYPE svg PUBLIC "-//W3C//DTD SVG 1.1//EN" "http://www.w3.org/Graphics/SVG/1.1/DTD/svg11.dtd">
<svg version="1.1" xmlns="http://www.w3.org/2000/svg" xmlns:xlink="http://www.w3.org/1999/xlink" x="0px" y="0px" width="48px"
	 height="48px" viewBox="0 0 48 48" style="enable-background:new 0 0 48 48;" xml:space="preserve">
<g id="Post-it_Notes">
	<path style="fill-rule:evenodd;clip-rule:evenodd;fill:#945BA4;" d="M48,42.089C48,45.354,45.354,48,42.09,48H5.911
		C2.646,48,0,45.354,0,42.089V5.91C0,2.646,2.646,0,5.911,0H42.09C45.354,0,48,2.646,48,5.91V42.089z"/>
	<path style="fill:#3B97D2;" d="M11.39,10.236l0.091-0.092C11.448,10.174,11.419,10.203,11.39,10.236z"/>
	<path style="fill:#FFC91B;" d="M36.608,16.751l-5.288-5.29l-1.595-1.595h-7.389H12.186c-0.272,0-0.514,0.11-0.705,0.278
		l-0.091,0.092c-0.168,0.189-0.278,0.433-0.278,0.705v10.149V31.67v4.532c0,0.59,0.482,1.075,1.074,1.075h3.896h10.577h10.131
		c0.591,0,1.074-0.485,1.074-1.075V26.071v-8.066L36.608,16.751z"/>
	<path style="fill:#F19B1F;" d="M30.801,18.005h7.062l-8.138-8.139v7.063C29.726,17.521,30.21,18.005,30.801,18.005z"/>
</g>
<g id="Layer_1">
</g>
</svg>
