<?xml version="1.0" encoding="iso-8859-1"?>
<!-- Generator: Adobe Illustrator 15.0.0, SVG Export Plug-In . SVG Version: 6.00 Build 0)  -->
<!DOCTYPE svg PUBLIC "-//W3C//DTD SVG 1.1//EN" "http://www.w3.org/Graphics/SVG/1.1/DTD/svg11.dtd">
<svg version="1.1" xmlns="http://www.w3.org/2000/svg" xmlns:xlink="http://www.w3.org/1999/xlink" x="0px" y="0px" width="48px"
	 height="48px" viewBox="0 0 48 48" style="enable-background:new 0 0 48 48;" xml:space="preserve">
<g id="Power_Cable">
	<path style="fill-rule:evenodd;clip-rule:evenodd;fill:#F2F3F3;" d="M48,42.09c0,3.264-2.646,5.91-5.911,5.91H5.911
		C2.646,48,0,45.354,0,42.09V5.911C0,2.646,2.646,0,5.911,0h36.178C45.354,0,48,2.646,48,5.911V42.09z"/>
	<g>
		<g>
			<path style="fill:#CCCCCC;" d="M14.721,10.281h-3.639v5.969c1.048-0.354,2.311-0.581,3.639-0.679V10.281z"/>
		</g>
		<g>
			<path style="fill:#CCCCCC;" d="M21.45,10.284h-3.637v5.287c1.328,0.098,2.59,0.325,3.637,0.679V10.284z"/>
		</g>
	</g>
	<g>
		<path style="fill:#EFC319;" d="M36.066,15.893c-1.438,0-2.607,1.169-2.607,2.607v5.972c0,4.083-3.32,7.404-7.404,7.404
			c-3.484,0-6.396-2.427-7.179-5.674c3.072-1.083-8.335-1.136-5.312-0.027c0.835,6.153,6.109,10.917,12.49,10.917
			c6.959,0,12.619-5.662,12.619-12.62V18.5C38.674,17.062,37.504,15.893,36.066,15.893z"/>
	</g>
	<path style="fill:#297EB7;" d="M24.161,18.783c0-4.359-15.79-4.359-15.79,0c0,3.314,2.06,6.113,4.954,7.284
		c0.055,0.023,0.104,0.05,0.161,0.073c0.025,0.011,0.05,0.025,0.078,0.035h0.03c0.795,0.302,1.729,0.483,2.737,0.483
		c1.615,0,3.041-0.457,3.986-1.156C22.61,24.125,24.161,21.651,24.161,18.783z"/>
</g>
<g id="Layer_1">
</g>
</svg>
