<?xml version="1.0" encoding="iso-8859-1"?>
<!-- Generator: Adobe Illustrator 15.0.0, SVG Export Plug-In . SVG Version: 6.00 Build 0)  -->
<!DOCTYPE svg PUBLIC "-//W3C//DTD SVG 1.1//EN" "http://www.w3.org/Graphics/SVG/1.1/DTD/svg11.dtd">
<svg version="1.1" xmlns="http://www.w3.org/2000/svg" xmlns:xlink="http://www.w3.org/1999/xlink" x="0px" y="0px" width="48px"
	 height="48px" viewBox="0 0 48 48" style="enable-background:new 0 0 48 48;" xml:space="preserve">
<g id="Preferences">
	<path style="fill-rule:evenodd;clip-rule:evenodd;fill:#FFFFFF;" d="M48,42.089C48,45.354,45.354,48,42.09,48H5.911
		C2.646,48,0,45.354,0,42.089V5.91C0,2.646,2.646,0,5.911,0H42.09C45.354,0,48,2.646,48,5.91V42.089z"/>
	<path style="fill:#F19B1F;" d="M39.782,24.967v-1.49l-2.323-0.358c-0.004-0.058-0.011-0.115-0.016-0.173
		c-0.039-0.412-0.098-0.822-0.172-1.229l2.149-0.955l-0.39-1.437l-2.332,0.261c-0.166-0.464-0.359-0.918-0.576-1.363l1.814-1.49
		l-0.757-1.281l-2.179,0.871c-0.236-0.337-0.491-0.663-0.762-0.981l1.387-1.894l-1.053-1.053L32.68,13.78
		c-0.363-0.31-0.738-0.597-1.125-0.861l0.844-2.19l-1.291-0.742l-1.465,1.832c-0.449-0.211-0.906-0.397-1.372-0.558l0.23-2.334
		l-1.442-0.37l-0.926,2.161c-0.408-0.069-0.818-0.122-1.23-0.155l-0.359-2.324h-1.489l-0.36,2.326
		c-0.47,0.038-0.938,0.099-1.401,0.186l-0.955-2.151l-1.437,0.39l0.261,2.333c-0.463,0.166-0.918,0.359-1.364,0.576l-1.489-1.815
		l-1.282,0.757l0.871,2.18c-0.336,0.236-0.664,0.49-0.981,0.762l-1.895-1.387l-1.053,1.053l1.388,1.895
		c-0.31,0.363-0.597,0.739-0.862,1.124l-2.19-0.844l-0.741,1.292l1.832,1.464c-0.211,0.45-0.398,0.907-0.559,1.373l-2.333-0.23
		l-0.371,1.442l2.161,0.926c-0.07,0.408-0.122,0.818-0.154,1.23l-2.325,0.358v1.49l2.327,0.359c0.002,0.023,0.003,0.047,0.005,0.07
		c0.035,0.446,0.09,0.893,0.169,1.336l-2.14,0.95l0.389,1.437l2.304-0.257c0.164,0.469,0.357,0.931,0.574,1.386l-1.784,1.464
		l0.757,1.281l2.13-0.852c0.24,0.346,0.498,0.683,0.774,1.012l-1.351,1.845l1.052,1.052l1.834-1.342
		c0.372,0.321,0.758,0.619,1.156,0.894l-0.813,2.113l1.292,0.742l1.407-1.762c0.464,0.221,0.938,0.415,1.42,0.581l-0.221,2.24
		l1.442,0.37l0.887-2.067c0.426,0.074,0.854,0.129,1.286,0.164l0.343,2.222h1.489l0.343-2.219c0.49-0.038,0.977-0.101,1.463-0.19
		l0.909,2.049l1.437-0.39l-0.248-2.229c0.48-0.173,0.953-0.374,1.416-0.602l1.425,1.736l1.282-0.757l-0.837-2.094
		c0.349-0.247,0.687-0.513,1.017-0.796l1.824,1.335l1.053-1.053l-1.342-1.831c0.317-0.375,0.611-0.763,0.882-1.163l2.125,0.819
		l0.741-1.292L36.244,30.1c0.211-0.457,0.395-0.927,0.553-1.402l2.297,0.227l0.37-1.442l-2.138-0.916
		c0.067-0.412,0.116-0.826,0.146-1.242L39.782,24.967z M13.214,24.968c-0.01-0.142-0.009-0.285-0.014-0.428
		c-0.059-2.974,1.112-5.955,3.488-8.1c1.686-1.521,3.729-2.395,5.828-2.648v3.911c-1.363,0.267-2.656,0.952-3.657,2.061
		c-1.233,1.366-1.789,3.107-1.696,4.814c0.003,0.085,0.012,0.171,0.019,0.257c0.006,0.065,0.01,0.131,0.018,0.196
		c0.115,1.092,0.498,2.161,1.158,3.104L15.7,31.08c-1.455-1.716-2.281-3.801-2.469-5.938C13.227,25.085,13.218,25.026,13.214,24.968
		z M34.373,23.375c0.006,0.062,0.012,0.122,0.016,0.184c0.163,2.647-0.657,5.354-2.492,7.521l-2.647-2.932
		c0.923-1.316,1.317-2.899,1.173-4.451c-0.008-0.088-0.014-0.176-0.025-0.264c-0.004-0.035-0.01-0.068-0.016-0.104
		c-0.201-1.505-0.91-2.95-2.124-4.046c-0.927-0.838-2.03-1.357-3.177-1.581v-3.909c2.459,0.296,4.827,1.436,6.613,3.413
		c1.438,1.594,2.298,3.508,2.604,5.485C34.328,22.919,34.354,23.146,34.373,23.375z M27.342,23.854
		c0.008,0.066,0.013,0.132,0.018,0.199c0.043,0.907-0.258,1.83-0.914,2.558c-1.32,1.462-3.574,1.576-5.036,0.258
		c-0.709-0.642-1.098-1.501-1.164-2.384c-0.046-1.026,0.351-2.064,1.173-2.807c1.462-1.319,3.716-1.204,5.037,0.257
		c0.494,0.548,0.787,1.207,0.883,1.887C27.34,23.833,27.34,23.844,27.342,23.854z M20.208,29.913
		c2.167,1.395,4.988,1.419,7.188,0.007l2.626,2.908c-3.671,2.655-8.715,2.702-12.446,0L20.208,29.913z"/>
</g>
<g id="Layer_1">
</g>
</svg>
