<?xml version="1.0" encoding="iso-8859-1"?>
<!-- Generator: Adobe Illustrator 15.0.0, SVG Export Plug-In . SVG Version: 6.00 Build 0)  -->
<!DOCTYPE svg PUBLIC "-//W3C//DTD SVG 1.1//EN" "http://www.w3.org/Graphics/SVG/1.1/DTD/svg11.dtd">
<svg version="1.1" xmlns="http://www.w3.org/2000/svg" xmlns:xlink="http://www.w3.org/1999/xlink" x="0px" y="0px" width="48px"
	 height="48px" viewBox="0 0 48 48" style="enable-background:new 0 0 48 48;" xml:space="preserve">
<g id="Razor">
	<path style="fill-rule:evenodd;clip-rule:evenodd;fill:#E64C3B;" d="M48,42.089C48,45.354,45.354,48,42.09,48H5.911
		C2.646,48,0,45.354,0,42.089V5.91C0,2.646,2.646,0,5.911,0H42.09C45.354,0,48,2.646,48,5.91V42.089z"/>
	<path style="fill:#CCCCCC;" d="M40.764,18.627h-0.857v-0.009c-0.047-0.002-0.604-0.045-0.604-0.619
		c0-0.582,0.554-0.847,0.604-1.054v-3.872c0-0.319-0.258-0.578-0.579-0.578H8.226c-0.319,0-0.579,0.259-0.579,0.578v3.855
		c0,0.002,0,0.003,0,0.004c0.021,0.211,0.609,0.475,0.609,1.074s-0.609,0.618-0.609,0.618l0,0v0.002H6.934
		c-0.64,0-1.159,0.52-1.159,1.158v9.912c0,0.639,0.519,1.158,1.159,1.158h0.714v0.012c0.014,0.001,0.608,0.027,0.608,0.619
		c0,0.596-0.579,0.858-0.608,1.068v3.854c0,0.319,0.259,0.578,0.579,0.578h31.101c0.321,0,0.579-0.259,0.579-0.578v-3.802
		c-0.001-0.02-0.002-0.04-0.005-0.058c-0.021-0.21-0.608-0.475-0.608-1.073c0-0.6,0.608-0.617,0.608-0.617h0.005v-0.004h0.857
		c0.641,0,1.159-0.52,1.159-1.158v-9.912C41.923,19.146,41.404,18.627,40.764,18.627z"/>
	<path style="fill:#FFFFFF;" d="M39.906,13.076c0-0.321-0.258-0.581-0.579-0.581H8.226c-0.319,0-0.579,0.26-0.579,0.581v2.225
		h32.259V13.076z"/>
	<path style="fill:#FFFFFF;" d="M7.647,34.175v2.231c0,0.32,0.259,0.581,0.58,0.581h31.101c0.32,0,0.58-0.261,0.58-0.581v-2.231
		H7.647z"/>
	<path style="fill:#222F35;" d="M37.555,22.188c-0.289,0-0.522,0.234-0.522,0.522v1.375h-1.015l-1.657-1.657
		c-0.147-0.147-0.345-0.229-0.554-0.229s-0.404,0.082-0.553,0.229l-1.656,1.657h-0.909v-1.375c0-0.288-0.234-0.522-0.524-0.522
		c-0.289,0-0.523,0.234-0.523,0.522v1.375h-3.662c-0.279-0.911-1.126-1.573-2.129-1.573c-1.003,0-1.851,0.662-2.13,1.573h-3.662
		v-1.375c0-0.288-0.234-0.522-0.524-0.522c-0.289,0-0.524,0.234-0.524,0.522v1.375h-1.014l-1.657-1.657
		c-0.148-0.147-0.344-0.229-0.553-0.229s-0.405,0.082-0.554,0.229l-1.657,1.657h-0.909v-1.375c0-0.288-0.234-0.522-0.523-0.522
		s-0.523,0.234-0.523,0.522v4.061c0,0.288,0.234,0.522,0.523,0.522s0.523-0.234,0.523-0.522v-1.375h0.908l1.657,1.657
		c0.148,0.147,0.345,0.229,0.554,0.229s0.405-0.082,0.553-0.229l1.657-1.657h1.014v1.375c0,0.288,0.235,0.522,0.524,0.522
		c0.29,0,0.524-0.234,0.524-0.522v-1.375h3.662c0.279,0.911,1.127,1.573,2.13,1.573c1.002,0,1.85-0.662,2.129-1.573h3.662v1.375
		c0,0.288,0.234,0.522,0.523,0.522c0.29,0,0.524-0.234,0.524-0.522v-1.375h0.908l1.657,1.657c0.148,0.147,0.344,0.229,0.553,0.229
		s0.406-0.082,0.554-0.229l1.657-1.657h1.015v1.375c0,0.288,0.233,0.522,0.522,0.522c0.29,0,0.524-0.234,0.524-0.522v-4.061
		C38.079,22.423,37.845,22.188,37.555,22.188z"/>
</g>
<g id="Layer_1">
</g>
</svg>
