<?xml version="1.0" encoding="iso-8859-1"?>
<!-- Generator: Adobe Illustrator 15.0.0, SVG Export Plug-In . SVG Version: 6.00 Build 0)  -->
<!DOCTYPE svg PUBLIC "-//W3C//DTD SVG 1.1//EN" "http://www.w3.org/Graphics/SVG/1.1/DTD/svg11.dtd">
<svg version="1.1" xmlns="http://www.w3.org/2000/svg" xmlns:xlink="http://www.w3.org/1999/xlink" x="0px" y="0px" width="48px"
	 height="48px" viewBox="0 0 48 48" style="enable-background:new 0 0 48 48;" xml:space="preserve">
<g id="Restaurant">
	<path style="fill-rule:evenodd;clip-rule:evenodd;fill:#F2F3F3;" d="M48,42.09c0,3.264-2.646,5.91-5.911,5.91H5.911
		C2.646,48,0,45.354,0,42.09V5.911C0,2.646,2.646,0,5.911,0h36.178C45.354,0,48,2.646,48,5.911V42.09z"/>
	<polygon style="fill:#4CC0E5;" points="10.94,10.783 10.923,36.176 20.474,36.176 20.491,25.916 28.589,25.916 28.571,36.176 
		38.124,36.176 38.142,10.783 	"/>
	<polygon style="fill:#3B97D2;" points="42.103,24.033 7.284,24.018 10.939,18.84 38.155,18.84 	"/>
	<g>
		<path style="fill:#E64C3B;" d="M30.146,34.201h2.467l2.773,1.982l-2.818,2.021l0.449,0.72l3.097-2.225l3.099,2.225l0.451-0.724
			l-2.82-2.017l2.772-1.982h2.495v-1.285H30.146V34.201z M36.113,35.67l-2.044-1.469h4.09L36.113,35.67z"/>
	</g>
	<g>
		<path style="fill:#E64C3B;" d="M7.013,34.201h2.467l2.773,1.982l-2.819,2.021l0.448,0.72l3.098-2.225l3.1,2.225l0.45-0.724
			l-2.819-2.017l2.771-1.982h2.495v-1.285H7.013V34.201z M12.979,35.67l-2.043-1.469h4.09L12.979,35.67z"/>
	</g>
	<rect x="10.076" y="9.104" style="fill:#3B97D2;" width="28.93" height="2.111"/>
</g>
<g id="Layer_1">
</g>
</svg>
