<?xml version="1.0" encoding="iso-8859-1"?>
<!-- Generator: Adobe Illustrator 15.0.0, SVG Export Plug-In . SVG Version: 6.00 Build 0)  -->
<!DOCTYPE svg PUBLIC "-//W3C//DTD SVG 1.1//EN" "http://www.w3.org/Graphics/SVG/1.1/DTD/svg11.dtd">
<svg version="1.1" xmlns="http://www.w3.org/2000/svg" xmlns:xlink="http://www.w3.org/1999/xlink" x="0px" y="0px" width="48px"
	 height="48px" viewBox="0 0 48 48" style="enable-background:new 0 0 48 48;" xml:space="preserve">
<g id="Saucepan">
	<path style="fill-rule:evenodd;clip-rule:evenodd;fill:#FFFFFF;" d="M48,42.089C48,45.354,45.354,48,42.09,48H5.911
		C2.646,48,0,45.354,0,42.089V5.91C0,2.646,2.646,0,5.911,0H42.09C45.354,0,48,2.646,48,5.91V42.089z"/>
	<path style="fill:#F19B1F;" d="M17.798,18.479c0.482-0.484,0.99-0.925,1.515-1.333C15.561,13.196,8.619,5.887,8.394,5.661
		c-0.942-0.942-2.47-0.942-3.415,0.001c-0.94,0.94-0.941,2.468,0.003,3.41c0.227,0.227,7.535,7.168,11.487,10.919
		C16.877,19.466,17.317,18.96,17.798,18.479z"/>
	<path style="fill:#FFFFFF;" d="M7.237,6.942c-0.271-0.27-0.706-0.27-0.974,0c-0.27,0.269-0.271,0.704,0,0.974
		c0.136,0.137,1.057,1.057,1.194,1.193c0.269,0.27,0.704,0.269,0.973,0c0.269-0.27,0.269-0.704,0.001-0.973
		C8.293,7.998,7.373,7.078,7.237,6.942z"/>
	<path style="fill-rule:evenodd;clip-rule:evenodd;fill:#3C404A;" d="M38.328,39.008c-6.231,6.233-16.374,6.233-22.607,0
		c-6.233-6.232-6.233-16.374,0-22.605c6.233-6.233,16.375-6.233,22.609-0.001C44.562,22.634,44.562,32.774,38.328,39.008z"/>
	<path style="fill-rule:evenodd;clip-rule:evenodd;fill:#222F35;" d="M27.025,38.376c-2.852,0-5.531-1.11-7.546-3.125
		c-2.016-2.016-3.126-4.696-3.126-7.546c0-2.851,1.11-5.531,3.126-7.547c2.016-2.015,4.695-3.125,7.546-3.125
		s5.53,1.109,7.545,3.124c2.017,2.017,3.127,4.696,3.127,7.547s-1.11,5.531-3.127,7.547C32.555,37.266,29.875,38.376,27.025,38.376z
		"/>
</g>
<g id="Layer_1">
</g>
</svg>
