<?xml version="1.0" encoding="iso-8859-1"?>
<!-- Generator: Adobe Illustrator 15.0.0, SVG Export Plug-In . SVG Version: 6.00 Build 0)  -->
<!DOCTYPE svg PUBLIC "-//W3C//DTD SVG 1.1//EN" "http://www.w3.org/Graphics/SVG/1.1/DTD/svg11.dtd">
<svg version="1.1" xmlns="http://www.w3.org/2000/svg" xmlns:xlink="http://www.w3.org/1999/xlink" x="0px" y="0px" width="48px"
	 height="48px" viewBox="0 0 48 48" style="enable-background:new 0 0 48 48;" xml:space="preserve">
<g id="Search">
	<path style="fill-rule:evenodd;clip-rule:evenodd;fill:#945BA4;" d="M48,42.09c0,3.264-2.646,5.91-5.911,5.91H5.911
		C2.646,48,0,45.354,0,42.09V5.911C0,2.646,2.646,0,5.911,0h36.178C45.354,0,48,2.646,48,5.911V42.09z"/>
	<path style="fill:#E6E7E8;" d="M26.858,10.863c-4.657-4.651-12.209-4.644-16.861,0.015c-4.649,4.658-4.642,12.206,0.016,16.857
		c4.013,4.01,10.172,4.547,14.773,1.64l6.216,6.204c0.654,0.654,1.33,0.012,2.147-0.811l0.787-0.781
		c0.811-0.814,1.455-1.494,0.801-2.152l-6.215-6.202C31.42,21.027,30.868,14.869,26.858,10.863z"/>
	<path style="fill:#4CC0E5;" d="M23.91,24.762c-3.012,3.021-7.921,3.024-10.942,0.01c-3.017-3.009-3.022-7.918-0.011-10.941
		c3.016-3.02,7.925-3.019,10.944-0.009C26.92,16.839,26.926,21.748,23.91,24.762z"/>
	
		<ellipse transform="matrix(0.5139 0.8579 -0.8579 0.5139 25.437 -9.6926)" style="fill:#FFFFFF;" cx="21.271" cy="17.597" rx="4.858" ry="2.62"/>
	<path style="fill:#131B1D;" d="M32.195,27.574c-0.628-0.627-1.645-0.627-2.271-0.001l-3.09,3.091c-0.628,0.628-0.627,1.643,0,2.271
		l5.12,5.119v0.002l0.309,0.309l0.202,0.203c0.401,0.4-0.005-0.004,0.782,0.781c0.235,0.236,0.456,0.457,0.645,0.646
		c0.156,0.154,0.416,0.414,0.514,0.514c1.218,1.217,3.454,1.061,4.933-0.418c1.476-1.475,1.633-3.712,0.415-4.93
		c-0.162-0.162-0.406-0.406-0.686-0.686c-0.041-0.054-0.078-0.107-0.127-0.157L32.195,27.574z"/>
	<circle style="fill:#FFFFFF;" cx="36.313" cy="37.053" r="1.102"/>
</g>
<g id="Layer_1">
</g>
</svg>
