<?xml version="1.0" encoding="iso-8859-1"?>
<!-- Generator: Adobe Illustrator 15.0.0, SVG Export Plug-In . SVG Version: 6.00 Build 0)  -->
<!DOCTYPE svg PUBLIC "-//W3C//DTD SVG 1.1//EN" "http://www.w3.org/Graphics/SVG/1.1/DTD/svg11.dtd">
<svg version="1.1" xmlns="http://www.w3.org/2000/svg" xmlns:xlink="http://www.w3.org/1999/xlink" x="0px" y="0px"
	 width="47.999px" height="48px" viewBox="0 0 47.999 48" style="enable-background:new 0 0 47.999 48;" xml:space="preserve">
<g id="Settings">
	<path style="fill-rule:evenodd;clip-rule:evenodd;fill:#3B97D2;" d="M47.999,42.089c0,3.265-2.646,5.911-5.91,5.911H5.91
		C2.646,48,0,45.354,0,42.089V5.91C0,2.646,2.646,0,5.91,0h36.179c3.265,0,5.91,2.646,5.91,5.91V42.089z"/>
	<g>
		<path style="fill:#FFFFFF;" d="M15.285,11.349V8.422c0-0.762-0.615-1.381-1.377-1.381c-0.764,0-1.38,0.619-1.38,1.381v2.927
			H15.285z"/>
		<path style="fill:#FFFFFF;" d="M12.528,22.396V39.43c0,0.763,0.616,1.382,1.38,1.382c0.762,0,1.377-0.619,1.377-1.382V22.396
			H12.528z"/>
	</g>
	<path style="fill-rule:evenodd;clip-rule:evenodd;fill:#E64C3B;" d="M17.438,19.608c0,0.683-0.553,1.237-1.234,1.237h-4.595
		c-0.682,0-1.234-0.555-1.234-1.237v-5.194c0-0.682,0.553-1.234,1.234-1.234h4.595c0.682,0,1.234,0.553,1.234,1.234V19.608z"/>
	<g>
		<path style="fill:#FFFFFF;" d="M25.899,24.871V8.422c0-0.762-0.293-1.381-1.054-1.381c-0.764,0-1.056,0.619-1.056,1.381v16.449
			H25.899z"/>
		<path style="fill:#FFFFFF;" d="M23.209,35.702v3.728c0,0.763,0.691,1.382,1.454,1.382c0.762,0,1.453-0.619,1.453-1.382v-3.728
			H23.209z"/>
	</g>
	<path style="fill-rule:evenodd;clip-rule:evenodd;fill:#3C404A;" d="M28.075,32.938c0,0.683-0.553,1.235-1.234,1.235h-4.594
		c-0.682,0-1.233-0.553-1.233-1.235v-5.195c0-0.683,0.552-1.235,1.233-1.235h4.594c0.682,0,1.234,0.553,1.234,1.235V32.938z"/>
	<g>
		<path style="fill:#FFFFFF;" d="M37.485,17.507V8.422c0-0.762-0.291-1.381-1.055-1.381c-0.763,0-1.056,0.619-1.056,1.381v9.085
			H37.485z"/>
		<path style="fill:#FFFFFF;" d="M35.375,28.037V39.43c0,0.763,0.293,1.382,1.056,1.382c0.764,0,1.055-0.619,1.055-1.382V28.037
			H35.375z"/>
	</g>
	<path style="fill-rule:evenodd;clip-rule:evenodd;fill:#F5E886;" d="M39.962,25.337c0,0.682-0.553,1.235-1.233,1.235h-4.597
		c-0.682,0-1.233-0.554-1.233-1.235v-5.194c0-0.683,0.552-1.235,1.233-1.235h4.597c0.681,0,1.233,0.553,1.233,1.235V25.337z"/>
</g>
<g id="Layer_1">
</g>
</svg>
