<?xml version="1.0" encoding="iso-8859-1"?>
<!-- Generator: Adobe Illustrator 15.0.0, SVG Export Plug-In . SVG Version: 6.00 Build 0)  -->
<!DOCTYPE svg PUBLIC "-//W3C//DTD SVG 1.1//EN" "http://www.w3.org/Graphics/SVG/1.1/DTD/svg11.dtd">
<svg version="1.1" xmlns="http://www.w3.org/2000/svg" xmlns:xlink="http://www.w3.org/1999/xlink" x="0px" y="0px" width="48px"
	 height="48px" viewBox="0 0 48 48" style="enable-background:new 0 0 48 48;" xml:space="preserve">
<g id="Shopping_Bag">
	<path style="fill-rule:evenodd;clip-rule:evenodd;fill:#945BA4;" d="M48,42.089C48,45.354,45.354,48,42.09,48H5.911
		C2.647,48,0,45.354,0,42.089V5.91C0,2.646,2.647,0,5.911,0H42.09C45.354,0,48,2.646,48,5.91V42.089z"/>
	<rect x="19.311" y="9.054" style="fill:#FFC91B;" width="9.311" height="2.747"/>
	<polygon style="fill:#3B97D2;" points="39.457,15.006 32.131,15.006 32.131,12.119 28.621,9.04 28.621,15.006 19.311,15.006 
		19.311,9.04 15.8,12.119 15.8,15.006 8.627,15.006 8.627,25.582 39.457,25.582 	"/>
	<path style="fill:#3FA0D8;" d="M8.627,29.097c0,0.315,0.032,0.664,0.095,1.031c-0.062-0.3-0.095-0.61-0.095-0.927v2.07v1.097
		c0,2.51,1.954,4.464,4.466,4.464h3.249h7.795h7.734h0.062h3.066c2.511,0,4.458-1.954,4.458-4.464v-6.786H8.627v2.421V29.097z"/>
	<g>
		<path style="fill:#FFFFFF;" d="M22.05,28.943c0.395,0.391,0.893,0.636,1.492,0.736v-3.976c-0.53-0.13-0.987-0.272-1.372-0.428
			s-0.705-0.34-0.96-0.555s-0.442-0.478-0.562-0.788c-0.12-0.31-0.18-0.685-0.18-1.125c0-0.449,0.079-0.862,0.239-1.237
			s0.378-0.7,0.652-0.975c0.275-0.274,0.601-0.493,0.976-0.653c0.375-0.159,0.777-0.254,1.207-0.284v-0.99h0.825v1.005
			c0.811,0.1,1.455,0.4,1.936,0.9c0.479,0.5,0.819,1.189,1.02,2.07h-1.275c-0.199-0.99-0.76-1.57-1.68-1.74v3.689l0.9,0.24
			c0.199,0.051,0.435,0.138,0.705,0.263c0.27,0.125,0.529,0.298,0.779,0.518s0.463,0.495,0.638,0.825s0.263,0.725,0.263,1.185
			c0,0.49-0.082,0.925-0.247,1.306c-0.165,0.379-0.393,0.707-0.683,0.982c-0.29,0.274-0.636,0.492-1.035,0.652
			c-0.4,0.159-0.84,0.26-1.32,0.3v1.229h-0.825v-1.229c-1-0.101-1.795-0.448-2.385-1.043s-0.925-1.417-1.005-2.468h1.275
			C21.447,28.023,21.654,28.555,22.05,28.943z M22.32,21.377c-0.336,0.295-0.503,0.727-0.503,1.297c0,0.26,0.042,0.482,0.128,0.668
			c0.084,0.186,0.204,0.34,0.359,0.465s0.338,0.232,0.548,0.322s0.439,0.17,0.689,0.24v-3.51
			C23.062,20.909,22.654,21.082,22.32,21.377z M25.14,29.529c0.235-0.08,0.44-0.197,0.615-0.353s0.31-0.351,0.405-0.585
			c0.095-0.235,0.143-0.513,0.143-0.833c0-0.29-0.051-0.532-0.15-0.728s-0.235-0.362-0.405-0.502
			c-0.17-0.141-0.375-0.258-0.614-0.353c-0.24-0.095-0.495-0.183-0.766-0.263v3.766C24.647,29.659,24.904,29.609,25.14,29.529z"/>
	</g>
</g>
<g id="Layer_1">
</g>
</svg>
