<?xml version="1.0" encoding="iso-8859-1"?>
<!-- Generator: Adobe Illustrator 15.0.0, SVG Export Plug-In . SVG Version: 6.00 Build 0)  -->
<!DOCTYPE svg PUBLIC "-//W3C//DTD SVG 1.1//EN" "http://www.w3.org/Graphics/SVG/1.1/DTD/svg11.dtd">
<svg version="1.1" xmlns="http://www.w3.org/2000/svg" xmlns:xlink="http://www.w3.org/1999/xlink" x="0px" y="0px" width="48px"
	 height="48px" viewBox="0 0 48 48" style="enable-background:new 0 0 48 48;" xml:space="preserve">
<g id="_x23_Sight">
	<path style="fill-rule:evenodd;clip-rule:evenodd;fill:#3B97D2;" d="M48,42.09c0,3.264-2.646,5.91-5.91,5.91H5.911
		C2.646,48,0,45.354,0,42.09V5.911C0,2.646,2.646,0,5.911,0H42.09C45.354,0,48,2.646,48,5.911V42.09z"/>
	<path style="fill:#172023;" d="M24.785,13.003c-0.296-0.031-0.596-0.051-0.9-0.051c-0.003,0-0.004,0-0.005,0c0,0,0,0-0.002,0
		c-0.306,0-0.608,0.02-0.907,0.051C11.582,13.545,6.159,23.92,6.159,23.92s5.698,10.963,17.721,10.963
		c12.021,0,17.718-10.963,17.718-10.963S36.175,13.544,24.785,13.003z"/>
	<circle style="fill:#FFFFFF;" cx="20.982" cy="20.738" r="2.357"/>
	<path style="fill:#FFFFFF;" d="M23.88,31.766c-7.638,0-12.282-5.201-14.15-7.847c1.123-1.593,3.265-4.109,6.456-5.864
		c-0.421,0.999-0.654,2.096-0.654,3.247c0,4.611,3.735,8.349,8.347,8.349c4.613,0,8.349-3.737,8.349-8.349
		c0-1.145-0.232-2.235-0.648-3.229c3.18,1.756,5.322,4.269,6.447,5.851C36.158,26.564,31.514,31.766,23.88,31.766z"/>
</g>
<g id="Layer_1">
</g>
</svg>
