<?xml version="1.0" encoding="iso-8859-1"?>
<!-- Generator: Adobe Illustrator 15.0.0, SVG Export Plug-In . SVG Version: 6.00 Build 0)  -->
<!DOCTYPE svg PUBLIC "-//W3C//DTD SVG 1.1//EN" "http://www.w3.org/Graphics/SVG/1.1/DTD/svg11.dtd">
<svg version="1.1" xmlns="http://www.w3.org/2000/svg" xmlns:xlink="http://www.w3.org/1999/xlink" x="0px" y="0px" width="48px"
	 height="48px" viewBox="0 0 48 48" style="enable-background:new 0 0 48 48;" xml:space="preserve">
<g id="Sunshine">
	<path style="fill-rule:evenodd;clip-rule:evenodd;fill:#4CC0E5;" d="M48,42.089C48,45.354,45.354,48,42.09,48H5.911
		C2.647,48,0,45.354,0,42.089V5.91C0,2.646,2.647,0,5.911,0H42.09C45.354,0,48,2.646,48,5.91V42.089z"/>
	<path style="fill:#FDE466;" d="M27.002,33.774l6.044,4.36l-1.37-7.324l7.414,0.754l-4.848-5.658l6.795-3.053l-7.028-2.477
		l4.36-6.045l-7.324,1.37l0.753-7.413l-5.659,4.85l-3.053-6.797l-2.477,7.027L14.566,9.01l1.369,7.325l-7.412-0.754l4.848,5.659
		l-6.795,3.053l7.027,2.477l-4.359,6.042l7.324-1.369l-0.754,7.413l5.658-4.85l3.055,6.797L27.002,33.774z"/>
	<path style="fill:#FFC91B;" d="M33.868,23.57c0,5.557-4.503,10.061-10.061,10.061c-5.556,0-10.059-4.504-10.059-10.061
		S18.252,13.51,23.808,13.51C29.365,13.51,33.868,18.014,33.868,23.57"/>
</g>
<g id="Layer_1">
</g>
</svg>
