<?xml version="1.0" encoding="iso-8859-1"?>
<!-- Generator: Adobe Illustrator 15.0.0, SVG Export Plug-In . SVG Version: 6.00 Build 0)  -->
<!DOCTYPE svg PUBLIC "-//W3C//DTD SVG 1.1//EN" "http://www.w3.org/Graphics/SVG/1.1/DTD/svg11.dtd">
<svg version="1.1" xmlns="http://www.w3.org/2000/svg" xmlns:xlink="http://www.w3.org/1999/xlink" x="0px" y="0px"
	 width="47.999px" height="48px" viewBox="0 0 47.999 48" style="enable-background:new 0 0 47.999 48;" xml:space="preserve">
<g id="The_Batman">
	<path style="fill-rule:evenodd;clip-rule:evenodd;fill:#3C404A;" d="M47.999,42.089c0,3.265-2.646,5.911-5.91,5.911H5.91
		C2.646,48,0,45.354,0,42.089V5.91C0,2.646,2.646,0,5.91,0h36.179c3.265,0,5.91,2.646,5.91,5.91V42.089z"/>
	<polygon style="fill:#E8D0B8;" points="25.155,35.324 24.572,35.539 24.572,35.54 24.569,35.54 24.567,35.54 24.567,35.539 
		24.16,35.371 16.747,33.408 18.579,42.957 30.56,42.957 32.39,33.408 	"/>
	<polygon points="27.565,37.742 21.573,37.742 20.311,39.179 21.573,38.585 27.565,38.585 28.828,39.179 	"/>
	<path d="M33.685,5.096c-0.537,1.112-2.422,6.588-3.062,7.099c-1.85-0.511-4.053-0.86-5.912-0.895v-0.007
		c-0.045,0-0.094,0.004-0.141,0.004s-0.096-0.004-0.143-0.004V11.3c-1.857,0.034-4.061,0.384-5.91,0.895
		c-0.643-0.511-2.525-5.986-3.064-7.099c-0.801-1.659-2.77,22.134-2.766,22.302c0.014,0.932,1.576,5.572,1.609,5.632l4.283,9.928
		l-1.832-9.549l7.812,2.068h0.02l7.811-2.068l-1.83,9.549l4.281-9.928c0.033-0.06,1.596-4.7,1.611-5.632
		C36.454,27.229,34.487,3.437,33.685,5.096z"/>
	<path style="fill:#FFFFFF;" d="M27.868,30.354c0,0,2.85-2.773,4.434-3.269c1.582-0.496,0.631,1.982-0.535,2.351
		C30.603,29.804,27.868,30.354,27.868,30.354z"/>
	<path style="fill:#FFFFFF;" d="M21.269,30.354c0,0-2.848-2.773-4.432-3.269c-1.582-0.496-0.631,1.982,0.535,2.351
		C18.536,29.804,21.269,30.354,21.269,30.354z"/>
</g>
<g id="Layer_1">
</g>
</svg>
