<?xml version="1.0" encoding="iso-8859-1"?>
<!-- Generator: Adobe Illustrator 15.0.0, SVG Export Plug-In . SVG Version: 6.00 Build 0)  -->
<!DOCTYPE svg PUBLIC "-//W3C//DTD SVG 1.1//EN" "http://www.w3.org/Graphics/SVG/1.1/DTD/svg11.dtd">
<svg version="1.1" xmlns="http://www.w3.org/2000/svg" xmlns:xlink="http://www.w3.org/1999/xlink" x="0px" y="0px" width="48px"
	 height="48px" viewBox="0 0 48 48" style="enable-background:new 0 0 48 48;" xml:space="preserve">
<g id="The_Wolverine">
	<path style="fill-rule:evenodd;clip-rule:evenodd;fill:#603A70;" d="M48,42.089C48,45.354,45.354,48,42.089,48H5.911
		C2.646,48,0,45.354,0,42.089V5.91C0,2.646,2.646,0,5.911,0h36.178C45.354,0,48,2.646,48,5.91V42.089z"/>
	<path d="M2.391,31.553"/>
	<g>
		<path style="fill:#FFC91B;" d="M21.918,30.451c0,0,2.57,4.577,2.628,4.688c0.058-0.11,2.629-4.688,2.629-4.688
			s-1.686-7.662,4.604-12.002c1-0.69,1.91-1.414,2.745-2.152c-2.249-3.004-5.836-4.949-9.878-4.949
			c-4.089,0-7.711,1.992-9.955,5.057c0.803,0.7,1.673,1.388,2.624,2.045C23.603,22.789,21.918,30.451,21.918,30.451z"/>
	</g>
	<path d="M31.778,18.449c-6.289,4.34-4.604,12.002-4.604,12.002s-2.571,4.577-2.629,4.688c-0.058-0.11-2.628-4.688-2.628-4.688
		s1.685-7.662-4.604-12.002C8.512,12.372,6.353,3.82,6.353,3.82s0.11,14.914,0.166,18.364c0.057,3.45,1.331,6.332,2.839,7.735
		c1.222,1.138,4.841,3.229,4.841,3.229l4.118,9.695l-1.112-8.75l7.34,1.445v0.001h0.002h0.003v-0.001l7.34-1.445l-1.113,8.75
		l4.118-9.695c0,0,3.62-2.091,4.842-3.229c1.507-1.403,2.782-4.285,2.838-7.735S42.74,3.82,42.74,3.82S40.581,12.372,31.778,18.449z
		"/>
	<polygon style="fill:#E8D0B8;" points="18.316,42.844 17.204,34.094 24.544,35.539 24.544,35.54 24.546,35.54 24.549,35.54 
		24.549,35.539 31.889,34.094 30.775,42.844 	"/>
	<path style="fill:#FFFFFF;" d="M28.846,30.354c0,0,2.85-2.773,4.433-3.269c1.583-0.496,0.632,1.982-0.534,2.351
		C31.579,29.804,28.846,30.354,28.846,30.354z"/>
	<path style="fill:#FFFFFF;" d="M20.246,30.354c0,0-2.849-2.773-4.432-3.269c-1.583-0.496-0.632,1.982,0.534,2.351
		C17.514,29.804,20.246,30.354,20.246,30.354z"/>
	<polygon points="27.542,37.742 21.55,37.742 20.287,39.179 21.55,38.585 27.542,38.585 28.805,39.179 	"/>
</g>
<g id="Layer_1">
</g>
</svg>
