<?xml version="1.0" encoding="iso-8859-1"?>
<!-- Generator: Adobe Illustrator 15.0.0, SVG Export Plug-In . SVG Version: 6.00 Build 0)  -->
<!DOCTYPE svg PUBLIC "-//W3C//DTD SVG 1.1//EN" "http://www.w3.org/Graphics/SVG/1.1/DTD/svg11.dtd">
<svg version="1.1" xmlns="http://www.w3.org/2000/svg" xmlns:xlink="http://www.w3.org/1999/xlink" x="0px" y="0px"
	 width="47.999px" height="48px" viewBox="0 0 47.999 48" style="enable-background:new 0 0 47.999 48;" xml:space="preserve">
<g id="Time">
	<path style="fill-rule:evenodd;clip-rule:evenodd;fill:#3B97D2;" d="M47.999,42.09c0,3.264-2.646,5.91-5.91,5.91H5.91
		C2.646,48,0,45.354,0,42.09V5.911C0,2.646,2.646,0,5.91,0h36.179c3.265,0,5.91,2.646,5.91,5.911V42.09z"/>
	<circle style="fill:#FFFFFF;" cx="23.812" cy="24.222" r="15.973"/>
	<path style="fill:#1C272B;" d="M37.604,25.893l-11.741-2.128c-0.179-0.954-1.014-1.679-2.018-1.679
		c-1.134,0-2.057,0.922-2.057,2.056c0,0.896,0.58,1.651,1.382,1.933l0.003,6.429c0,0.384,0.312,0.695,0.696,0.695
		c0.186,0,0.36-0.072,0.492-0.204c0.13-0.131,0.203-0.306,0.202-0.491l-0.003-6.441c0.459-0.171,0.834-0.501,1.07-0.923
		l11.725,2.124c0.042,0.008,0.085,0.011,0.127,0.011c0.191,0,0.372-0.078,0.506-0.219c0.092-0.099,0.153-0.221,0.177-0.354
		C38.234,26.324,37.983,25.961,37.604,25.893z"/>
	<path style="fill-rule:evenodd;clip-rule:evenodd;fill:#EFC319;" d="M24.614,24.636c0.265-0.409,0.147-0.956-0.26-1.22
		c-0.407-0.264-0.956-0.147-1.22,0.261c-0.159,0.245-0.167,0.536-0.068,0.791l-7.197,10.936c-0.154,0.237-0.088,0.552,0.148,0.704
		c0.238,0.154,0.554,0.086,0.704-0.149l7.199-10.938C24.192,25.006,24.456,24.881,24.614,24.636z"/>
</g>
<g id="Layer_1">
</g>
</svg>
