<?xml version="1.0" encoding="iso-8859-1"?>
<!-- Generator: Adobe Illustrator 15.0.0, SVG Export Plug-In . SVG Version: 6.00 Build 0)  -->
<!DOCTYPE svg PUBLIC "-//W3C//DTD SVG 1.1//EN" "http://www.w3.org/Graphics/SVG/1.1/DTD/svg11.dtd">
<svg version="1.1" xmlns="http://www.w3.org/2000/svg" xmlns:xlink="http://www.w3.org/1999/xlink" x="0px" y="0px" width="48px"
	 height="48px" viewBox="0 0 48 48" style="enable-background:new 0 0 48 48;" xml:space="preserve">
<g id="Timer">
	<path style="fill-rule:evenodd;clip-rule:evenodd;fill:#297EB7;" d="M48,42.089C48,45.354,45.354,48,42.09,48H5.911
		C2.646,48,0,45.354,0,42.089V5.91C0,2.646,2.646,0,5.911,0H42.09C45.354,0,48,2.646,48,5.91V42.089z"/>
	<circle style="fill:#D0D2D3;" cx="23.799" cy="24.222" r="15.984"/>
	<path style="fill:#B5B5B5;" d="M23.756,8.25C14.954,8.234,7.829,15.403,7.815,24.207l15.916,0.025L23.756,8.25z"/>
	<g>
		
			<rect x="28.069" y="34.623" transform="matrix(0.9248 -0.3804 0.3804 0.9248 -11.6229 13.6601)" style="fill:#FAF39E;" width="1.368" height="3.234"/>
		
			<rect x="18.159" y="10.587" transform="matrix(0.9245 -0.3811 0.3811 0.9245 -3.2291 8.102)" style="fill:#FAF39E;" width="1.368" height="3.235"/>
	</g>
	<g>
		
			<rect x="35.115" y="27.6" transform="matrix(0.3842 -0.9233 0.9233 0.3842 -4.929 51.0451)" style="fill:#FAF39E;" width="1.368" height="3.234"/>
		
			<rect x="11.114" y="17.611" transform="matrix(0.3842 -0.9233 0.9233 0.3842 -10.4875 22.7343)" style="fill:#FAF39E;" width="1.368" height="3.235"/>
	</g>
	<g>
		
			<rect x="32.29" y="31.812" transform="matrix(0.7085 -0.7057 0.7057 0.7085 -13.9797 33.0128)" style="fill:#FAF39E;" width="1.369" height="3.235"/>
		
			<rect x="13.938" y="13.399" transform="matrix(0.7085 -0.7057 0.7057 0.7085 -6.3347 14.6951)" style="fill:#FAF39E;" width="1.367" height="3.235"/>
	</g>
	<g>
		
			<rect x="35.131" y="17.65" transform="matrix(-0.381 -0.9246 0.9246 -0.381 31.6457 59.7217)" style="fill:#FAF39E;" width="1.369" height="3.235"/>
		
			<rect x="11.097" y="27.56" transform="matrix(-0.3809 -0.9246 0.9246 -0.3809 -10.7088 51.1843)" style="fill:#FAF39E;" width="1.368" height="3.234"/>
	</g>
	<g>
		<rect x="35.18" y="23.559" style="fill:#FAF39E;" width="3.234" height="1.37"/>
	</g>
	<g>
		
			<rect x="28.108" y="10.604" transform="matrix(-0.9231 -0.3845 0.3845 -0.9231 50.671 34.5747)" style="fill:#FAF39E;" width="1.369" height="3.235"/>
		
			<rect x="18.12" y="34.606" transform="matrix(-0.9233 -0.3842 0.3842 -0.9233 22.25 76.8906)" style="fill:#FAF39E;" width="1.368" height="3.235"/>
	</g>
	<g>
		
			<rect x="32.32" y="13.429" transform="matrix(-0.7064 -0.7078 0.7078 -0.7064 45.6672 49.0367)" style="fill:#FAF39E;" width="1.369" height="3.236"/>
		
			<rect x="13.907" y="31.782" transform="matrix(-0.7062 -0.708 0.708 -0.7062 1.2495 67.3163)" style="fill:#FAF39E;" width="1.368" height="3.235"/>
	</g>
	<g>
		<rect x="23.136" y="9.606" style="fill:#FAF39E;" width="1.369" height="3.234"/>
		<rect x="23.092" y="35.603" style="fill:#FAF39E;" width="1.369" height="3.234"/>
	</g>
	<path style="fill-rule:evenodd;clip-rule:evenodd;fill:#222F35;" d="M23.748,25.139c0.487-0.004,0.879-0.402,0.877-0.887
		c-0.004-0.486-0.403-0.88-0.888-0.877c-0.293,0.002-0.54,0.156-0.699,0.379L9.947,23.75c-0.283,0.001-0.508,0.229-0.507,0.511
		c0.002,0.283,0.232,0.509,0.513,0.507l13.093,0.004C23.208,24.989,23.457,25.141,23.748,25.139z"/>
</g>
<g id="Layer_1">
</g>
</svg>
