<?xml version="1.0" encoding="iso-8859-1"?>
<!-- Generator: Adobe Illustrator 15.0.0, SVG Export Plug-In . SVG Version: 6.00 Build 0)  -->
<!DOCTYPE svg PUBLIC "-//W3C//DTD SVG 1.1//EN" "http://www.w3.org/Graphics/SVG/1.1/DTD/svg11.dtd">
<svg version="1.1" xmlns="http://www.w3.org/2000/svg" xmlns:xlink="http://www.w3.org/1999/xlink" x="0px" y="0px"
	 width="47.999px" height="48px" viewBox="0 0 47.999 48" style="enable-background:new 0 0 47.999 48;" xml:space="preserve">
<g id="Trash_Can">
	<path style="fill-rule:evenodd;clip-rule:evenodd;fill:#F2F3F3;" d="M47.999,42.089c0,3.265-2.646,5.911-5.91,5.911H5.91
		C2.646,48,0,45.354,0,42.089V5.91C0,2.646,2.646,0,5.91,0h36.179c3.265,0,5.91,2.646,5.91,5.91V42.089z"/>
	<polygon style="fill:#4CC0E5;" points="19.747,11.318 19.747,5.353 16.236,8.432 16.236,11.318 	"/>
	<polygon style="fill:#4CC0E5;" points="32.567,11.318 32.567,8.432 29.058,5.353 29.058,11.318 	"/>
	<rect x="19.747" y="5.366" style="fill:#3B97D2;" width="9.311" height="2.747"/>
	<path style="fill:#4CC0E5;" d="M11.296,17.859v12.026c-0.022,0.108-0.025,0.188-0.025,0.188v3.896v5.114c0,0,0,2.22,2.205,2.22
		h21.852c2.205,0,2.205-2.22,2.205-2.22v-6.011c0,0-0.003-0.078-0.024-0.185v-15.03H11.296z"/>
	<path style="fill:#40A2DA;" d="M30.284,17.588v14.576v1.939c0,1.07,0.87,1.938,1.938,1.938c1.071,0,1.938-0.867,1.938-1.938v-1.939
		V17.588H30.284z"/>
	<path style="fill:#40A2DA;" d="M22.645,17.588v14.576v1.939c0,1.07,0.871,1.938,1.938,1.938c1.072,0,1.939-0.867,1.939-1.938
		v-1.939V17.588H22.645z"/>
	<path style="fill:#40A2DA;" d="M15.006,17.588v14.576v1.939c0,1.07,0.87,1.938,1.938,1.938c1.071,0,1.939-0.867,1.939-1.938v-1.939
		V17.588H15.006z"/>
	<path style="fill:#40A2DA;" d="M37.327,11.179H11.476c-2.205,0-2.205,2.22-2.205,2.22v4.114v0.896c0,0,0,0.896,0.896,0.896h28.469
		c0.896,0,0.896-0.896,0.896-0.896v-5.01C39.532,13.398,39.532,11.179,37.327,11.179z"/>
	<rect x="11.296" y="19.305" style="fill:#3390C3;" width="26.236" height="1.069"/>
</g>
<g id="Layer_1">
</g>
</svg>
