<?xml version="1.0" encoding="iso-8859-1"?>
<!-- Generator: Adobe Illustrator 15.0.0, SVG Export Plug-In . SVG Version: 6.00 Build 0)  -->
<!DOCTYPE svg PUBLIC "-//W3C//DTD SVG 1.1//EN" "http://www.w3.org/Graphics/SVG/1.1/DTD/svg11.dtd">
<svg version="1.1" xmlns="http://www.w3.org/2000/svg" xmlns:xlink="http://www.w3.org/1999/xlink" x="0px" y="0px" width="48px"
	 height="48px" viewBox="0 0 48 48" style="enable-background:new 0 0 48 48;" xml:space="preserve">
<g id="Trending">
	<path style="fill-rule:evenodd;clip-rule:evenodd;fill:#945BA4;" d="M48,42.09c0,3.264-2.646,5.91-5.91,5.91H5.911
		C2.646,48,0,45.354,0,42.09V5.911C0,2.646,2.646,0,5.911,0H42.09C45.354,0,48,2.646,48,5.911V42.09z"/>
	<polygon style="fill:#D0D2D3;" points="33.309,39.861 26.262,7.749 22.018,7.749 14.971,39.861 19.216,39.861 24.14,17.418 
		29.064,39.861 	"/>
	<rect x="8.044" y="10.312" style="fill:#FFFFFF;" width="32.192" height="21.861"/>
	<polygon style="fill:#AEB2B5;" points="16.658,32.173 16.376,33.457 20.621,33.457 20.903,32.173 	"/>
	<polygon style="fill:#AEB2B5;" points="27.377,32.173 27.66,33.457 31.904,33.457 31.622,32.173 	"/>
	<polygon style="fill:#E5D388;" points="33.559,19.54 34.465,15.392 30.25,15.316 31.062,16.354 24.692,21.345 23.879,20.307 
		22.449,18.482 22.225,18.196 13.815,24.785 15.469,26.896 21.767,21.961 24.235,25.111 24.378,24.999 26.346,23.457 32.717,18.466 
			"/>
</g>
<g id="Layer_1">
</g>
</svg>
