<?xml version="1.0" encoding="iso-8859-1"?>
<!-- Generator: Adobe Illustrator 15.0.0, SVG Export Plug-In . SVG Version: 6.00 Build 0)  -->
<!DOCTYPE svg PUBLIC "-//W3C//DTD SVG 1.1//EN" "http://www.w3.org/Graphics/SVG/1.1/DTD/svg11.dtd">
<svg version="1.1" xmlns="http://www.w3.org/2000/svg" xmlns:xlink="http://www.w3.org/1999/xlink" x="0px" y="0px" width="48px"
	 height="48px" viewBox="0 0 48 48" style="enable-background:new 0 0 48 48;" xml:space="preserve">
<g id="Upload_to_HD">
	<path style="fill-rule:evenodd;clip-rule:evenodd;fill:#603A70;" d="M48,42.089C48,45.354,45.354,48,42.089,48H5.91
		C2.646,48,0,45.354,0,42.089V5.91C0,2.646,2.646,0,5.91,0h36.179C45.354,0,48,2.646,48,5.91V42.089z"/>
	<path style="fill:#F19B1F;" d="M34.924,7.126H13.076c-1.249,0-2.263,1.016-2.263,2.264v29.057c0,1.25,1.014,2.264,2.263,2.264
		h21.848c1.248,0,2.262-1.014,2.262-2.264V9.39C37.186,8.142,36.172,7.126,34.924,7.126z"/>
	<path style="fill:#CCCCCC;" d="M31.068,33.075c0,0.592-0.479,1.07-1.069,1.07H18.001c-0.59,0-1.069-0.479-1.069-1.07V14.759
		c0-0.59,0.479-1.068,1.069-1.068h11.998c0.59,0,1.069,0.479,1.069,1.068V33.075z"/>
	<g>
		<circle style="fill:#222F35;" cx="33.5" cy="36.918" r="1.477"/>
		<circle style="fill:#222F35;" cx="14.5" cy="36.918" r="1.477"/>
	</g>
	<g>
		<circle style="fill:#222F35;" cx="33.5" cy="10.918" r="1.477"/>
		<circle style="fill:#222F35;" cx="14.5" cy="10.918" r="1.477"/>
	</g>
	<path style="fill:#FFFFFF;" d="M28.244,23.771c-0.02-0.036-0.032-0.071-0.055-0.104l-3.468-4.558
		c-0.161-0.225-0.428-0.358-0.721-0.358c-0.289,0-0.559,0.134-0.718,0.358l-3.469,4.558c-0.177,0.247-0.193,0.566-0.042,0.83
		c0.088,0.153,0.23,0.267,0.393,0.341c0.115,0.052,0.239,0.084,0.372,0.084h1.766v2.054v1.517c0,0.209,0.115,0.384,0.279,0.49
		c0.092,0.06,0.196,0.104,0.314,0.104h2.215c0.326,0,0.593-0.266,0.593-0.594v-3.57h1.767c0.322,0,0.613-0.162,0.761-0.425
		C28.363,24.268,28.36,24,28.244,23.771z"/>
</g>
<g id="Layer_1">
</g>
</svg>
