<?xml version="1.0" encoding="iso-8859-1"?>
<!-- Generator: Adobe Illustrator 15.0.0, SVG Export Plug-In . SVG Version: 6.00 Build 0)  -->
<!DOCTYPE svg PUBLIC "-//W3C//DTD SVG 1.1//EN" "http://www.w3.org/Graphics/SVG/1.1/DTD/svg11.dtd">
<svg version="1.1" xmlns="http://www.w3.org/2000/svg" xmlns:xlink="http://www.w3.org/1999/xlink" x="0px" y="0px" width="48px"
	 height="48px" viewBox="0 0 48 48" style="enable-background:new 0 0 48 48;" xml:space="preserve">
<g id="USB">
	<path style="fill-rule:evenodd;clip-rule:evenodd;fill:#4EB96F;" d="M48,42.09c0,3.264-2.646,5.91-5.91,5.91H5.911
		C2.646,48,0,45.354,0,42.09V5.911C0,2.646,2.646,0,5.911,0H42.09C45.354,0,48,2.646,48,5.911V42.09z"/>
	<path style="fill:#131B1D;" d="M33.936,21.632l-6.076-6.075l-1.051-1.051c-0.774-0.775-2.045-0.777-2.821-0.002l-5.625,5.627
		l-8.575,8.574c-0.776,0.777-0.775,2.047,0,2.822l1.052,1.051l6.075,6.075c0.777,0.778,2.045,0.776,2.821,0l2.187-2.187l9.826-9.826
		l2.188-2.188C34.711,23.677,34.713,22.408,33.936,21.632z"/>
	
		<rect x="28.194" y="11.282" transform="matrix(0.7071 0.7071 -0.7071 0.7071 20.499 -19.0162)" style="fill:#F4F5F5;" width="10.021" height="7.908"/>
	
		<rect x="33.162" y="16.386" transform="matrix(0.7074 -0.7068 0.7068 0.7074 -2.1776 28.9531)" style="fill:#222F35;" width="1.444" height="1.443"/>
	
		<rect x="30.612" y="13.834" transform="matrix(-0.7068 -0.7074 0.7074 -0.7068 43.181 47.0115)" style="fill:#222F35;" width="1.444" height="1.445"/>
</g>
<g id="Layer_1">
</g>
</svg>
