<?xml version="1.0" encoding="iso-8859-1"?>
<!-- Generator: Adobe Illustrator 15.0.0, SVG Export Plug-In . SVG Version: 6.00 Build 0)  -->
<!DOCTYPE svg PUBLIC "-//W3C//DTD SVG 1.1//EN" "http://www.w3.org/Graphics/SVG/1.1/DTD/svg11.dtd">
<svg version="1.1" xmlns="http://www.w3.org/2000/svg" xmlns:xlink="http://www.w3.org/1999/xlink" x="0px" y="0px" width="48px"
	 height="48px" viewBox="0 0 48 48" style="enable-background:new 0 0 48 48;" xml:space="preserve">
<g id="Water_Drop">
	<path style="fill-rule:evenodd;clip-rule:evenodd;fill:#F2F3F3;" d="M48,42.09c0,3.264-2.646,5.91-5.91,5.91H5.911
		C2.646,48,0,45.354,0,42.09V5.911C0,2.646,2.646,0,5.911,0H42.09C45.354,0,48,2.646,48,5.911V42.09z"/>
	<path style="fill:#3B97D2;" d="M34.285,28.996c0,4.834-4.266,8.755-9.532,8.755c-5.265,0-9.532-3.921-9.532-8.755
		c0-4.835,9.532-18.811,9.532-18.811S34.285,24.161,34.285,28.996z"/>
	<circle style="fill:#4CC0E5;" cx="20.921" cy="29.723" r="2.357"/>
</g>
<g id="Layer_1">
</g>
</svg>
